<?xml version="1.0" encoding="UTF-8"?>
<svg xmlns="http://www.w3.org/2000/svg" viewBox="0 0 160 160">
  <defs>
    <style>
      .cls-1 { fill: #0b0b0b; }
      @media (prefers-color-scheme: dark) {
        .cls-1 { fill: #f2f2f2; }
      }
    </style>
  </defs>
  <g transform="translate(33.385, 21.52)">
    <path class="cls-1" d="M92.99,51.71H25.98c15.9-10.1,36.56-14.78,60.19-13.57l6.65.34-1.23-6.54C87.91,12.48,72.56,1.73,45.95.01H0s0,60.58,0,60.58h73.7c-12.75,10.52-41.24,19.13-68.09,18.52L0,79.04v37.92h45.91c17.01,0,29.63-4.7,37.51-13.97,5.46-6.43,8.44-15,9.31-23.32.96-9.22.26-18.69.26-27.95ZM10.47,10.47h34.97c18.06,1.2,29.18,6.77,33.86,17.01h-.43c-27.68,0-51.17,7.82-68.39,22.76V10.47ZM75.44,96.2c-5.8,6.82-15.73,10.28-29.53,10.28H10.77v-16.9c13.6-.2,26.19-1.94,37.45-5.19,12.78-3.69,24.23-9.41,34.03-17.01.85,12.82-1.43,22.5-6.8,28.83Z"/>
  </g>
</svg>