<?xml version="1.0" encoding="UTF-8"?>
<svg id="Calque_2" data-name="Calque 2" xmlns="http://www.w3.org/2000/svg" viewBox="0 0 38.88 48.78">
  <defs>
    <style>
      .cls-1 {
        fill: #f2f2f2;
      }
    </style>
  </defs>
  <g id="Calque_1-2" data-name="Calque 1">
    <path class="cls-1" d="M38.78,21.57H10.84c6.63-4.22,15.24-6.17,25.09-5.66l2.78.14-.52-2.73C36.66,5.2,30.26.72,19.16.01H0s0,25.26,0,25.26h30.74c-5.32,4.39-17.2,7.98-28.4,7.72l-2.34-.03v15.82h19.15c7.09,0,12.35-1.96,15.64-5.83,2.28-2.68,3.52-6.26,3.88-9.73.4-3.84.11-7.79.11-11.65ZM4.37,4.37h14.58c7.53.5,12.17,2.82,14.12,7.09h-.18c-11.54,0-21.34,3.26-28.52,9.49V4.37ZM31.46,40.12c-2.42,2.85-6.56,4.29-12.31,4.29H4.49v-7.05c5.67-.08,10.92-.81,15.62-2.16,5.33-1.54,10.1-3.93,14.19-7.1.36,5.34-.6,9.38-2.84,12.02Z"/>
  </g>
</svg>