<?xml version="1.0" encoding="UTF-8"?>
<svg id="Calque_2" data-name="Calque 2" xmlns="http://www.w3.org/2000/svg" viewBox="0 0 436.86 111.34">
  <defs>
    <style>
      .cls-1 {
        fill: #0b0b0b;
      }

      .cls-2 {
        fill: #f2f2f2;
      }
    </style>
  </defs>
  <g id="Calque_1-2" data-name="Calque 1">
    <g>
      <g>
        <g>
          <path class="cls-2" d="M114.03,65.89c-2-1.05-3.55-2.52-4.64-4.41-1.09-1.89-1.64-4.06-1.64-6.52v-1.98c0-.23.08-.42.24-.58.16-.16.35-.24.58-.24h7.85c.23,0,.42.08.58.24.16.16.24.35.24.58v1.5c0,1.41.36,2.55,1.09,3.41.73.87,1.64,1.3,2.73,1.3s2-.41,2.73-1.23c.73-.82,1.09-1.89,1.09-3.21s-.46-2.54-1.37-3.52c-.91-.98-2.69-2.42-5.33-4.34-2.28-1.64-4.12-3.1-5.53-4.37-1.41-1.27-2.62-2.85-3.62-4.71-1-1.87-1.5-4.03-1.5-6.49,0-3.87,1.21-6.97,3.62-9.29,2.41-2.32,5.6-3.48,9.56-3.48s7.23,1.21,9.66,3.62c2.44,2.41,3.65,5.58,3.65,9.49v1.64c0,.23-.08.42-.24.58-.16.16-.35.24-.58.24h-7.85c-.23,0-.42-.08-.58-.24-.16-.16-.24-.35-.24-.58v-1.84c0-1.41-.35-2.54-1.06-3.38-.71-.84-1.63-1.26-2.77-1.26s-1.98.4-2.66,1.19c-.68.8-1.02,1.9-1.02,3.31s.43,2.57,1.3,3.62c.86,1.05,2.57,2.5,5.12,4.37,2.82,2.1,4.95,3.79,6.39,5.09,1.43,1.3,2.55,2.73,3.35,4.3.8,1.57,1.2,3.45,1.2,5.63,0,4.01-1.23,7.2-3.69,9.56-2.46,2.37-5.69,3.55-9.7,3.55-2.64,0-4.96-.52-6.97-1.57Z"/>
          <path class="cls-2" d="M165.3,19.34c.16.16.24.35.24.58v6.62c0,.23-.08.42-.24.58-.16.16-.35.24-.58.24h-8.54c-.23,0-.34.11-.34.34v38.38c0,.23-.08.42-.24.58-.16.16-.35.24-.58.24h-7.99c-.23,0-.42-.08-.58-.24-.16-.16-.24-.35-.24-.58V27.71c0-.23-.11-.34-.34-.34h-8.2c-.23,0-.42-.08-.58-.24-.16-.16-.24-.35-.24-.58v-6.62c0-.23.08-.42.24-.58.16-.16.35-.24.58-.24h27.04c.23,0,.42.08.58.24Z"/>
          <path class="cls-2" d="M172.7,63.6c-2.48-2.57-3.72-6-3.72-10.28V19.92c0-.23.08-.42.24-.58s.35-.24.58-.24h7.99c.23,0,.42.08.58.24.16.16.24.35.24.58v34.35c0,1.46.36,2.64,1.09,3.55.73.91,1.68,1.37,2.87,1.37s2.13-.45,2.83-1.37c.71-.91,1.06-2.09,1.06-3.55V19.92c0-.23.08-.42.24-.58.16-.16.35-.24.58-.24h7.99c.23,0,.42.08.58.24.16.16.24.35.24.58v33.4c0,4.28-1.24,7.71-3.72,10.28-2.48,2.57-5.75,3.86-9.8,3.86s-7.39-1.29-9.87-3.86Z"/>
          <path class="cls-2" d="M200.7,66.67c-.16-.16-.24-.35-.24-.58V19.92c0-.23.08-.42.24-.58.16-.16.35-.24.58-.24h12.36c4.14,0,7.47,1.21,9.97,3.62,2.5,2.41,3.76,5.62,3.76,9.63v21.31c0,4.01-1.25,7.22-3.76,9.63-2.5,2.41-5.83,3.62-9.97,3.62h-12.36c-.23,0-.42-.08-.58-.24ZM210.43,58.65l3.07-.07c1.23-.04,2.23-.57,3.01-1.57.77-1,1.18-2.32,1.23-3.96v-20.08c0-1.73-.39-3.1-1.16-4.1-.77-1-1.82-1.5-3.14-1.5h-3c-.23,0-.34.11-.34.34v30.6c0,.23.11.34.34.34Z"/>
          <path class="cls-2" d="M231.72,66.67c-.16-.16-.24-.35-.24-.58V19.92c0-.23.08-.42.24-.58.16-.16.35-.24.58-.24h7.99c.23,0,.42.08.58.24.16.16.24.35.24.58v46.17c0,.23-.08.42-.24.58-.16.16-.35.24-.58.24h-7.99c-.23,0-.42-.08-.58-.24Z"/>
          <path class="cls-2" d="M248.89,63.77c-2.5-2.46-3.76-5.74-3.76-9.83v-21.85c0-4.1,1.25-7.38,3.76-9.83,2.5-2.46,5.85-3.69,10.04-3.69s7.55,1.23,10.07,3.69c2.53,2.46,3.79,5.74,3.79,9.83v21.85c0,4.1-1.26,7.38-3.79,9.83-2.53,2.46-5.89,3.69-10.07,3.69s-7.54-1.23-10.04-3.69ZM262,57.86c.77-.89,1.16-2.06,1.16-3.52v-22.67c0-1.46-.39-2.63-1.16-3.52-.77-.89-1.8-1.33-3.07-1.33s-2.29.44-3.04,1.33-1.13,2.06-1.13,3.52v22.67c0,1.46.38,2.63,1.13,3.52.75.89,1.76,1.33,3.04,1.33s2.3-.44,3.07-1.33Z"/>
          <path class="cls-2" d="M292.02,66.67c-.16-.16-.24-.35-.24-.58V19.92c0-.23.08-.42.24-.58.16-.16.35-.24.58-.24h12.36c4.14,0,7.47,1.21,9.97,3.62,2.5,2.41,3.76,5.62,3.76,9.63v21.31c0,4.01-1.25,7.22-3.76,9.63-2.5,2.41-5.83,3.62-9.97,3.62h-12.36c-.23,0-.42-.08-.58-.24ZM301.75,58.65l3.07-.07c1.23-.04,2.23-.57,3.01-1.57.77-1,1.18-2.32,1.23-3.96v-20.08c0-1.73-.39-3.1-1.16-4.1-.77-1-1.82-1.5-3.14-1.5h-3c-.23,0-.34.11-.34.34v30.6c0,.23.11.34.34.34Z"/>
          <path class="cls-2" d="M325.42,63.94c-2.46-2.34-3.69-5.45-3.69-9.32v-4.71c0-.23.08-.42.24-.58.16-.16.35-.24.58-.24h7.99c.23,0,.42.08.58.24.16.16.24.35.24.58v4.85c0,1.32.34,2.39,1.02,3.21.68.82,1.59,1.23,2.73,1.23s2.13-.41,2.83-1.23c.71-.82,1.06-1.89,1.06-3.21V19.92c0-.23.08-.42.24-.58.16-.16.35-.24.58-.24h7.99c.23,0,.42.08.58.24.16.16.24.35.24.58v34.69c0,3.87-1.24,6.98-3.72,9.32-2.48,2.35-5.75,3.52-9.8,3.52s-7.24-1.17-9.7-3.52Z"/>
          <path class="cls-2" d="M377.93,27.13c-.16.16-.35.24-.58.24h-14.27c-.23,0-.34.11-.34.34v10.79c0,.23.11.34.34.34h8.2c.23,0,.42.08.58.24.16.16.24.35.24.58v6.62c0,.23-.08.42-.24.58-.16.16-.35.24-.58.24h-8.2c-.23,0-.34.11-.34.34v10.86c0,.23.11.34.34.34h14.27c.23,0,.42.08.58.24.16.16.24.35.24.58v6.62c0,.23-.08.42-.24.58-.16.16-.35.24-.58.24h-23.43c-.23,0-.42-.08-.58-.24-.16-.16-.24-.35-.24-.58V19.92c0-.23.08-.42.24-.58.16-.16.35-.24.58-.24h23.43c.23,0,.42.08.58.24.16.16.24.35.24.58v6.62c0,.23-.08.42-.24.58Z"/>
          <path class="cls-2" d="M381.27,66.67c-.16-.16-.24-.35-.24-.58v-6.9c0-.36.07-.71.2-1.02l14.62-30.39c.04-.14.04-.24,0-.31-.05-.07-.14-.1-.27-.1h-13.73c-.23,0-.42-.08-.58-.24-.16-.16-.24-.35-.24-.58v-6.62c0-.23.08-.42.24-.58.16-.16.35-.24.58-.24h23.49c.23,0,.42.08.58.24.16.16.24.35.24.58v6.9c0,.32-.07.66-.2,1.02l-14.62,30.39c-.05.14-.05.24,0,.31.04.07.14.1.27.1h13.73c.23,0,.42.08.58.24.16.16.24.35.24.58v6.62c0,.23-.08.42-.24.58-.16.16-.35.24-.58.24h-23.49c-.23,0-.42-.08-.58-.24Z"/>
          <path class="cls-2" d="M412.96,63.77c-2.5-2.46-3.76-5.74-3.76-9.83v-21.85c0-4.1,1.25-7.38,3.76-9.83,2.5-2.46,5.85-3.69,10.04-3.69s7.55,1.23,10.07,3.69c2.53,2.46,3.79,5.74,3.79,9.83v21.85c0,4.1-1.26,7.38-3.79,9.83-2.53,2.46-5.89,3.69-10.07,3.69s-7.54-1.23-10.04-3.69ZM426.07,57.86c.77-.89,1.16-2.06,1.16-3.52v-22.67c0-1.46-.39-2.63-1.16-3.52-.77-.89-1.8-1.33-3.07-1.33s-2.29.44-3.04,1.33-1.13,2.06-1.13,3.52v22.67c0,1.46.38,2.63,1.13,3.52.75.89,1.76,1.33,3.04,1.33s2.3-.44,3.07-1.33Z"/>
        </g>
        <g>
          <path class="cls-2" d="M113.07,92.78c-1.68,0-3.02-.49-4.02-1.48-1-.99-1.5-2.44-1.5-4.35v-3.23c0-1.91.5-3.36,1.5-4.35,1-.99,2.34-1.48,4.02-1.48s2.94.47,3.82,1.4,1.32,2.21,1.32,3.82v.1h-1.31v-.14c0-1.17-.31-2.13-.93-2.87-.62-.74-1.59-1.12-2.89-1.12s-2.36.4-3.1,1.21c-.74.81-1.12,1.94-1.12,3.4v3.31c0,1.46.37,2.59,1.12,3.4.74.81,1.78,1.21,3.1,1.21s2.27-.37,2.89-1.12c.62-.74.93-1.7.93-2.87v-.31h1.31v.27c0,1.61-.44,2.88-1.32,3.82s-2.15,1.4-3.82,1.4Z"/>
          <path class="cls-2" d="M127.19,92.78c-1.68,0-3.02-.49-4.01-1.48-1-.99-1.49-2.44-1.49-4.35v-3.23c0-1.91.5-3.36,1.49-4.35,1-.99,2.33-1.48,4.01-1.48s3.02.49,4.01,1.48c1,.99,1.49,2.44,1.49,4.35v3.23c0,1.91-.5,3.36-1.49,4.35-1,.99-2.33,1.48-4.01,1.48ZM127.19,91.59c1.34,0,2.37-.4,3.1-1.21.73-.8,1.1-1.94,1.1-3.4v-3.31c0-1.46-.37-2.59-1.1-3.4-.73-.8-1.76-1.21-3.1-1.21s-2.35.4-3.09,1.21c-.74.81-1.11,1.94-1.11,3.4v3.31c0,1.46.37,2.59,1.11,3.4.74.81,1.77,1.21,3.09,1.21Z"/>
          <path class="cls-2" d="M136.63,92.49v-14.32h2.56l4.34,13.55h.25l4.34-13.55h2.56v14.32h-1.27v-13.55h-.25l-4.34,13.55h-2.33l-4.34-13.55h-.25v13.55h-1.27Z"/>
          <path class="cls-2" d="M154.96,92.49v-14.32h2.56l4.34,13.55h.25l4.34-13.55h2.56v14.32h-1.27v-13.55h-.25l-4.34,13.55h-2.33l-4.34-13.55h-.25v13.55h-1.27Z"/>
          <path class="cls-2" d="M178.36,92.78c-1.02,0-1.92-.18-2.69-.54-.77-.36-1.37-.91-1.81-1.65-.44-.74-.65-1.66-.65-2.78v-9.64h1.31v9.64c0,1.28.34,2.23,1.01,2.86.68.62,1.62.93,2.83.93s2.16-.31,2.83-.93c.68-.62,1.01-1.57,1.01-2.86v-9.64h1.31v9.64c0,1.12-.21,2.05-.64,2.78-.43.74-1.03,1.29-1.81,1.65-.78.36-1.68.54-2.7.54Z"/>
          <path class="cls-2" d="M187.73,92.49v-14.32h2.6l5.85,13.55h.25v-13.55h1.31v14.32h-2.6l-5.85-13.57h-.25v13.57h-1.31Z"/>
          <path class="cls-2" d="M202.04,92.49v-14.32h1.31v14.32h-1.31Z"/>
          <path class="cls-2" d="M212.83,92.78c-1.68,0-3.02-.49-4.02-1.48-1-.99-1.5-2.44-1.5-4.35v-3.23c0-1.91.5-3.36,1.5-4.35,1-.99,2.34-1.48,4.02-1.48s2.94.47,3.82,1.4,1.32,2.21,1.32,3.82v.1h-1.31v-.14c0-1.17-.31-2.13-.93-2.87-.62-.74-1.59-1.12-2.89-1.12s-2.36.4-3.1,1.21c-.74.81-1.12,1.94-1.12,3.4v3.31c0,1.46.37,2.59,1.12,3.4.74.81,1.78,1.21,3.1,1.21s2.27-.37,2.89-1.12c.62-.74.93-1.7.93-2.87v-.31h1.31v.27c0,1.61-.44,2.88-1.32,3.82s-2.15,1.4-3.82,1.4Z"/>
          <path class="cls-2" d="M220.52,92.49l4.69-14.32h2.33l4.69,14.32h-1.37l-1.23-3.81h-6.51l-1.23,3.81h-1.37ZM223.49,87.5h5.77l-2.76-8.55h-.25l-2.76,8.55Z"/>
          <path class="cls-2" d="M237.7,92.49v-13.14h-4.79v-1.19h10.89v1.19h-4.79v13.14h-1.31Z"/>
          <path class="cls-2" d="M247.2,92.49v-14.32h1.31v14.32h-1.31Z"/>
          <path class="cls-2" d="M257.98,92.78c-1.68,0-3.02-.49-4.01-1.48-1-.99-1.49-2.44-1.49-4.35v-3.23c0-1.91.5-3.36,1.49-4.35,1-.99,2.33-1.48,4.01-1.48s3.02.49,4.01,1.48c1,.99,1.49,2.44,1.49,4.35v3.23c0,1.91-.5,3.36-1.49,4.35-1,.99-2.33,1.48-4.01,1.48ZM257.98,91.59c1.34,0,2.37-.4,3.1-1.21.73-.8,1.1-1.94,1.1-3.4v-3.31c0-1.46-.37-2.59-1.1-3.4-.73-.8-1.76-1.21-3.1-1.21s-2.35.4-3.09,1.21c-.74.81-1.11,1.94-1.11,3.4v3.31c0,1.46.37,2.59,1.11,3.4.74.81,1.77,1.21,3.09,1.21Z"/>
          <path class="cls-2" d="M267.41,92.49v-14.32h2.6l5.85,13.55h.25v-13.55h1.31v14.32h-2.6l-5.85-13.57h-.25v13.57h-1.31Z"/>
          <path class="cls-1" d="M288.27,92.49v-14.32h5.61c.89,0,1.67.15,2.34.45.67.3,1.21.73,1.6,1.3.39.57.58,1.25.58,2.06v.21c0,.97-.23,1.73-.7,2.28s-1.01.92-1.64,1.09v.25c.48.01.88.16,1.21.45.33.29.49.74.49,1.37v4.87h-1.31v-4.73c0-.44-.12-.77-.36-1-.24-.23-.6-.35-1.07-.35h-5.44v6.08h-1.31ZM289.58,85.22h4.17c1.06,0,1.89-.25,2.47-.75.58-.5.87-1.21.87-2.14v-.1c0-.93-.28-1.64-.85-2.14-.57-.5-1.39-.75-2.49-.75h-4.17v5.87Z"/>
          <path class="cls-1" d="M302.09,92.49v-14.32h8.66v1.19h-7.35v5.36h6.77v1.19h-6.77v5.4h7.43v1.19h-8.74ZM305.59,76.98l1.35-2.41h1.6l-1.68,2.41h-1.27Z"/>
          <path class="cls-1" d="M318.67,92.49v-13.14h-4.79v-1.19h10.89v1.19h-4.79v13.14h-1.31Z"/>
          <path class="cls-1" d="M325.45,92.49l4.69-14.32h2.33l4.69,14.32h-1.37l-1.23-3.81h-6.51l-1.23,3.81h-1.37ZM328.42,87.5h5.77l-2.76-8.55h-.25l-2.76,8.55Z"/>
          <path class="cls-1" d="M340.18,92.49v-1.19h2.05v-11.95h-2.05v-1.19h7.1c.82,0,1.55.15,2.19.45s1.14.72,1.5,1.26.54,1.16.54,1.87v.16c0,.67-.13,1.22-.39,1.66-.26.44-.57.78-.94,1.02-.37.25-.73.42-1.08.53v.25c.35.08.72.25,1.09.5s.69.6.94,1.03.38.99.38,1.66v.2c0,.78-.19,1.45-.56,2-.38.56-.89.99-1.53,1.28-.65.29-1.38.44-2.2.44h-7.04ZM343.54,84.67h3.64c.94,0,1.68-.24,2.22-.71.54-.47.81-1.09.81-1.85v-.2c0-.76-.27-1.38-.81-1.85-.54-.47-1.28-.71-2.22-.71h-3.64v5.32ZM343.54,91.3h3.56c1.02,0,1.8-.24,2.32-.72.53-.48.79-1.12.79-1.92v-.16c0-.8-.26-1.45-.79-1.92-.52-.48-1.3-.72-2.32-.72h-3.56v5.44Z"/>
          <path class="cls-1" d="M355.33,92.49v-14.32h1.31v13.14h7.53v1.19h-8.84Z"/>
          <path class="cls-1" d="M367.59,92.49v-14.32h1.31v14.32h-1.31Z"/>
          <path class="cls-1" d="M373.19,92.49v-14.32h8.66v1.19h-7.35v5.36h6.77v1.19h-6.77v5.4h7.43v1.19h-8.74Z"/>
          <path class="cls-2" d="M386.5,92.78c-.34,0-.62-.11-.84-.33-.22-.22-.33-.5-.33-.84s.11-.62.33-.84.5-.33.84-.33.62.11.84.33c.22.22.33.5.33.84s-.11.62-.33.84-.5.33-.84.33Z"/>
        </g>
      </g>
      <path class="cls-1" d="M88.52,49.23H24.74c15.13-9.63,34.79-14.08,57.27-12.92l6.35.32-1.19-6.23C83.68,11.87,69.07,1.64,43.73.02L0,0v57.68h70.16c-12.14,10.02-39.26,18.21-64.82,17.62l-5.34-.07v36.11h43.71c16.18,0,28.19-4.47,35.7-13.31,5.2-6.12,8.03-14.29,8.86-22.21.91-8.76.25-17.78.25-26.59ZM9.97,9.97h33.28c17.19,1.14,27.78,6.44,32.23,16.18h-.41c-26.34,0-48.71,7.44-65.1,21.66V9.97ZM71.81,91.57c-5.52,6.51-14.97,9.79-28.1,9.79H10.25v-16.09c12.94-.18,24.92-1.85,35.65-4.93,12.17-3.52,23.05-8.97,32.39-16.21.82,12.19-1.37,21.41-6.48,27.44Z"/>
    </g>
  </g>
</svg>