<?xml version="1.0" encoding="UTF-8"?>
<svg id="Calque_2" data-name="Calque 2" xmlns="http://www.w3.org/2000/svg" viewBox="0 0 1073.63 524.55">
  <defs>
    <style>
      .cls-1 {
        fill: #f5f4f4;
      }
    </style>
  </defs>
  <g id="Calque_1-2" data-name="Calque 1">
    <g>
      <g>
        <g>
          <path class="cls-1" d="M21.22,524.55c-6.48,0-11.63-1.88-15.47-5.64-3.84-3.76-5.75-9.24-5.75-16.44v-12.44c0-7.2,1.92-12.68,5.75-16.44,3.83-3.76,8.99-5.64,15.47-5.64s11.36,1.79,14.81,5.36c3.45,3.58,5.17,8.47,5.17,14.69v.39h-6.45v-.62c0-4.09-1.1-7.45-3.3-10.07-2.2-2.62-5.61-3.93-10.22-3.93s-8.21,1.41-10.8,4.24c-2.59,2.83-3.89,6.78-3.89,11.85v12.75c0,5.08,1.29,9.03,3.89,11.85,2.59,2.83,6.19,4.24,10.8,4.24s8.02-1.31,10.22-3.93c2.2-2.62,3.3-5.97,3.3-10.07v-1.24h6.45v1.01c0,6.22-1.72,11.12-5.17,14.69-3.45,3.58-8.38,5.36-14.81,5.36Z"/>
          <path class="cls-1" d="M75.09,524.55c-6.48,0-11.65-1.88-15.51-5.64-3.86-3.76-5.79-9.24-5.79-16.44v-12.44c0-7.2,1.93-12.68,5.79-16.44,3.86-3.76,9.03-5.64,15.51-5.64s11.73,1.88,15.59,5.64c3.86,3.76,5.79,9.24,5.79,16.44v12.44c0,7.2-1.93,12.68-5.79,16.44-3.86,3.76-9.05,5.64-15.59,5.64ZM75.09,518.72c4.72,0,8.37-1.41,10.96-4.24,2.59-2.82,3.89-6.75,3.89-11.78v-12.9c0-5.03-1.29-8.95-3.89-11.78-2.59-2.82-6.24-4.24-10.96-4.24s-8.29,1.41-10.88,4.24c-2.59,2.83-3.89,6.75-3.89,11.78v12.9c0,5.03,1.29,8.95,3.89,11.78,2.59,2.83,6.22,4.24,10.88,4.24Z"/>
          <path class="cls-1" d="M111.23,523.46v-54.41h12.44l14.46,50.29h1.01l14.46-50.29h12.44v54.41h-6.3v-50.14h-1.09l-14.38,50.14h-11.27l-14.38-50.14h-1.09v50.14h-6.3Z"/>
          <path class="cls-1" d="M182.36,523.46v-54.41h12.44l14.46,50.29h1.01l14.46-50.29h12.44v54.41h-6.3v-50.14h-1.09l-14.38,50.14h-11.27l-14.38-50.14h-1.09v50.14h-6.3Z"/>
          <path class="cls-1" d="M273.15,524.55c-4.04,0-7.57-.73-10.57-2.18-3.01-1.45-5.34-3.61-7-6.49-1.66-2.88-2.49-6.41-2.49-10.61v-36.22h6.45v36.3c0,4.46,1.19,7.8,3.58,10.03,2.38,2.23,5.72,3.34,10.03,3.34s7.64-1.11,10.03-3.34c2.38-2.23,3.58-5.57,3.58-10.03v-36.3h6.53v36.22c0,4.2-.83,7.73-2.49,10.61-1.66,2.88-4,5.04-7.04,6.49-3.03,1.45-6.57,2.18-10.61,2.18Z"/>
          <path class="cls-1" d="M309.14,523.46v-54.41h12.67l18.97,50.29h1.01v-50.29h6.45v54.41h-12.67l-18.89-50.37h-1.09v50.37h-6.45Z"/>
          <path class="cls-1" d="M364.64,523.46v-54.41h6.53v54.41h-6.53Z"/>
          <path class="cls-1" d="M407.16,524.55c-6.48,0-11.63-1.88-15.47-5.64-3.84-3.76-5.75-9.24-5.75-16.44v-12.44c0-7.2,1.92-12.68,5.75-16.44,3.83-3.76,8.99-5.64,15.47-5.64s11.36,1.79,14.81,5.36c3.45,3.58,5.17,8.47,5.17,14.69v.39h-6.45v-.62c0-4.09-1.1-7.45-3.3-10.07-2.2-2.62-5.61-3.93-10.22-3.93s-8.21,1.41-10.8,4.24c-2.59,2.83-3.89,6.78-3.89,11.85v12.75c0,5.08,1.29,9.03,3.89,11.85,2.59,2.83,6.19,4.24,10.8,4.24s8.02-1.31,10.22-3.93c2.2-2.62,3.3-5.97,3.3-10.07v-1.24h6.45v1.01c0,6.22-1.72,11.12-5.17,14.69-3.45,3.58-8.38,5.36-14.81,5.36Z"/>
          <path class="cls-1" d="M436.46,523.46l16.79-54.41h11.51l16.79,54.41h-6.76l-4.2-13.76h-23.16l-4.2,13.76h-6.76ZM449.06,503.79h19.82l-9.33-30.78h-1.09l-9.4,30.78Z"/>
          <path class="cls-1" d="M501.14,523.46v-48.51h-17.49v-5.91h41.51v5.91h-17.49v48.51h-6.53Z"/>
          <path class="cls-1" d="M537.36,523.46v-54.41h6.53v54.41h-6.53Z"/>
          <path class="cls-1" d="M579.96,524.55c-6.48,0-11.65-1.88-15.51-5.64-3.86-3.76-5.79-9.24-5.79-16.44v-12.44c0-7.2,1.93-12.68,5.79-16.44,3.86-3.76,9.03-5.64,15.51-5.64s11.73,1.88,15.59,5.64c3.86,3.76,5.79,9.24,5.79,16.44v12.44c0,7.2-1.93,12.68-5.79,16.44-3.86,3.76-9.05,5.64-15.59,5.64ZM579.96,518.72c4.72,0,8.37-1.41,10.96-4.24,2.59-2.82,3.89-6.75,3.89-11.78v-12.9c0-5.03-1.29-8.95-3.89-11.78-2.59-2.82-6.24-4.24-10.96-4.24s-8.29,1.41-10.88,4.24c-2.59,2.83-3.89,6.75-3.89,11.78v12.9c0,5.03,1.29,8.95,3.89,11.78,2.59,2.83,6.22,4.24,10.88,4.24Z"/>
          <path class="cls-1" d="M616.1,523.46v-54.41h12.67l18.97,50.29h1.01v-50.29h6.45v54.41h-12.67l-18.89-50.37h-1.09v50.37h-6.45Z"/>
        </g>
        <g>
          <path class="cls-1" d="M695.46,523.46v-54.41h22c3.37,0,6.33.58,8.9,1.75,2.57,1.17,4.57,2.83,6.02,4.97,1.45,2.15,2.18,4.73,2.18,7.73v.86c0,3.58-.86,6.4-2.57,8.47-1.71,2.07-3.73,3.47-6.06,4.2v1.09c1.87.05,3.41.66,4.63,1.83,1.22,1.17,1.83,2.91,1.83,5.25v18.27h-6.45v-17.49c0-1.55-.43-2.75-1.28-3.58-.85-.83-2.14-1.24-3.85-1.24h-18.81v22.31h-6.53ZM701.99,495.24h14.85c3.58,0,6.33-.87,8.28-2.6,1.94-1.73,2.92-4.16,2.92-7.27v-.54c0-3.11-.96-5.53-2.88-7.27-1.92-1.74-4.69-2.6-8.32-2.6h-14.85v20.29Z"/>
          <path class="cls-1" d="M748.4,523.46v-54.41h33.5v5.91h-26.97v18.19h24.8v5.91h-24.8v18.5h27.36v5.91h-33.89ZM761.23,464.54l5.21-9.41h7.62l-6.84,9.41h-5.98Z"/>
          <path class="cls-1" d="M809.42,523.46v-48.51h-17.49v-5.91h41.51v5.91h-17.49v48.51h-6.53Z"/>
          <path class="cls-1" d="M835.54,523.46l16.79-54.41h11.51l16.79,54.41h-6.76l-4.2-13.76h-23.16l-4.2,13.76h-6.76ZM848.13,503.79h19.82l-9.33-30.78h-1.09l-9.4,30.78Z"/>
          <path class="cls-1" d="M890.11,523.46v-5.83h7.62v-42.75h-7.62v-5.83h27.28c3.16,0,5.97.57,8.43,1.71,2.46,1.14,4.38,2.73,5.75,4.78,1.37,2.05,2.06,4.44,2.06,7.19v.62c0,2.54-.49,4.63-1.48,6.26-.99,1.63-2.15,2.9-3.5,3.81-1.35.91-2.67,1.57-3.97,1.98v1.09c1.29.31,2.64.92,4.04,1.83,1.4.91,2.58,2.19,3.54,3.85.96,1.66,1.44,3.76,1.44,6.3v.78c0,2.95-.71,5.51-2.14,7.66-1.42,2.15-3.37,3.78-5.83,4.9-2.46,1.11-5.27,1.67-8.43,1.67h-27.21ZM904.25,493.07h12.59c3.11,0,5.6-.79,7.46-2.37,1.86-1.58,2.8-3.67,2.8-6.26v-.78c0-2.64-.92-4.75-2.76-6.33-1.84-1.58-4.34-2.37-7.5-2.37h-12.59v18.11ZM904.25,517.55h12.36c3.42,0,6.04-.8,7.85-2.41,1.81-1.6,2.72-3.78,2.72-6.53v-.7c0-2.75-.91-4.92-2.72-6.53-1.81-1.61-4.43-2.41-7.85-2.41h-12.36v18.58Z"/>
          <path class="cls-1" d="M947.94,523.46v-54.41h6.53v48.51h27.52v5.91h-34.05Z"/>
          <path class="cls-1" d="M994.27,523.46v-54.41h6.53v54.41h-6.53Z"/>
          <path class="cls-1" d="M1017.12,523.46v-54.41h33.5v5.91h-26.97v18.19h24.8v5.91h-24.8v18.5h27.36v5.91h-33.89Z"/>
        </g>
        <path class="cls-1" d="M1068.34,524.55c-1.5,0-2.76-.49-3.77-1.48-1.01-.98-1.52-2.25-1.52-3.81s.51-2.82,1.52-3.81c1.01-.98,2.27-1.48,3.77-1.48s2.82.49,3.81,1.48c.98.99,1.48,2.25,1.48,3.81s-.49,2.83-1.48,3.81c-.98.98-2.25,1.48-3.81,1.48Z"/>
      </g>
      <path class="cls-1" d="M302.53,238.07c-.19-8.47-.39-17.21-.4-25.78H79.88l3.78-2.4c46.53-29.56,106.67-45.19,173.92-45.19,7.74,0,15.69.21,23.62.61l20.08,1.03-3.72-19.76c-2.95-15.67-8.33-29.77-15.96-41.92-7.62-12.13-17.71-22.63-29.98-31.21-12.3-8.6-27.11-15.51-44.02-20.53-7.42-2.2-15.33-4.06-23.68-5.58-15.35-2.79-30.94-4.11-46.54-4.11l-136.66-.03v195.5h243.28l-2.79,2.31c-42.82,35.32-133.11,60.95-214.7,60.95-2.94,0-5.9-.03-8.79-.1l-17-.23v121.36h148.81c55.21,0,96.14-15.22,121.64-45.22,16.35-19.23,27.05-46.06,30.13-75.55,2.21-21.12,1.72-43,1.24-64.16ZM32.34,209.03V74.84h115.72c59.7,3.97,96.27,22.41,111.8,56.38l.84,1.84h-3.44c-44.89,0-86.68,6.34-124.22,18.83-37.49,12.48-70.65,31.08-98.55,55.27l-2.15,1.87ZM247.06,357.29c-19.22,22.61-52.04,34.07-97.56,34.07H33.31v-57.85l1.28-.02c44.35-.65,85.44-6.35,122.11-16.92,41.62-12.01,78.91-30.65,110.81-55.4l1.93-1.5.16,2.44c2.81,42.24-4.78,74.26-22.56,95.17Z"/>
      <g>
        <path class="cls-1" d="M420.78,224.07c34.56-.62,62.68-28.89,62.68-63v-26.42h-96.79c1.07-18.24,16.18-32.93,34.1-32.93h62.69v-28.25h-62.69c-34.23,0-62.08,28.26-62.08,63v26.42h96.48c-1.07,18.25-16.02,32.64-34.41,32.93h-62.08v28.24h62.09Z"/>
        <path class="cls-1" d="M566.29,224.07h26.72v-28.24h-26.71c-19-.3-34.46-15.89-34.46-34.76v-59.35h49.19v-28.25h-49.19v-31.05h-27.94v119.57c.32,34.17,27.71,61.44,62.39,62.07Z"/>
        <path class="cls-1" d="M663.58,224.07c34.69,0,62.37-27.26,63-62.08v-88.52h-28.24v87.6c0,19.49-15.27,34.76-34.76,34.76s-34.76-15.27-34.76-34.76v-87.6h-28.24v88.54c.63,34.8,28.3,62.06,63,62.06Z"/>
        <path class="cls-1" d="M843.39,0v84.02c-10.1-6.81-22.37-10.55-34.76-10.55-34.7,0-62.37,27.4-63,62.39v26.15c.63,34.22,28.89,62.06,63,62.06,12.39,0,24.66-3.74,34.76-10.55v10.55h28.25V0h-28.25ZM843.39,161.07c0,19.34-15.59,35.07-34.76,35.07s-34.45-15.32-34.76-34.14v-26.12c.3-19.32,15.57-34.46,34.76-34.46s34.76,15.4,34.76,35.06v24.59Z"/>
        <rect class="cls-1" x="897.12" y="25.83" width="28.25" height="28.24"/>
        <rect class="cls-1" x="897.12" y="73.47" width="28.25" height="150.6"/>
        <path class="cls-1" d="M1008.41,73.47c-34.57,0-62.7,28.26-62.7,63v25.53c.31,34.22,28.44,62.07,62.7,62.07s62.99-27.84,63.61-62.08v-25.52c0-34.74-28.54-63-63.61-63ZM1043.78,161.96c-.6,18.67-16.47,33.87-35.37,33.87s-34.76-15.59-34.76-34.76v-24.59c0-19.16,15.59-34.76,34.76-34.76s35.37,15.59,35.37,34.76v25.49Z"/>
        <path class="cls-1" d="M429.28,245.24h-69.82v167.93h68.79c18.63,0,36.23-7.23,49.54-20.36,13.3-13.12,20.62-30.44,20.62-48.77v-29.68c0-38.12-31.01-69.13-69.13-69.13ZM467.83,344.05c0,21.25-17.75,38.55-39.58,38.55h-38.2v-107.12h39.24c21.25,0,38.55,17.45,38.55,38.89v29.68Z"/>
        <path class="cls-1" d="M598.16,245.24v113.99c0,13.1-10.41,23.36-23.71,23.36s-24.06-10.48-24.06-23.36v-45.31h-29.89v45.31c0,29.75,24.2,53.95,53.95,53.95s54.29-24.2,54.29-53.95v-113.99h-30.58Z"/>
        <path class="cls-1" d="M791.83,315.4c0-18.81-7.28-36.45-20.49-49.67-13.21-13.21-30.86-20.49-49.67-20.49s-36.24,7.23-49.41,20.36c-13.05,13-20.42,30.31-20.75,48.76v29.69c.34,18.19,7.66,35.37,20.62,48.37,13,13.05,30.23,20.42,48.5,20.75h71.2v-30.58h-71.2c-20.75-.34-37.95-17.38-38.54-38.1h109.73v-29.1ZM682.1,313.92c.58-21.6,17.88-38.44,39.57-38.44s38.99,16.85,39.57,38.44h-79.15Z"/>
        <polygon class="cls-1" points="921.6 247.05 920.42 245.47 808.95 245.47 808.95 275.25 877.14 275.25 808.97 410.9 808.92 411.01 810.09 412.95 921.56 412.95 921.56 382.82 853.37 382.82 921.54 247.17 921.6 247.05"/>
        <path class="cls-1" d="M1002.78,245.24c-38.5,0-69.82,31.47-69.82,70.16v28.65c.35,38.12,31.67,69.13,69.82,69.13s70.16-31.01,70.86-69.12v-28.65c0-38.69-31.79-70.16-70.86-70.16ZM1043.05,344.05c-.69,21.25-18.75,38.55-40.27,38.55s-39.58-17.76-39.58-39.58v-27.61c0-21.82,17.75-39.58,39.58-39.58s40.27,17.75,40.27,39.58v28.65Z"/>
      </g>
    </g>
  </g>
</svg>
