<?xml version="1.0" encoding="UTF-8"?>
<svg id="Calque_2" data-name="Calque 2" xmlns="http://www.w3.org/2000/svg" viewBox="0 0 338.88 76.37">
  <defs>
    <style>
      .cls-1 {
        fill: #f2f2f2;
      }

      .cls-2 {
        fill: #db3c27;
      }
    </style>
  </defs>
  <g id="Calque_1-2" data-name="Calque 1">
    <g>
      <g>
        <path class="cls-1" d="M6.68,48.7c-2.06-1.08-3.65-2.59-4.78-4.53-1.12-1.94-1.69-4.18-1.69-6.71v-2.04c0-.23.08-.43.25-.6.16-.16.36-.25.6-.25h8.08c.23,0,.43.08.6.25.16.16.25.36.25.6v1.55c0,1.45.37,2.62,1.12,3.51.75.89,1.69,1.34,2.81,1.34s2.06-.42,2.81-1.27c.75-.84,1.12-1.94,1.12-3.3s-.47-2.61-1.41-3.62c-.94-1.01-2.77-2.5-5.48-4.46-2.34-1.69-4.24-3.18-5.69-4.5-1.45-1.31-2.69-2.93-3.72-4.85-1.03-1.92-1.55-4.15-1.55-6.68,0-3.98,1.24-7.17,3.72-9.56C6.21,1.2,9.49,0,13.56,0s7.44,1.24,9.94,3.72c2.51,2.48,3.76,5.74,3.76,9.77v1.69c0,.23-.08.43-.25.6-.16.16-.36.25-.6.25h-8.08c-.23,0-.43-.08-.6-.25-.16-.16-.25-.36-.25-.6v-1.9c0-1.45-.36-2.61-1.09-3.48-.73-.87-1.68-1.3-2.85-1.3s-2.04.41-2.74,1.23c-.7.82-1.05,1.96-1.05,3.41s.44,2.65,1.34,3.72c.89,1.08,2.65,2.58,5.27,4.5,2.9,2.16,5.1,3.9,6.57,5.24,1.48,1.33,2.62,2.81,3.44,4.43.82,1.62,1.23,3.55,1.23,5.8,0,4.12-1.26,7.4-3.8,9.84-2.53,2.44-5.86,3.65-9.98,3.65-2.72,0-5.11-.54-7.17-1.62Z"/>
        <path class="cls-1" d="M59.43.81c.16.16.25.36.25.6v6.82c0,.23-.08.43-.25.6-.16.16-.36.25-.6.25h-8.78c-.23,0-.35.12-.35.35v39.5c0,.23-.08.43-.25.6-.16.16-.36.25-.6.25h-8.22c-.23,0-.43-.08-.6-.25-.16-.16-.25-.36-.25-.6V9.42c0-.23-.12-.35-.35-.35h-8.43c-.23,0-.43-.08-.6-.25-.16-.16-.25-.36-.25-.6V1.41c0-.23.08-.43.25-.6.16-.16.36-.25.6-.25h27.83c.23,0,.43.08.6.25Z"/>
        <path class="cls-1" d="M67.05,46.35c-2.55-2.65-3.83-6.17-3.83-10.58V1.41c0-.23.08-.43.25-.6s.36-.25.6-.25h8.22c.23,0,.43.08.6.25.16.16.25.36.25.6v35.35c0,1.5.37,2.72,1.12,3.65.75.94,1.73,1.41,2.95,1.41s2.19-.47,2.92-1.41c.73-.94,1.09-2.15,1.09-3.65V1.41c0-.23.08-.43.25-.6.16-.16.36-.25.6-.25h8.22c.23,0,.43.08.6.25.16.16.25.36.25.6v34.37c0,4.4-1.28,7.93-3.83,10.58-2.55,2.65-5.92,3.97-10.09,3.97s-7.6-1.32-10.16-3.97Z"/>
        <path class="cls-1" d="M95.87,49.51c-.16-.16-.25-.36-.25-.6V1.41c0-.23.08-.43.25-.6.16-.16.36-.25.6-.25h12.72c4.26,0,7.68,1.24,10.26,3.73,2.58,2.48,3.87,5.79,3.87,9.91v21.93c0,4.12-1.29,7.43-3.87,9.91-2.58,2.48-6,3.72-10.26,3.72h-12.72c-.23,0-.43-.08-.6-.25ZM105.88,41.25l3.16-.07c1.27-.05,2.3-.59,3.09-1.62.8-1.03,1.22-2.39,1.26-4.08V14.83c0-1.78-.4-3.18-1.19-4.22-.8-1.03-1.87-1.55-3.23-1.55h-3.09c-.23,0-.35.12-.35.35v31.49c0,.23.12.35.35.35Z"/>
        <path class="cls-1" d="M127.78,49.51c-.16-.16-.25-.36-.25-.6V1.41c0-.23.08-.43.25-.6.16-.16.36-.25.6-.25h8.22c.23,0,.43.08.6.25.16.16.25.36.25.6v47.51c0,.23-.08.43-.25.6-.16.16-.36.25-.6.25h-8.22c-.23,0-.43-.08-.6-.25Z"/>
        <path class="cls-1" d="M145.45,46.53c-2.58-2.53-3.87-5.9-3.87-10.12V13.92c0-4.22,1.29-7.59,3.87-10.12,2.58-2.53,6.02-3.8,10.33-3.8s7.77,1.27,10.37,3.8c2.6,2.53,3.9,5.9,3.9,10.12v22.49c0,4.22-1.3,7.59-3.9,10.12-2.6,2.53-6.06,3.8-10.37,3.8s-7.75-1.26-10.33-3.8ZM158.95,40.45c.8-.91,1.19-2.12,1.19-3.62V13.49c0-1.5-.4-2.71-1.19-3.62-.8-.91-1.85-1.37-3.16-1.37s-2.35.46-3.13,1.37-1.16,2.12-1.16,3.62v23.33c0,1.5.39,2.71,1.16,3.62.77.91,1.82,1.37,3.13,1.37s2.37-.46,3.16-1.37Z"/>
        <path class="cls-1" d="M189.83,49.51c-.16-.16-.25-.36-.25-.6V1.41c0-.23.08-.43.25-.6.16-.16.36-.25.6-.25h12.72c4.26,0,7.68,1.24,10.26,3.73,2.58,2.48,3.87,5.79,3.87,9.91v21.93c0,4.12-1.29,7.43-3.87,9.91-2.58,2.48-6,3.72-10.26,3.72h-12.72c-.23,0-.43-.08-.6-.25ZM199.85,41.25l3.16-.07c1.27-.05,2.3-.59,3.09-1.62.8-1.03,1.22-2.39,1.26-4.08V14.83c0-1.78-.4-3.18-1.19-4.22-.8-1.03-1.87-1.55-3.23-1.55h-3.09c-.23,0-.35.12-.35.35v31.49c0,.23.12.35.35.35Z"/>
        <path class="cls-1" d="M224.21,46.7c-2.53-2.41-3.8-5.61-3.8-9.59v-4.85c0-.23.08-.43.25-.6.16-.16.36-.25.6-.25h8.22c.23,0,.43.08.6.25.16.16.25.36.25.6v4.99c0,1.36.35,2.46,1.05,3.3.7.84,1.64,1.27,2.81,1.27s2.19-.42,2.92-1.27c.73-.84,1.09-1.94,1.09-3.3V1.41c0-.23.08-.43.25-.6.16-.16.36-.25.6-.25h8.22c.23,0,.43.08.6.25.16.16.25.36.25.6v35.7c0,3.98-1.28,7.18-3.83,9.59-2.55,2.41-5.92,3.62-10.09,3.62s-7.45-1.21-9.98-3.62Z"/>
        <path class="cls-1" d="M278.25,8.82c-.16.16-.36.25-.6.25h-14.69c-.23,0-.35.12-.35.35v11.1c0,.23.12.35.35.35h8.43c.23,0,.43.08.6.25.16.16.25.36.25.6v6.82c0,.23-.08.43-.25.6-.16.17-.36.25-.6.25h-8.43c-.23,0-.35.12-.35.35v11.17c0,.23.12.35.35.35h14.69c.23,0,.43.08.6.25.16.16.25.36.25.6v6.82c0,.23-.08.43-.25.6-.16.16-.36.25-.6.25h-24.11c-.23,0-.43-.08-.6-.25-.16-.16-.25-.36-.25-.6V1.41c0-.23.08-.43.25-.6.16-.16.36-.25.6-.25h24.11c.23,0,.43.08.6.25.16.16.25.36.25.6v6.82c0,.23-.08.43-.25.6Z"/>
        <path class="cls-1" d="M281.67,49.51c-.16-.16-.25-.36-.25-.6v-7.1c0-.37.07-.73.21-1.05l15.04-31.27c.05-.14.05-.25,0-.32-.05-.07-.14-.11-.28-.11h-14.13c-.23,0-.43-.08-.6-.25-.16-.16-.25-.36-.25-.6V1.41c0-.23.08-.43.25-.6.16-.16.36-.25.6-.25h24.18c.23,0,.43.08.6.25.16.16.25.36.25.6v7.1c0,.33-.07.68-.21,1.05l-15.04,31.27c-.05.14-.05.25,0,.32.05.07.14.11.28.11h14.13c.23,0,.43.08.6.25.16.16.25.36.25.6v6.82c0,.23-.08.43-.25.6-.16.16-.36.25-.6.25h-24.18c-.23,0-.43-.08-.6-.25Z"/>
        <path class="cls-1" d="M314.28,46.53c-2.58-2.53-3.87-5.9-3.87-10.12V13.92c0-4.22,1.29-7.59,3.87-10.12,2.58-2.53,6.02-3.8,10.33-3.8s7.77,1.27,10.37,3.8c2.6,2.53,3.9,5.9,3.9,10.12v22.49c0,4.22-1.3,7.59-3.9,10.12-2.6,2.53-6.06,3.8-10.37,3.8s-7.75-1.26-10.33-3.8ZM327.78,40.45c.8-.91,1.19-2.12,1.19-3.62V13.49c0-1.5-.4-2.71-1.19-3.62-.8-.91-1.85-1.37-3.16-1.37s-2.35.46-3.13,1.37-1.16,2.12-1.16,3.62v23.33c0,1.5.39,2.71,1.16,3.62.77.91,1.82,1.37,3.13,1.37s2.37-.46,3.16-1.37Z"/>
      </g>
      <g>
        <path class="cls-1" d="M5.69,76.37c-1.73,0-3.11-.51-4.14-1.53-1.03-1.02-1.55-2.51-1.55-4.47v-3.33c0-1.97.52-3.46,1.55-4.48,1.03-1.02,2.41-1.53,4.14-1.53s3.02.48,3.93,1.44,1.36,2.27,1.36,3.93v.11h-1.35v-.15c0-1.21-.32-2.19-.96-2.96-.64-.76-1.63-1.15-2.98-1.15s-2.43.42-3.19,1.24c-.77.83-1.15,1.99-1.15,3.5v3.41c0,1.5.38,2.67,1.15,3.5.76.83,1.83,1.24,3.19,1.24s2.34-.38,2.98-1.15c.64-.76.96-1.75.96-2.96v-.32h1.35v.27c0,1.66-.45,2.97-1.36,3.93s-2.21,1.44-3.93,1.44Z"/>
        <path class="cls-1" d="M20.22,76.37c-1.73,0-3.1-.51-4.13-1.53-1.02-1.02-1.54-2.51-1.54-4.47v-3.33c0-1.97.51-3.46,1.54-4.48,1.02-1.02,2.4-1.53,4.13-1.53s3.1.51,4.13,1.53c1.02,1.02,1.54,2.51,1.54,4.48v3.33c0,1.97-.51,3.46-1.54,4.47-1.02,1.02-2.4,1.53-4.13,1.53ZM20.22,75.15c1.38,0,2.44-.41,3.19-1.24.75-.83,1.13-1.99,1.13-3.5v-3.41c0-1.5-.38-2.67-1.13-3.5-.75-.83-1.81-1.24-3.19-1.24s-2.42.42-3.18,1.24c-.76.83-1.14,1.99-1.14,3.5v3.41c0,1.5.38,2.67,1.14,3.5.76.83,1.82,1.24,3.18,1.24Z"/>
        <path class="cls-1" d="M29.93,76.08v-14.74h2.63l4.46,13.94h.25l4.46-13.94h2.63v14.74h-1.31v-13.94h-.25l-4.46,13.94h-2.4l-4.46-13.94h-.25v13.94h-1.31Z"/>
        <path class="cls-1" d="M48.79,76.08v-14.74h2.63l4.46,13.94h.25l4.46-13.94h2.63v14.74h-1.31v-13.94h-.25l-4.46,13.94h-2.4l-4.46-13.94h-.25v13.94h-1.31Z"/>
        <path class="cls-1" d="M72.87,76.37c-1.05,0-1.98-.19-2.77-.56-.79-.37-1.41-.94-1.86-1.69-.45-.76-.67-1.71-.67-2.86v-9.92h1.35v9.92c0,1.32.35,2.3,1.04,2.94.7.64,1.67.96,2.92.96s2.22-.32,2.92-.96c.7-.64,1.04-1.62,1.04-2.94v-9.92h1.35v9.92c0,1.15-.22,2.11-.66,2.86-.44.76-1.06,1.32-1.86,1.69-.8.37-1.73.56-2.78.56Z"/>
        <path class="cls-1" d="M82.52,76.08v-14.74h2.67l6.02,13.94h.25v-13.94h1.35v14.74h-2.67l-6.02-13.96h-.25v13.96h-1.35Z"/>
        <path class="cls-1" d="M97.24,76.08v-14.74h1.35v14.74h-1.35Z"/>
        <path class="cls-1" d="M108.34,76.37c-1.73,0-3.11-.51-4.14-1.53-1.03-1.02-1.55-2.51-1.55-4.47v-3.33c0-1.97.52-3.46,1.55-4.48,1.03-1.02,2.41-1.53,4.14-1.53s3.02.48,3.93,1.44,1.36,2.27,1.36,3.93v.11h-1.35v-.15c0-1.21-.32-2.19-.96-2.96-.64-.76-1.63-1.15-2.98-1.15s-2.43.42-3.19,1.24c-.77.83-1.15,1.99-1.15,3.5v3.41c0,1.5.38,2.67,1.15,3.5.76.83,1.83,1.24,3.19,1.24s2.34-.38,2.98-1.15c.64-.76.96-1.75.96-2.96v-.32h1.35v.27c0,1.66-.45,2.97-1.36,3.93s-2.21,1.44-3.93,1.44Z"/>
        <path class="cls-1" d="M116.26,76.08l4.82-14.74h2.4l4.82,14.74h-1.41l-1.26-3.92h-6.7l-1.26,3.92h-1.41ZM119.31,70.94h5.94l-2.84-8.8h-.25l-2.84,8.8Z"/>
        <path class="cls-1" d="M133.93,76.08v-13.52h-4.93v-1.22h11.2v1.22h-4.93v13.52h-1.35Z"/>
        <path class="cls-1" d="M143.72,76.08v-14.74h1.35v14.74h-1.35Z"/>
        <path class="cls-1" d="M154.8,76.37c-1.73,0-3.1-.51-4.13-1.53-1.02-1.02-1.54-2.51-1.54-4.47v-3.33c0-1.97.51-3.46,1.54-4.48,1.02-1.02,2.4-1.53,4.13-1.53s3.1.51,4.13,1.53c1.02,1.02,1.54,2.51,1.54,4.48v3.33c0,1.97-.51,3.46-1.54,4.47-1.02,1.02-2.4,1.53-4.13,1.53ZM154.8,75.15c1.38,0,2.44-.41,3.19-1.24.75-.83,1.13-1.99,1.13-3.5v-3.41c0-1.5-.38-2.67-1.13-3.5-.75-.83-1.81-1.24-3.19-1.24s-2.42.42-3.18,1.24c-.76.83-1.14,1.99-1.14,3.5v3.41c0,1.5.38,2.67,1.14,3.5.76.83,1.82,1.24,3.18,1.24Z"/>
        <path class="cls-1" d="M164.51,76.08v-14.74h2.67l6.02,13.94h.25v-13.94h1.35v14.74h-2.67l-6.02-13.96h-.25v13.96h-1.35Z"/>
        <path class="cls-2" d="M185.97,76.08v-14.74h5.77c.91,0,1.72.15,2.41.46.69.31,1.24.75,1.64,1.34.4.58.6,1.29.6,2.12v.21c0,1-.24,1.78-.72,2.35s-1.04.94-1.68,1.13v.25c.49.01.91.17,1.24.46.34.29.51.76.51,1.41v5.01h-1.35v-4.86c0-.45-.12-.79-.37-1.03-.25-.24-.61-.36-1.11-.36h-5.6v6.25h-1.35ZM187.32,68.6h4.3c1.1,0,1.94-.26,2.54-.77.6-.51.89-1.25.89-2.2v-.11c0-.95-.29-1.69-.87-2.2-.58-.51-1.44-.77-2.56-.77h-4.3v6.04Z"/>
        <path class="cls-2" d="M200.2,76.08v-14.74h8.91v1.22h-7.56v5.52h6.97v1.22h-6.97v5.56h7.64v1.22h-8.99ZM203.8,60.12l1.39-2.48h1.64l-1.73,2.48h-1.31Z"/>
        <path class="cls-2" d="M217.25,76.08v-13.52h-4.93v-1.22h11.2v1.22h-4.93v13.52h-1.35Z"/>
        <path class="cls-2" d="M224.23,76.08l4.82-14.74h2.4l4.82,14.74h-1.41l-1.26-3.92h-6.7l-1.26,3.92h-1.41ZM227.29,70.94h5.94l-2.84-8.8h-.25l-2.84,8.8Z"/>
        <path class="cls-2" d="M239.39,76.08v-1.22h2.11v-12.3h-2.11v-1.22h7.31c.84,0,1.59.15,2.25.46s1.18.74,1.55,1.29.56,1.2.56,1.93v.17c0,.69-.13,1.26-.4,1.7-.27.45-.59.8-.97,1.05-.38.25-.75.44-1.12.55v.25c.36.08.74.26,1.13.52s.71.61.97,1.06.39,1.02.39,1.71v.21c0,.8-.19,1.49-.58,2.06-.39.58-.91,1.01-1.58,1.32-.67.3-1.42.45-2.26.45h-7.24ZM242.85,68.03h3.75c.97,0,1.73-.24,2.28-.73.55-.48.83-1.12.83-1.91v-.21c0-.79-.28-1.42-.83-1.91-.55-.48-1.32-.73-2.28-.73h-3.75v5.47ZM242.85,74.86h3.66c1.05,0,1.85-.25,2.39-.74.54-.49.81-1.15.81-1.98v-.17c0-.83-.27-1.49-.81-1.98-.54-.49-1.34-.74-2.39-.74h-3.66v5.6Z"/>
        <path class="cls-2" d="M254.99,76.08v-14.74h1.35v13.52h7.75v1.22h-9.1Z"/>
        <path class="cls-2" d="M267.6,76.08v-14.74h1.35v14.74h-1.35Z"/>
        <path class="cls-2" d="M273.36,76.08v-14.74h8.91v1.22h-7.56v5.52h6.97v1.22h-6.97v5.56h7.64v1.22h-8.99Z"/>
        <path class="cls-1" d="M287.06,76.37c-.35,0-.64-.11-.86-.34-.23-.22-.34-.51-.34-.86s.11-.64.34-.86.51-.34.86-.34.64.11.86.34c.22.23.34.51.34.86s-.11.64-.34.86-.51.34-.86.34Z"/>
      </g>
    </g>
  </g>
</svg>