<?xml version="1.0" encoding="UTF-8"?>
<svg id="Calque_2" data-name="Calque 2" xmlns="http://www.w3.org/2000/svg" viewBox="0 0 1072.92 422.99">
  <defs>
    <style>
      .cls-1 {
        fill: #0a0b0b;
      }
    </style>
  </defs>
  <g id="Calque_1-2" data-name="Calque 1">
    <g>
      <path class="cls-1" d="M301.83,238.07c-.19-8.47-.39-17.21-.4-25.78H79.17l3.78-2.4c46.53-29.56,106.67-45.19,173.92-45.19,7.74,0,15.69.21,23.62.61l20.08,1.03-3.72-19.76c-2.95-15.67-8.33-29.77-15.96-41.92-7.62-12.13-17.71-22.63-29.98-31.21-12.3-8.6-27.11-15.51-44.02-20.53-7.42-2.2-15.33-4.06-23.68-5.58-15.35-2.79-30.94-4.11-46.54-4.11l-136.66-.03v195.5h243.28l-2.79,2.31c-42.82,35.32-133.11,60.95-214.7,60.95-2.94,0-5.9-.03-8.79-.1L0,301.64v121.36h148.81c55.21,0,96.14-15.22,121.64-45.22,16.35-19.23,27.05-46.06,30.13-75.55,2.21-21.12,1.72-43,1.24-64.16ZM31.64,209.03V74.84h115.72c59.7,3.97,96.27,22.41,111.8,56.38l.84,1.84h-3.44c-44.89,0-86.68,6.34-124.22,18.83-37.49,12.48-70.65,31.08-98.55,55.27l-2.15,1.87ZM246.35,357.29c-19.22,22.61-52.04,34.07-97.56,34.07H32.6v-57.85l1.28-.02c44.35-.65,85.44-6.35,122.11-16.92,41.62-12.01,78.91-30.65,110.81-55.4l1.93-1.5.16,2.44c2.81,42.24-4.78,74.26-22.56,95.17Z"/>
      <g>
        <path class="cls-1" d="M420.07,224.07c34.56-.62,62.68-28.89,62.68-63v-26.42h-96.79c1.07-18.24,16.18-32.93,34.1-32.93h62.69v-28.25h-62.69c-34.23,0-62.08,28.26-62.08,63v26.42h96.48c-1.07,18.25-16.02,32.64-34.41,32.93h-62.08v28.24h62.09Z"/>
        <path class="cls-1" d="M565.58,224.07h26.72v-28.24h-26.71c-19-.3-34.46-15.89-34.46-34.76v-59.35h49.19v-28.25h-49.19v-31.05h-27.94v119.57c.32,34.17,27.71,61.44,62.39,62.07Z"/>
        <path class="cls-1" d="M662.87,224.07c34.69,0,62.37-27.26,63-62.08v-88.52h-28.24v87.6c0,19.49-15.27,34.76-34.76,34.76s-34.76-15.27-34.76-34.76v-87.6h-28.24v88.54c.63,34.8,28.3,62.06,63,62.06Z"/>
        <path class="cls-1" d="M842.69,0v84.02c-10.1-6.81-22.37-10.55-34.76-10.55-34.7,0-62.37,27.4-63,62.39v26.15c.63,34.22,28.89,62.06,63,62.06,12.39,0,24.66-3.74,34.76-10.55v10.55h28.25V0h-28.25ZM842.69,161.07c0,19.34-15.59,35.07-34.76,35.07s-34.45-15.32-34.76-34.14v-26.12c.3-19.32,15.57-34.46,34.76-34.46s34.76,15.4,34.76,35.06v24.59Z"/>
        <rect class="cls-1" x="896.41" y="25.83" width="28.25" height="28.24"/>
        <rect class="cls-1" x="896.41" y="73.47" width="28.25" height="150.6"/>
        <path class="cls-1" d="M1007.71,73.47c-34.57,0-62.7,28.26-62.7,63v25.53c.31,34.22,28.44,62.07,62.7,62.07s62.99-27.84,63.61-62.08v-25.52c0-34.74-28.54-63-63.61-63ZM1043.08,161.96c-.6,18.67-16.47,33.87-35.37,33.87s-34.76-15.59-34.76-34.76v-24.59c0-19.16,15.59-34.76,34.76-34.76s35.37,15.59,35.37,34.76v25.49Z"/>
        <path class="cls-1" d="M428.58,245.24h-69.82v167.93h68.79c18.63,0,36.23-7.23,49.54-20.36,13.3-13.12,20.62-30.44,20.62-48.77v-29.68c0-38.12-31.01-69.13-69.13-69.13ZM467.12,344.05c0,21.25-17.75,38.55-39.58,38.55h-38.2v-107.12h39.24c21.25,0,38.55,17.45,38.55,38.89v29.68Z"/>
        <path class="cls-1" d="M597.46,245.24v113.99c0,13.1-10.41,23.36-23.71,23.36s-24.06-10.48-24.06-23.36v-45.31h-29.89v45.31c0,29.75,24.2,53.95,53.95,53.95s54.29-24.2,54.29-53.95v-113.99h-30.58Z"/>
        <path class="cls-1" d="M791.13,315.4c0-18.81-7.28-36.45-20.49-49.67-13.21-13.21-30.86-20.49-49.67-20.49s-36.24,7.23-49.41,20.36c-13.05,13-20.42,30.31-20.75,48.76v29.69c.34,18.19,7.66,35.37,20.62,48.37,13,13.05,30.23,20.42,48.5,20.75h71.2v-30.58h-71.2c-20.75-.34-37.95-17.38-38.54-38.1h109.73v-29.1ZM681.39,313.92c.58-21.6,17.88-38.44,39.57-38.44s38.99,16.85,39.57,38.44h-79.15Z"/>
        <polygon class="cls-1" points="920.89 247.05 919.71 245.47 808.24 245.47 808.24 275.25 876.43 275.25 808.27 410.9 808.21 411.01 809.38 412.95 920.85 412.95 920.85 382.82 852.66 382.82 920.83 247.17 920.89 247.05"/>
        <path class="cls-1" d="M1002.07,245.24c-38.5,0-69.82,31.47-69.82,70.16v28.65c.35,38.12,31.67,69.13,69.82,69.13s70.16-31.01,70.86-69.12v-28.65c0-38.69-31.79-70.16-70.86-70.16ZM1042.34,344.05c-.69,21.25-18.75,38.55-40.27,38.55s-39.58-17.76-39.58-39.58v-27.61c0-21.82,17.75-39.58,39.58-39.58s40.27,17.75,40.27,39.58v28.65Z"/>
      </g>
    </g>
  </g>
</svg>
