<?xml version="1.0" encoding="UTF-8"?>
<svg id="Calque_2" data-name="Calque 2" xmlns="http://www.w3.org/2000/svg" viewBox="0 0 279.35 22.68">
  <defs>
    <style>
      .cls-1 {
        fill: #db3c27;
      }
    </style>
  </defs>
  <g id="Calque_1-2" data-name="Calque 1">
    <g>
      <path class="cls-1" d="M279.35,22.68H30.99V0h248.35v22.68ZM31.99,21.68h246.35V1H31.99v20.68Z"/>
      <rect class="cls-1" x="31.49" y=".5" width="61.84" height="21.68"/>
      <g>
        <path class="cls-1" d="M0,14.62v-.58c0-.4.07-.72.21-.96s.34-.43.59-.58c.25-.15.56-.27.91-.38l.44-.14c.24-.08.45-.17.63-.28s.32-.25.42-.42.15-.38.15-.62v-.03c0-.35-.12-.63-.37-.84-.25-.21-.56-.31-.94-.31-.41,0-.74.11-.99.32-.26.22-.38.54-.38.98v.11H.03v-.1c0-.41.09-.75.26-1.03.18-.28.42-.5.72-.64.3-.15.65-.22,1.03-.22s.72.07,1.02.22c.3.14.53.34.69.6.17.26.25.56.25.9v.07c0,.36-.07.66-.22.9-.14.24-.34.43-.6.58-.25.15-.55.28-.89.38l-.43.14c-.27.08-.5.17-.68.27-.18.09-.31.21-.4.36-.09.14-.14.34-.14.58v.14h3.3v.58H0Z"/>
        <path class="cls-1" d="M6.82,14.73c-.41,0-.77-.08-1.06-.24-.3-.16-.53-.38-.7-.66-.17-.28-.25-.6-.25-.97v-.1h.65v.07c0,.42.12.74.37.97.25.22.57.34.98.34s.76-.12,1-.36c.24-.24.36-.57.36-.98v-.07c0-.4-.12-.72-.35-.96-.23-.24-.53-.36-.9-.36-.21,0-.39.03-.53.1-.14.07-.25.15-.33.25s-.15.19-.2.28h-.88v-3.03h3.68v.58h-3.03v1.94h.11c.06-.11.14-.21.24-.31.1-.1.24-.19.42-.26.18-.07.39-.1.66-.1.33,0,.62.07.88.22s.47.36.63.64.24.61.24.99v.09c0,.38-.08.71-.24,1s-.39.51-.69.68c-.3.16-.65.24-1.06.24Z"/>
        <path class="cls-1" d="M10.74,11.49c-.39,0-.7-.11-.93-.34s-.34-.54-.34-.92v-.05c0-.39.11-.7.34-.92s.54-.34.93-.34.69.11.92.34c.23.23.35.54.35.92v.05c0,.38-.12.69-.35.92-.23.23-.54.34-.92.34ZM10.27,14.73l-.43-.34,4.46-5.48.42.34-4.45,5.48ZM10.74,11.03c.22,0,.4-.07.54-.22.13-.14.2-.33.2-.56v-.1c0-.23-.07-.42-.2-.56-.13-.14-.31-.21-.54-.21s-.41.07-.54.21c-.13.14-.2.33-.2.56v.1c0,.23.06.42.2.56.13.14.31.22.54.22ZM13.82,14.72c-.39,0-.7-.11-.93-.34-.23-.23-.35-.53-.35-.92v-.05c0-.39.12-.7.35-.92.23-.23.54-.34.93-.34s.69.11.92.34c.24.23.35.53.35.92v.05c0,.39-.12.7-.35.92-.23.23-.54.34-.92.34ZM13.82,14.26c.22,0,.4-.07.53-.22.13-.14.2-.33.2-.56v-.1c0-.23-.07-.42-.2-.56s-.31-.21-.53-.21-.41.07-.54.21-.2.33-.2.56v.1c0,.23.06.42.2.56.13.14.31.22.54.22Z"/>
      </g>
    </g>
  </g>
</svg>