<?xml version="1.0" encoding="UTF-8"?>
<svg id="Calque_2" data-name="Calque 2" xmlns="http://www.w3.org/2000/svg" viewBox="0 0 280.25 22.68">
  <defs>
    <style>
      .cls-1 {
        fill: #db3c27;
      }
    </style>
  </defs>
  <g id="Calque_1-2" data-name="Calque 1">
    <g>
      <path class="cls-1" d="M280.25,22.68H31.89V0h248.35v22.68ZM32.89,21.68h246.35V1H32.89v20.68Z"/>
      <g>
        <path class="cls-1" d="M2.08,14.91c-.63,0-1.14-.19-1.52-.56s-.56-.94-.56-1.69v-1.31c0-.75.19-1.31.56-1.69.38-.38.88-.57,1.52-.57s1.15.19,1.52.57c.38.38.56.94.56,1.69v1.31c0,.75-.19,1.32-.56,1.69s-.88.56-1.52.56ZM2.08,14.33c.48,0,.84-.14,1.08-.43.24-.29.36-.69.36-1.21v-1.38c0-.52-.12-.92-.37-1.2s-.6-.43-1.07-.43-.83.14-1.07.43c-.24.29-.36.69-.36,1.2v1.38c0,.52.12.93.36,1.21.24.29.6.43,1.07.43Z"/>
        <path class="cls-1" d="M7.21,14.91c-.63,0-1.14-.19-1.52-.56s-.56-.94-.56-1.69v-1.31c0-.75.19-1.31.56-1.69.38-.38.88-.57,1.52-.57s1.15.19,1.52.57c.38.38.56.94.56,1.69v1.31c0,.75-.19,1.32-.56,1.69s-.88.56-1.52.56ZM7.21,14.33c.48,0,.84-.14,1.08-.43.24-.29.36-.69.36-1.21v-1.38c0-.52-.12-.92-.37-1.2s-.6-.43-1.07-.43-.83.14-1.07.43c-.24.29-.36.69-.36,1.2v1.38c0,.52.12.93.36,1.21.24.29.6.43,1.07.43Z"/>
        <path class="cls-1" d="M11.33,11.67c-.39,0-.7-.11-.93-.34s-.34-.54-.34-.92v-.05c0-.39.11-.7.34-.92s.54-.34.93-.34.69.11.92.34c.23.23.35.54.35.92v.05c0,.38-.12.69-.35.92-.23.23-.54.34-.92.34ZM10.86,14.91l-.43-.34,4.46-5.48.42.34-4.45,5.48ZM11.33,11.21c.22,0,.4-.07.54-.22.13-.14.2-.33.2-.56v-.1c0-.23-.07-.42-.2-.56-.13-.14-.31-.21-.54-.21s-.41.07-.54.21c-.13.14-.2.33-.2.56v.1c0,.23.06.42.2.56.13.14.31.22.54.22ZM14.41,14.9c-.39,0-.7-.11-.93-.34-.23-.23-.35-.53-.35-.92v-.05c0-.39.12-.7.35-.92.23-.23.54-.34.93-.34s.69.11.92.34c.24.23.35.53.35.92v.05c0,.39-.12.7-.35.92-.23.23-.54.34-.92.34ZM14.41,14.44c.22,0,.4-.07.53-.22.13-.14.2-.33.2-.56v-.1c0-.23-.07-.42-.2-.56s-.31-.21-.53-.21-.41.07-.54.21-.2.33-.2.56v.1c0,.23.06.42.2.56.13.14.31.22.54.22Z"/>
      </g>
    </g>
  </g>
</svg>