<?xml version="1.0" encoding="UTF-8"?>
<svg id="Calque_2" data-name="Calque 2" xmlns="http://www.w3.org/2000/svg" viewBox="0 0 279.82 22.68">
  <defs>
    <style>
      .cls-1 {
        fill: #db3c27;
      }
    </style>
  </defs>
  <g id="Calque_1-2" data-name="Calque 1">
    <g>
      <path class="cls-1" d="M279.82,22.68H31.46V0h248.35v22.68ZM32.46,21.68h246.35V1H32.46v20.68Z"/>
      <rect class="cls-1" x="31.96" y=".5" width="123.68" height="21.68"/>
      <g>
        <path class="cls-1" d="M2.01,14.56c-.41,0-.77-.08-1.06-.24-.3-.16-.53-.38-.7-.66-.17-.28-.25-.6-.25-.97v-.1h.65v.07c0,.42.12.74.37.97s.57.34.98.34.76-.12,1-.36c.24-.24.36-.57.36-.98v-.07c0-.4-.12-.72-.35-.96-.23-.24-.53-.36-.9-.36-.21,0-.39.03-.53.1-.14.07-.25.15-.33.25-.08.1-.15.19-.2.28H.17v-3.03h3.68v.58H.82v1.94h.11c.06-.11.14-.21.24-.31.1-.1.24-.19.42-.26s.39-.1.66-.1c.33,0,.62.07.88.22.26.15.47.36.63.64s.24.61.24.99v.09c0,.38-.08.71-.24,1-.16.29-.39.51-.69.68-.3.16-.65.24-1.06.24Z"/>
        <path class="cls-1" d="M6.94,14.56c-.63,0-1.14-.19-1.52-.56-.38-.38-.56-.94-.56-1.69v-1.31c0-.75.19-1.31.56-1.69s.88-.57,1.52-.57,1.15.19,1.52.57.56.94.56,1.69v1.31c0,.75-.19,1.32-.56,1.69-.38.38-.88.56-1.52.56ZM6.94,13.97c.48,0,.84-.14,1.08-.43.24-.29.36-.69.36-1.21v-1.38c0-.52-.12-.92-.37-1.21s-.6-.43-1.07-.43-.83.14-1.07.43c-.24.29-.36.69-.36,1.2v1.38c0,.52.12.93.36,1.21.24.29.6.43,1.07.43Z"/>
        <path class="cls-1" d="M11.06,11.32c-.39,0-.7-.11-.93-.34-.23-.23-.34-.54-.34-.92v-.05c0-.39.11-.7.34-.92s.54-.34.93-.34.69.11.92.34c.23.23.35.54.35.92v.05c0,.38-.12.69-.35.92-.23.23-.54.34-.92.34ZM10.59,14.56l-.43-.34,4.46-5.48.42.34-4.45,5.48ZM11.06,10.85c.22,0,.4-.07.54-.22.13-.14.2-.33.2-.56v-.1c0-.23-.07-.42-.2-.56-.13-.14-.31-.21-.54-.21s-.41.07-.54.21c-.13.14-.2.33-.2.56v.1c0,.23.06.42.2.56s.31.22.54.22ZM14.14,14.55c-.39,0-.7-.11-.93-.34-.23-.23-.35-.54-.35-.92v-.05c0-.39.12-.7.35-.92.23-.23.54-.34.93-.34s.69.11.92.34c.24.23.35.54.35.92v.05c0,.39-.12.7-.35.92-.23.23-.54.34-.92.34ZM14.14,14.08c.22,0,.4-.07.53-.21s.2-.33.2-.56v-.1c0-.23-.07-.42-.2-.56-.13-.14-.31-.21-.53-.21s-.41.07-.54.21c-.13.14-.2.33-.2.56v.1c0,.23.06.42.2.56s.31.21.54.21Z"/>
      </g>
    </g>
  </g>
</svg>