<?xml version="1.0" encoding="UTF-8"?>
<svg id="Calque_2" data-name="Calque 2" xmlns="http://www.w3.org/2000/svg" viewBox="0 0 333.79 44.43">
  <defs>
    <style>
      .cls-1 {
        fill: #db3c27;
      }

      .cls-2 {
        fill: #f5f5f5;
      }
    </style>
  </defs>
  <g id="Calque_1-2" data-name="Calque 1">
    <g>
      <path class="cls-2" d="M333.79,44.43H0v-25.86h333.79v25.86ZM1,43.43h331.79v-23.86H1v23.86Z"/>
      <g>
        <path class="cls-2" d="M.91,10.71V.21h1.26v9.36h5.31v1.14H.91Z"/>
        <path class="cls-2" d="M15.61,10.92c-1.25,0-2.25-.36-2.99-1.09-.75-.72-1.12-1.78-1.12-3.17v-2.4c0-1.39.37-2.45,1.12-3.17.74-.72,1.74-1.09,2.99-1.09s2.26.36,3.01,1.09c.74.72,1.12,1.78,1.12,3.17v2.4c0,1.39-.37,2.45-1.12,3.17-.75.73-1.75,1.09-3.01,1.09ZM15.61,9.79c.91,0,1.62-.27,2.12-.82s.75-1.3.75-2.27v-2.49c0-.97-.25-1.73-.75-2.27s-1.21-.82-2.12-.82-1.6.27-2.1.82-.75,1.3-.75,2.27v2.49c0,.97.25,1.73.75,2.27s1.2.82,2.1.82Z"/>
        <path class="cls-2" d="M23.86,10.71L27.1.21h2.22l3.24,10.5h-1.31l-.81-2.66h-4.47l-.81,2.66h-1.3ZM26.29,6.92h3.83l-1.8-5.94h-.21l-1.82,5.94Z"/>
        <path class="cls-2" d="M36.64,10.71v-1.12h1.47V1.34h-1.47V.21h4.1c1.38,0,2.45.35,3.2,1.05.75.7,1.13,1.78,1.13,3.23v1.95c0,1.46-.38,2.54-1.13,3.23-.76.7-1.82,1.04-3.2,1.04h-4.1ZM39.37,9.57h1.37c1.02,0,1.79-.25,2.31-.75.52-.5.78-1.28.78-2.32v-2.05c0-1.07-.26-1.85-.78-2.34-.52-.49-1.29-.73-2.31-.73h-1.37v8.21Z"/>
        <path class="cls-2" d="M50.08,10.71V.21h1.26v10.5h-1.26Z"/>
        <path class="cls-2" d="M56.74,10.71V.21h2.45l3.66,9.71h.2V.21h1.24v10.5h-2.45l-3.64-9.72h-.21v9.72h-1.25Z"/>
        <path class="cls-2" d="M73.36,10.92c-.78,0-1.47-.16-2.06-.49-.6-.33-1.06-.8-1.4-1.43-.33-.63-.5-1.41-.5-2.34v-2.4c0-1.39.37-2.45,1.11-3.17s1.74-1.09,2.99-1.09,2.18.34,2.83,1.02c.65.68.97,1.59.97,2.73v.08h-1.24v-.11c0-.5-.09-.95-.27-1.34-.18-.39-.46-.7-.84-.92-.38-.22-.87-.34-1.46-.34-.89,0-1.59.27-2.09.82s-.75,1.31-.75,2.29v2.46c0,.98.25,1.74.75,2.29s1.2.82,2.1.82,1.53-.25,1.94-.75c.41-.5.62-1.16.62-1.99v-.26h-3.18v-1.08h4.41v5h-1.14v-1.14h-.21c-.11.22-.27.44-.46.64-.2.21-.47.38-.81.51-.34.13-.78.2-1.32.2Z"/>
        <path class="cls-2" d="M83.29,10.92c-.29,0-.53-.09-.73-.29-.19-.19-.29-.43-.29-.73s.1-.54.29-.73c.2-.19.44-.29.73-.29s.54.1.73.29.29.43.29.73-.1.54-.29.73c-.19.19-.43.29-.73.29Z"/>
        <path class="cls-2" d="M90.08,10.92c-.29,0-.53-.09-.73-.29-.19-.19-.29-.43-.29-.73s.1-.54.29-.73c.2-.19.44-.29.73-.29s.54.1.73.29.29.43.29.73-.1.54-.29.73c-.19.19-.43.29-.73.29Z"/>
        <path class="cls-2" d="M96.88,10.92c-.29,0-.53-.09-.73-.29-.19-.19-.29-.43-.29-.73s.1-.54.29-.73c.2-.19.44-.29.73-.29s.54.1.73.29.29.43.29.73-.1.54-.29.73c-.19.19-.43.29-.73.29Z"/>
      </g>
      <rect class="cls-1" x="4" y="22.56" width="17.86" height="17.86"/>
      <rect class="cls-1" x="24.83" y="22.56" width="17.86" height="17.86"/>
      <rect class="cls-1" x="45.66" y="22.56" width="17.86" height="17.86"/>
      <rect class="cls-1" x="66.49" y="22.56" width="17.86" height="17.86"/>
      <rect class="cls-1" x="87.32" y="22.56" width="17.86" height="17.86"/>
      <rect class="cls-1" x="108.15" y="22.56" width="17.86" height="17.86"/>
      <rect class="cls-1" x="128.98" y="22.56" width="17.86" height="17.86"/>
      <rect class="cls-1" x="149.81" y="22.56" width="17.86" height="17.86"/>
      <rect class="cls-1" x="170.64" y="22.56" width="17.86" height="17.86"/>
      <rect class="cls-1" x="191.47" y="22.56" width="17.86" height="17.86"/>
      <rect class="cls-1" x="212.3" y="22.56" width="17.86" height="17.86"/>
      <rect class="cls-1" x="233.13" y="22.56" width="17.86" height="17.86"/>
      <rect class="cls-1" x="253.96" y="22.56" width="17.86" height="17.86"/>
    </g>
  </g>
</svg>