<?xml version="1.0" encoding="UTF-8"?>
<svg id="Calque_2" data-name="Calque 2" xmlns="http://www.w3.org/2000/svg" viewBox="0 0 285.6 22.68">
  <defs>
    <style>
      .cls-1 {
        fill: #db3c27;
      }
    </style>
  </defs>
  <g id="Calque_1-2" data-name="Calque 1">
    <g>
      <g>
        <rect class="cls-1" x="37.75" y=".5" width="247.35" height="21.68"/>
        <path class="cls-1" d="M285.6,22.68H37.25V0h248.35v22.68ZM38.25,21.68h246.35V1H38.25v20.68Z"/>
      </g>
      <g>
        <path class="cls-1" d="M1.91,14.09v-5.17h-.12l-1.09,1.99h-.7l1.34-2.42h1.22v5.6h-.65Z"/>
        <path class="cls-1" d="M5.76,14.2c-.63,0-1.14-.19-1.52-.56s-.56-.94-.56-1.69v-1.31c0-.75.19-1.31.56-1.69.38-.38.88-.57,1.52-.57s1.15.19,1.52.57c.38.38.56.94.56,1.69v1.31c0,.75-.19,1.32-.56,1.69s-.88.56-1.52.56ZM5.76,13.62c.48,0,.84-.14,1.08-.43.24-.29.36-.69.36-1.21v-1.38c0-.52-.12-.92-.37-1.2s-.6-.43-1.07-.43-.83.14-1.07.43c-.24.29-.36.69-.36,1.2v1.38c0,.52.12.93.36,1.21.24.29.6.43,1.07.43Z"/>
        <path class="cls-1" d="M10.89,14.2c-.63,0-1.14-.19-1.52-.56s-.56-.94-.56-1.69v-1.31c0-.75.19-1.31.56-1.69.38-.38.88-.57,1.52-.57s1.15.19,1.52.57c.38.38.56.94.56,1.69v1.31c0,.75-.19,1.32-.56,1.69s-.88.56-1.52.56ZM10.89,13.62c.48,0,.84-.14,1.08-.43.24-.29.36-.69.36-1.21v-1.38c0-.52-.12-.92-.37-1.2s-.6-.43-1.07-.43-.83.14-1.07.43c-.24.29-.36.69-.36,1.2v1.38c0,.52.12.93.36,1.21.24.29.6.43,1.07.43Z"/>
        <path class="cls-1" d="M15.01,10.96c-.39,0-.7-.11-.93-.34s-.34-.54-.34-.92v-.05c0-.39.11-.7.34-.92s.54-.34.93-.34.69.11.92.34c.23.23.35.54.35.92v.05c0,.38-.12.69-.35.92-.23.23-.54.34-.92.34ZM14.54,14.2l-.43-.34,4.46-5.48.42.34-4.45,5.48ZM15.01,10.5c.22,0,.4-.07.54-.22.13-.14.2-.33.2-.56v-.1c0-.23-.07-.42-.2-.56-.13-.14-.31-.21-.54-.21s-.41.07-.54.21c-.13.14-.2.33-.2.56v.1c0,.23.06.42.2.56.13.14.31.22.54.22ZM18.09,14.19c-.39,0-.7-.11-.93-.34-.23-.23-.35-.53-.35-.92v-.05c0-.39.12-.7.35-.92.23-.23.54-.34.93-.34s.69.11.92.34c.24.23.35.53.35.92v.05c0,.39-.12.7-.35.92-.23.23-.54.34-.92.34ZM18.09,13.73c.22,0,.4-.07.53-.22.13-.14.2-.33.2-.56v-.1c0-.23-.07-.42-.2-.56s-.31-.21-.53-.21-.41.07-.54.21-.2.33-.2.56v.1c0,.23.06.42.2.56.13.14.31.22.54.22Z"/>
      </g>
    </g>
  </g>
</svg>