<?xml version="1.0" encoding="UTF-8"?>
<svg id="Calque_2" data-name="Calque 2" xmlns="http://www.w3.org/2000/svg" viewBox="0 0 60.85 22.6">
  <defs>
    <style>
      .cls-1 {
        fill: #db3c27;
      }

      .cls-2 {
        fill: #f5f5f5;
      }
    </style>
  </defs>
  <g id="Calque_1-2" data-name="Calque 1">
    <g>
      <path class="cls-1" d="M1.72,5.6V.78H0v-.78h4.3v.78h-1.72v4.82h-.86Z"/>
      <path class="cls-1" d="M5.69,5.6V0h.86v5.6h-.86Z"/>
      <path class="cls-1" d="M8.32,5.6V0h1.62l1.22,5.02h.13l1.22-5.02h1.62v5.6h-.84V.61h-.13l-1.22,4.99h-1.46l-1.22-4.99h-.13v4.99h-.84Z"/>
      <path class="cls-1" d="M15.91,5.6V0h3.53v.78h-2.66v1.61h2.44v.78h-2.44v1.64h2.7v.78h-3.57Z"/>
      <path class="cls-1" d="M24.14,2.86c-.19,0-.34-.06-.47-.18-.12-.12-.19-.28-.19-.47s.06-.35.19-.47c.13-.12.28-.18.47-.18s.34.06.47.18c.12.12.19.28.19.46s-.06.35-.19.47c-.13.12-.28.18-.47.18ZM24.14,5.71c-.19,0-.34-.06-.47-.18-.12-.12-.19-.28-.19-.47s.06-.35.19-.47c.13-.12.28-.18.47-.18s.34.06.47.18c.12.12.19.28.19.46s-.06.35-.19.47c-.13.12-.28.18-.47.18Z"/>
      <path class="cls-2" d="M.54,22.4v-1.02c0-.7.12-1.26.37-1.68.25-.42.59-.76,1.04-1.01.44-.26.97-.48,1.59-.67l.77-.24c.42-.13.79-.29,1.11-.48s.56-.43.74-.73c.18-.29.27-.66.27-1.08v-.06c0-.62-.21-1.1-.64-1.46-.43-.36-.98-.54-1.65-.54-.71,0-1.29.19-1.74.57s-.67.95-.67,1.71v.2H.6v-.18c0-.71.15-1.31.46-1.81.31-.49.73-.87,1.26-1.13.53-.26,1.13-.38,1.81-.38s1.27.13,1.79.38c.52.25.92.6,1.21,1.05.29.45.43.97.43,1.57v.13c0,.63-.13,1.16-.38,1.58s-.6.75-1.04,1.01c-.44.26-.96.49-1.56.67l-.76.24c-.48.15-.87.31-1.18.47-.31.16-.55.37-.71.62-.16.25-.24.59-.24,1.02v.24h5.78v1.02H.54Z"/>
      <path class="cls-2" d="M13.48,22.6c-.69,0-1.31-.13-1.86-.39-.55-.26-.98-.64-1.29-1.13-.31-.49-.47-1.09-.47-1.79v-.27h1.13v.25c0,.72.23,1.28.69,1.69.46.41,1.05.62,1.79.62s1.33-.19,1.74-.58c.42-.39.62-.88.62-1.46v-.11c0-.43-.1-.78-.31-1.04-.21-.27-.48-.46-.83-.59-.35-.13-.73-.19-1.16-.19h-1.6v-1.41l3.74-2.39v-.17h-5.59v-1.02h6.79v1.58l-3.65,2.35v.17h.7c.55,0,1.06.1,1.52.3.46.2.83.5,1.11.9s.41.89.41,1.49v.15c0,.62-.14,1.15-.43,1.61-.29.46-.7.81-1.22,1.06s-1.14.38-1.85.38Z"/>
      <path class="cls-2" d="M20.5,17.26c-.27,0-.5-.09-.68-.27-.18-.18-.27-.41-.27-.69s.09-.51.27-.69c.18-.18.41-.27.68-.27s.51.09.69.27c.18.18.27.41.27.69s-.09.51-.27.69-.41.27-.69.27ZM20.5,22.6c-.27,0-.5-.09-.68-.27-.18-.18-.27-.41-.27-.69s.09-.51.27-.69c.18-.18.41-.27.68-.27s.51.09.69.27c.18.18.27.41.27.69s-.09.51-.27.69-.41.27-.69.27Z"/>
      <path class="cls-2" d="M28.89,22.4v-2h-5.11v-1.34l4.12-6.45h2.13v6.78h1.68v1.02h-1.68v2h-1.13ZM24.92,19.38h3.98v-6.09h-.2l-3.78,5.92v.17Z"/>
      <path class="cls-2" d="M34.81,22.4v-.35c0-.33.03-.6.08-.83.06-.22.16-.49.32-.8l3.74-6.65v-.15h-5.82v-1.02h7.01v1.34l-3.91,7c-.11.2-.19.37-.23.53-.04.16-.06.36-.06.6v.32h-1.13Z"/>
      <path class="cls-2" d="M43.4,17.26c-.27,0-.5-.09-.68-.27-.18-.18-.27-.41-.27-.69s.09-.51.27-.69c.18-.18.41-.27.68-.27s.51.09.69.27c.18.18.27.41.27.69s-.09.51-.27.69-.41.27-.69.27ZM43.4,22.6c-.27,0-.5-.09-.68-.27-.18-.18-.27-.41-.27-.69s.09-.51.27-.69c.18-.18.41-.27.68-.27s.51.09.69.27c.18.18.27.41.27.69s-.09.51-.27.69-.41.27-.69.27Z"/>
      <path class="cls-2" d="M49.82,22.4v-9.04h-.21l-1.9,3.49h-1.23l2.34-4.24h2.14v9.8h-1.13Z"/>
      <path class="cls-2" d="M57.31,22.6c-.72,0-1.33-.13-1.84-.39-.51-.26-.89-.61-1.15-1.06-.26-.45-.39-.96-.39-1.53h1.13c0,.58.19,1.05.57,1.41s.94.54,1.68.54c.78,0,1.37-.21,1.79-.62.42-.42.62-.99.62-1.71v-1.36h-.18c-.18.28-.46.54-.85.78-.39.24-.93.36-1.63.36-.59,0-1.13-.13-1.62-.39-.49-.26-.88-.63-1.17-1.11-.29-.48-.43-1.04-.43-1.69v-.17c0-.67.15-1.25.46-1.73.31-.48.73-.85,1.25-1.12.53-.27,1.13-.4,1.8-.4s1.29.13,1.81.4c.53.27.94.64,1.24,1.13.3.49.45,1.08.45,1.77v3.42c0,.73-.14,1.35-.43,1.87-.28.52-.69.92-1.22,1.19s-1.16.41-1.89.41ZM57.35,18.06c.47,0,.88-.1,1.23-.29s.63-.46.83-.8c.2-.34.3-.74.3-1.2v-.11c0-.7-.22-1.25-.65-1.64-.43-.4-1.01-.59-1.72-.59s-1.28.2-1.72.59-.66.95-.66,1.64v.11c0,.46.1.86.3,1.2.2.34.48.61.84.8s.77.29,1.24.29Z"/>
    </g>
  </g>
</svg>