<?xml version="1.0" encoding="UTF-8"?>
<svg id="Calque_2" data-name="Calque 2" xmlns="http://www.w3.org/2000/svg" viewBox="0 0 45.52 22.71">
  <defs>
    <style>
      .cls-1 {
        fill: #db3c27;
      }

      .cls-2 {
        fill: #f5f5f5;
      }
    </style>
  </defs>
  <g id="Calque_1-2" data-name="Calque 1">
    <g>
      <path class="cls-1" d="M2.14,5.82c-.44,0-.82-.08-1.14-.24s-.56-.39-.74-.69c-.17-.3-.26-.67-.26-1.1V.11h.87v3.7c0,.4.11.7.33.91.22.21.53.32.94.32s.72-.11.94-.32c.22-.21.33-.52.33-.91V.11h.86v3.68c0,.43-.08.8-.26,1.1-.17.3-.42.53-.74.69-.32.16-.7.24-1.14.24Z"/>
      <path class="cls-1" d="M7.9,5.82c-.42,0-.79-.08-1.12-.22s-.58-.37-.76-.66c-.18-.29-.28-.64-.28-1.06v-.2h.86v.2c0,.39.12.69.36.89s.55.3.95.3.7-.08.9-.25c.2-.17.3-.38.3-.65,0-.18-.05-.32-.14-.43-.1-.11-.23-.2-.41-.27-.18-.07-.39-.13-.63-.19l-.3-.07c-.36-.09-.67-.19-.93-.32-.26-.12-.47-.29-.61-.5-.14-.21-.22-.47-.22-.8s.08-.61.24-.85c.16-.24.39-.42.68-.54.29-.13.63-.19,1.02-.19s.74.07,1.04.2c.31.13.55.33.72.59s.26.59.26.98v.29h-.86v-.29c0-.24-.05-.44-.15-.58-.1-.15-.24-.26-.41-.33s-.38-.1-.62-.1c-.34,0-.61.07-.8.21-.19.14-.28.34-.28.59,0,.17.04.31.12.42.08.11.2.2.36.27s.36.13.6.18l.3.07c.36.08.68.18.96.31.28.13.5.29.66.51.16.21.24.49.24.82s-.08.63-.25.88c-.17.25-.41.45-.72.59-.31.14-.67.21-1.1.21Z"/>
      <path class="cls-1" d="M11.46,5.71V.11h3.53v.78h-2.66v1.61h2.44v.78h-2.44v1.64h2.7v.78h-3.57Z"/>
      <path class="cls-1" d="M16.54,5.71V.11h2.35c.35,0,.65.06.92.18.26.12.47.29.62.52.15.22.22.49.22.8v.09c0,.35-.08.63-.25.84s-.37.36-.61.44v.13c.2.01.37.08.49.2.12.13.18.31.18.54v1.86h-.87v-1.74c0-.14-.04-.26-.11-.34-.07-.08-.19-.13-.36-.13h-1.7v2.21h-.86ZM17.4,2.72h1.39c.31,0,.55-.08.72-.24.17-.16.26-.37.26-.64v-.06c0-.27-.08-.49-.25-.64s-.41-.24-.72-.24h-1.39v1.82Z"/>
      <path class="cls-1" d="M25.35,2.97c-.19,0-.34-.06-.47-.18-.12-.12-.19-.28-.19-.47s.06-.35.19-.47c.13-.12.28-.18.47-.18s.34.06.47.18c.12.12.19.28.19.46s-.06.35-.19.47c-.13.12-.28.18-.47.18ZM25.35,5.82c-.19,0-.34-.06-.47-.18-.12-.12-.19-.28-.19-.47s.06-.35.19-.47c.13-.12.28-.18.47-.18s.34.06.47.18c.12.12.19.28.19.46s-.06.35-.19.47c-.13.12-.28.18-.47.18Z"/>
      <path class="cls-2" d="M.11,22.51v-1.05h1.37v-7.7H.11v-1.05h3.82c1.29,0,2.28.33,2.99.98.71.65,1.06,1.66,1.06,3.01v1.82c0,1.36-.35,2.37-1.06,3.02-.7.65-1.7.97-2.99.97H.11ZM2.66,21.45h1.27c.95,0,1.67-.23,2.16-.7s.73-1.19.73-2.17v-1.92c0-1-.24-1.73-.73-2.18-.49-.46-1.2-.69-2.16-.69h-1.27v7.66Z"/>
      <path class="cls-2" d="M13.47,22.71c-.96,0-1.72-.27-2.27-.81-.56-.54-.83-1.32-.83-2.32v-.76h1.16v.76c0,.61.16,1.1.48,1.48.32.38.81.57,1.45.57s1.12-.19,1.39-.57.41-.88.41-1.49v-5.8h-1.72v-1.06h3.96v1.06h-1.06v5.8c0,1.02-.25,1.79-.76,2.33-.5.54-1.24.81-2.2.81Z"/>
      <path class="cls-2" d="M20.27,22.51v-9.8h6.03v1.06h-4.86v3.28h4.47v1.06h-4.47v3.33h4.93v1.06h-6.1Z"/>
      <path class="cls-2" d="M28.79,22.51v-1.55l5.46-7.03v-.17h-5.29v-1.05h6.45v1.55l-5.46,7.03v.17h5.57v1.05h-6.73Z"/>
      <path class="cls-2" d="M41.67,22.71c-1.17,0-2.1-.34-2.79-1.02-.7-.68-1.04-1.66-1.04-2.96v-2.24c0-1.3.35-2.28,1.04-2.96.7-.68,1.63-1.01,2.79-1.01s2.11.34,2.81,1.01c.69.68,1.04,1.66,1.04,2.96v2.24c0,1.3-.35,2.29-1.04,2.96-.7.68-1.63,1.02-2.81,1.02ZM41.67,21.66c.85,0,1.51-.25,1.97-.76.47-.51.7-1.22.7-2.12v-2.32c0-.91-.23-1.61-.7-2.12-.47-.51-1.12-.76-1.97-.76s-1.49.25-1.96.76-.7,1.22-.7,2.12v2.32c0,.91.23,1.61.7,2.12s1.12.76,1.96.76Z"/>
    </g>
  </g>
</svg>