<?xml version="1.0" encoding="UTF-8"?>
<svg id="Calque_2" data-name="Calque 2" xmlns="http://www.w3.org/2000/svg" viewBox="0 0 22.59 22.6">
  <defs>
    <style>
      .cls-1 {
        fill: #db3c27;
      }

      .cls-2 {
        fill: #f5f5f5;
      }
    </style>
  </defs>
  <g id="Calque_1-2" data-name="Calque 1">
    <g>
      <path class="cls-1" d="M0,5.6V0h2.35c.35,0,.65.06.92.18.26.12.47.29.62.52.15.22.22.49.22.8v.09c0,.35-.08.63-.25.84s-.37.36-.61.44v.13c.2.01.37.08.49.2.12.13.18.31.18.54v1.86h-.87v-1.74c0-.14-.04-.26-.11-.34-.07-.08-.19-.13-.36-.13H.86v2.21h-.86ZM.86,2.61h1.39c.31,0,.55-.08.72-.24.17-.16.26-.37.26-.64v-.06c0-.27-.08-.49-.25-.64s-.41-.24-.72-.24H.86v1.82Z"/>
      <path class="cls-1" d="M5.24,5.6L6.84,0h1.52l1.59,5.6h-.89l-.37-1.32h-2.19l-.37,1.32h-.9ZM6.72,3.48h1.76l-.82-2.94h-.13l-.82,2.94Z"/>
      <path class="cls-1" d="M11.64,5.6l-.82-5.6h.86l.67,5.02h.13l.86-5.02h1.51l.86,5.02h.13l.66-5.02h.86l-.82,5.6h-1.51l-.88-5.09h-.13l-.87,5.09h-1.52Z"/>
      <path class="cls-1" d="M21.94,2.86c-.19,0-.34-.06-.47-.18-.12-.12-.19-.28-.19-.47s.06-.35.19-.47c.13-.12.28-.18.47-.18s.34.06.47.18c.12.12.19.28.19.46s-.06.35-.19.47c-.13.12-.28.18-.47.18ZM21.94,5.71c-.19,0-.34-.06-.47-.18-.12-.12-.19-.28-.19-.47s.06-.35.19-.47c.13-.12.28-.18.47-.18s.34.06.47.18c.12.12.19.28.19.46s-.06.35-.19.47c-.13.12-.28.18-.47.18Z"/>
      <path class="cls-2" d="M3.8,22.6c-.71,0-1.34-.13-1.9-.38-.56-.25-1-.63-1.32-1.14-.32-.51-.48-1.15-.48-1.91v-.29h1.16v.29c0,.81.24,1.42.71,1.81.48.4,1.09.59,1.83.59s1.35-.17,1.75-.52c.4-.35.6-.78.6-1.3,0-.36-.09-.65-.27-.87s-.44-.39-.76-.53c-.33-.13-.71-.25-1.15-.36l-.73-.18c-.57-.15-1.07-.33-1.51-.55-.44-.21-.78-.5-1.03-.85-.25-.35-.37-.8-.37-1.35s.14-1.03.41-1.43.66-.71,1.16-.92c.5-.21,1.08-.32,1.73-.32s1.26.11,1.79.34c.53.23.94.57,1.25,1.01.3.44.46,1,.46,1.67v.59h-1.16v-.59c0-.48-.1-.86-.3-1.15-.2-.29-.48-.5-.83-.64-.35-.14-.75-.21-1.2-.21-.64,0-1.16.14-1.55.43-.39.29-.59.69-.59,1.21,0,.35.08.62.25.84s.41.39.71.53c.31.13.68.25,1.11.36l.73.18c.57.12,1.08.29,1.53.5.45.21.81.49,1.08.85.27.36.41.83.41,1.41s-.15,1.08-.43,1.51c-.29.43-.7.76-1.22,1s-1.15.36-1.86.36Z"/>
      <path class="cls-2" d="M9.65,22.4v-1.05h1.37v-7.7h-1.37v-1.05h3.82c1.29,0,2.28.33,2.99.98.71.65,1.06,1.66,1.06,3.01v1.82c0,1.36-.35,2.37-1.06,3.02-.7.65-1.7.97-2.99.97h-3.82ZM12.2,21.33h1.27c.95,0,1.67-.23,2.16-.7s.73-1.19.73-2.17v-1.92c0-1-.24-1.73-.73-2.18-.49-.46-1.2-.69-2.16-.69h-1.27v7.66Z"/>
    </g>
  </g>
</svg>