<?xml version="1.0" encoding="UTF-8"?>
<svg id="Calque_2" data-name="Calque 2" xmlns="http://www.w3.org/2000/svg" viewBox="0 0 100.31 24.11">
  <defs>
    <style>
      .cls-1 {
        fill: #db3c27;
      }

      .cls-2 {
        fill: #f5f5f5;
      }
    </style>
  </defs>
  <g id="Calque_1-2" data-name="Calque 1">
    <g>
      <path class="cls-1" d="M0,5.6V0h.86v5.6h-.86Z"/>
      <path class="cls-1" d="M2.42,5.6v-.77h.75V.77h-.75v-.77h2.24c.75,0,1.32.19,1.72.57.4.38.6.95.6,1.71v1.05c0,.76-.2,1.33-.6,1.71s-.97.56-1.72.56h-2.24ZM4.05,4.82h.62c.49,0,.85-.12,1.08-.37.23-.25.35-.61.35-1.1v-1.1c0-.49-.12-.86-.35-1.1s-.59-.36-1.08-.36h-.62v4.02Z"/>
      <path class="cls-1" d="M11.71,2.86c-.19,0-.34-.06-.47-.18-.12-.12-.19-.28-.19-.47s.06-.35.19-.47c.13-.12.28-.18.47-.18s.34.06.47.18c.12.12.19.28.19.46s-.06.35-.19.47c-.13.12-.28.18-.47.18ZM11.71,5.71c-.19,0-.34-.06-.47-.18-.12-.12-.19-.28-.19-.47s.06-.35.19-.47c.13-.12.28-.18.47-.18s.34.06.47.18c.12.12.19.28.19.46s-.06.35-.19.47c-.13.12-.28.18-.47.18Z"/>
      <path class="cls-2" d="M3.9,22.6c-1.11,0-2-.33-2.65-.99s-.99-1.64-.99-2.96v-2.3c0-1.31.33-2.29.99-2.95s1.54-.99,2.65-.99,2.01.33,2.67.99c.66.66.99,1.65.99,2.95v2.3c0,1.32-.33,2.3-.99,2.96-.66.66-1.55.99-2.67.99ZM3.9,21.57c.84,0,1.47-.25,1.89-.76s.63-1.21.63-2.11v-2.42c0-.91-.21-1.61-.64-2.11-.43-.5-1.06-.75-1.88-.75s-1.45.25-1.87.76c-.42.5-.64,1.2-.64,2.1v2.42c0,.92.21,1.62.63,2.12.42.5,1.05.75,1.88.75Z"/>
      <path class="cls-2" d="M13.92,22.6c-1.11,0-2-.33-2.65-.99s-.99-1.64-.99-2.96v-2.3c0-1.31.33-2.29.99-2.95s1.54-.99,2.65-.99,2.01.33,2.67.99c.66.66.99,1.65.99,2.95v2.3c0,1.32-.33,2.3-.99,2.96-.66.66-1.55.99-2.67.99ZM13.92,21.57c.84,0,1.47-.25,1.89-.76s.63-1.21.63-2.11v-2.42c0-.91-.21-1.61-.64-2.11-.43-.5-1.06-.75-1.88-.75s-1.45.25-1.87.76c-.42.5-.64,1.2-.64,2.1v2.42c0,.92.21,1.62.63,2.12.42.5,1.05.75,1.88.75Z"/>
      <path class="cls-2" d="M20.54,24.11v-1.02h6.52v1.02h-6.52Z"/>
      <path class="cls-2" d="M32.79,22.4v-9.04h-.21l-1.9,3.49h-1.23l2.34-4.24h2.14v9.8h-1.13Z"/>
      <path class="cls-2" d="M40.44,22.6c-.67,0-1.27-.13-1.8-.4-.53-.27-.94-.65-1.25-1.14-.3-.5-.46-1.08-.46-1.76v-3.42c0-.74.14-1.36.43-1.88.29-.51.7-.91,1.22-1.18s1.16-.41,1.88-.41,1.33.13,1.84.38c.51.26.9.61,1.16,1.05.27.44.4.95.4,1.53h-1.15c0-.58-.19-1.05-.56-1.41-.37-.36-.94-.54-1.69-.54s-1.36.21-1.78.62c-.42.42-.63.99-.63,1.71v1.36h.2c.17-.28.45-.54.84-.78.39-.24.94-.36,1.64-.36.59,0,1.12.13,1.61.39.49.26.87.63,1.16,1.11s.43,1.04.43,1.69v.17c0,.66-.15,1.24-.45,1.72-.3.49-.72.86-1.25,1.13-.53.27-1.13.4-1.81.4ZM40.44,21.57c.71,0,1.28-.2,1.72-.6.44-.4.66-.95.66-1.64v-.11c0-.47-.1-.87-.3-1.2-.2-.34-.48-.6-.83-.79s-.77-.29-1.25-.29-.88.1-1.23.29c-.36.19-.63.46-.83.79-.2.34-.3.74-.3,1.2v.11c0,.69.22,1.24.66,1.64s1.01.6,1.71.6Z"/>
      <path class="cls-2" d="M50.19,22.6c-1.11,0-2-.33-2.65-.99s-.99-1.64-.99-2.96v-2.3c0-1.31.33-2.29.99-2.95s1.54-.99,2.65-.99,2.01.33,2.67.99c.66.66.99,1.65.99,2.95v2.3c0,1.32-.33,2.3-.99,2.96-.66.66-1.55.99-2.67.99ZM50.19,21.57c.84,0,1.47-.25,1.89-.76s.63-1.21.63-2.11v-2.42c0-.91-.21-1.61-.64-2.11-.43-.5-1.06-.75-1.88-.75s-1.45.25-1.87.76c-.42.5-.64,1.2-.64,2.1v2.42c0,.92.21,1.62.63,2.12.42.5,1.05.75,1.88.75Z"/>
      <path class="cls-2" d="M61.29,22.4v-2h-5.11v-1.34l4.12-6.45h2.13v6.78h1.68v1.02h-1.68v2h-1.13ZM57.32,19.38h3.98v-6.09h-.2l-3.78,5.92v.17Z"/>
      <path class="cls-2" d="M66.62,24.11v-1.02h6.52v1.02h-6.52Z"/>
      <path class="cls-2" d="M79.45,22.6c-.72,0-1.33-.13-1.84-.39-.51-.26-.89-.61-1.15-1.06-.26-.45-.39-.96-.39-1.53h1.13c0,.58.19,1.05.57,1.41s.94.54,1.68.54c.78,0,1.37-.21,1.79-.62.42-.42.62-.99.62-1.71v-1.36h-.18c-.18.28-.46.54-.85.78-.39.24-.93.36-1.63.36-.59,0-1.13-.13-1.62-.39-.49-.26-.88-.63-1.17-1.11-.29-.48-.43-1.04-.43-1.69v-.17c0-.67.15-1.25.46-1.73.31-.48.73-.85,1.25-1.12.53-.27,1.13-.4,1.8-.4s1.29.13,1.81.4c.53.27.94.64,1.24,1.13.3.49.45,1.08.45,1.77v3.42c0,.73-.14,1.35-.43,1.87-.28.52-.69.92-1.22,1.19s-1.16.41-1.89.41ZM79.5,18.06c.47,0,.88-.1,1.23-.29s.63-.46.83-.8c.2-.34.3-.74.3-1.2v-.11c0-.7-.22-1.25-.65-1.64-.43-.4-1.01-.59-1.72-.59s-1.28.2-1.72.59-.66.95-.66,1.64v.11c0,.46.1.86.3,1.2.2.34.48.61.84.8s.77.29,1.24.29Z"/>
      <path class="cls-2" d="M88.48,22.4v-9.04h-.21l-1.9,3.49h-1.23l2.34-4.24h2.14v9.8h-1.13Z"/>
      <path class="cls-2" d="M92.45,22.4v-1.05h1.37v-7.7h-1.37v-1.05h3.82c1.29,0,2.28.33,2.99.98.71.65,1.06,1.66,1.06,3.01v1.82c0,1.36-.35,2.37-1.06,3.02-.7.65-1.7.97-2.99.97h-3.82ZM94.99,21.33h1.27c.95,0,1.67-.23,2.16-.7s.73-1.19.73-2.17v-1.92c0-1-.24-1.73-.73-2.18-.49-.46-1.2-.69-2.16-.69h-1.27v7.66Z"/>
    </g>
  </g>
</svg>