<?xml version="1.0" encoding="UTF-8"?>
<svg id="Calque_2" data-name="Calque 2" xmlns="http://www.w3.org/2000/svg" viewBox="0 0 125.35 25.86">
  <defs>
    <style>
      .cls-1 {
        fill: #0b0b0b;
      }
    </style>
  </defs>
  <g id="Calque_1-2" data-name="Calque 1">
    <g>
      <g>
        <path d="M33.5,18.46c-1.28,0-2.29-.36-3.04-1.09-.75-.72-1.12-1.77-1.12-3.14v-2.46c0-1.37.38-2.42,1.12-3.14.75-.73,1.76-1.09,3.04-1.09s2.23.35,2.92,1.05c.69.7,1.03,1.66,1.03,2.87v.09h-1.61v-.13c0-.71-.19-1.29-.58-1.74-.39-.45-.97-.67-1.76-.67s-1.42.24-1.88.73-.67,1.16-.67,2.02v2.52c0,.85.22,1.52.67,2.01.45.49,1.08.74,1.88.74s1.38-.23,1.76-.68c.38-.46.58-1.03.58-1.73v-.25h1.61v.21c0,1.21-.34,2.17-1.03,2.87-.68.7-1.66,1.05-2.92,1.05Z"/>
        <path d="M39.48,18.25l3-10.5h2.85l2.99,10.5h-1.67l-.69-2.47h-4.11l-.69,2.47h-1.68ZM42.25,14.28h3.3l-1.53-5.52h-.24l-1.53,5.52Z"/>
        <path d="M54.62,18.46c-.83,0-1.54-.15-2.14-.45-.6-.3-1.06-.73-1.38-1.3-.33-.57-.49-1.25-.49-2.06v-6.9h1.64v6.95c0,.74.2,1.31.61,1.71.41.4,1,.6,1.76.6s1.34-.2,1.75-.6c.41-.4.61-.97.61-1.71v-6.95h1.62v6.9c0,.81-.16,1.5-.48,2.06-.32.56-.78,1-1.38,1.3-.6.3-1.31.45-2.13.45Z"/>
        <path d="M64.35,18.25v-9.03h-3.22v-1.47h8.07v1.47h-3.23v9.03h-1.62Z"/>
        <path d="M71.79,18.25V7.75h1.62v10.5h-1.62Z"/>
        <path d="M80.67,18.46c-1.29,0-2.32-.36-3.08-1.09-.76-.72-1.14-1.77-1.14-3.14v-2.46c0-1.37.38-2.42,1.14-3.14.76-.73,1.79-1.09,3.08-1.09s2.32.36,3.08,1.09c.77.72,1.15,1.77,1.15,3.14v2.46c0,1.37-.38,2.42-1.15,3.14-.76.73-1.79,1.09-3.08,1.09ZM80.67,17c.83,0,1.47-.24,1.92-.73.45-.48.67-1.15.67-1.99v-2.58c0-.84-.22-1.5-.67-1.99s-1.09-.73-1.92-.73-1.45.24-1.91.73-.69,1.15-.69,1.99v2.58c0,.84.23,1.5.69,1.99.46.49,1.1.73,1.91.73Z"/>
        <path d="M87.94,18.25V7.75h3.12l2.85,9.42h.24V7.75h1.61v10.5h-3.12l-2.85-9.43h-.24v9.43h-1.61Z"/>
      </g>
      <g>
        <path class="cls-1" d="M33.5,18.46c-1.28,0-2.29-.36-3.04-1.09-.75-.72-1.12-1.77-1.12-3.14v-2.46c0-1.37.38-2.42,1.12-3.14.75-.73,1.76-1.09,3.04-1.09s2.23.35,2.92,1.05c.69.7,1.03,1.66,1.03,2.87v.09h-1.61v-.13c0-.71-.19-1.29-.58-1.74-.39-.45-.97-.67-1.76-.67s-1.42.24-1.88.73-.67,1.16-.67,2.02v2.52c0,.85.22,1.52.67,2.01.45.49,1.08.74,1.88.74s1.38-.23,1.76-.68c.38-.46.58-1.03.58-1.73v-.25h1.61v.21c0,1.21-.34,2.17-1.03,2.87-.68.7-1.66,1.05-2.92,1.05Z"/>
        <path class="cls-1" d="M39.48,18.25l3-10.5h2.85l2.99,10.5h-1.67l-.69-2.47h-4.11l-.69,2.47h-1.68ZM42.25,14.28h3.3l-1.53-5.52h-.24l-1.53,5.52Z"/>
        <path class="cls-1" d="M54.62,18.46c-.83,0-1.54-.15-2.14-.45-.6-.3-1.06-.73-1.38-1.3-.33-.57-.49-1.25-.49-2.06v-6.9h1.64v6.95c0,.74.2,1.31.61,1.71.41.4,1,.6,1.76.6s1.34-.2,1.75-.6c.41-.4.61-.97.61-1.71v-6.95h1.62v6.9c0,.81-.16,1.5-.48,2.06-.32.56-.78,1-1.38,1.3-.6.3-1.31.45-2.13.45Z"/>
        <path class="cls-1" d="M64.35,18.25v-9.03h-3.22v-1.47h8.07v1.47h-3.23v9.03h-1.62Z"/>
        <path class="cls-1" d="M71.79,18.25V7.75h1.62v10.5h-1.62Z"/>
        <path class="cls-1" d="M80.67,18.46c-1.29,0-2.32-.36-3.08-1.09-.76-.72-1.14-1.77-1.14-3.14v-2.46c0-1.37.38-2.42,1.14-3.14.76-.73,1.79-1.09,3.08-1.09s2.32.36,3.08,1.09c.77.72,1.15,1.77,1.15,3.14v2.46c0,1.37-.38,2.42-1.15,3.14-.76.73-1.79,1.09-3.08,1.09ZM80.67,17c.83,0,1.47-.24,1.92-.73.45-.48.67-1.15.67-1.99v-2.58c0-.84-.22-1.5-.67-1.99s-1.09-.73-1.92-.73-1.45.24-1.91.73-.69,1.15-.69,1.99v2.58c0,.84.23,1.5.69,1.99.46.49,1.1.73,1.91.73Z"/>
        <path class="cls-1" d="M87.94,18.25V7.75h3.12l2.85,9.42h.24V7.75h1.61v10.5h-3.12l-2.85-9.43h-.24v9.43h-1.61Z"/>
      </g>
      <path class="cls-1" d="M125.35,25.86H0V0h125.35v25.86ZM1,24.86h123.35V1H1v23.86Z"/>
    </g>
  </g>
</svg>