<?xml version="1.0" encoding="UTF-8"?>
<svg id="Calque_2" data-name="Calque 2" xmlns="http://www.w3.org/2000/svg" viewBox="0 0 21.09 24.22">
  <defs>
    <style>
      .cls-1 {
        fill: #db3c27;
      }

      .cls-2 {
        fill: #f5f5f5;
      }
    </style>
  </defs>
  <g id="Calque_1-2" data-name="Calque 1">
    <g>
      <path class="cls-1" d="M2.22,5.82c-.68,0-1.22-.19-1.62-.58s-.6-.95-.6-1.68v-1.31C0,1.53.2.97.6.58s.94-.58,1.62-.58,1.19.19,1.56.56c.37.37.55.88.55,1.53v.05h-.86v-.07c0-.38-.1-.69-.31-.93-.21-.24-.52-.36-.94-.36s-.76.13-1,.39-.36.62-.36,1.08v1.34c0,.45.12.81.36,1.07.24.26.57.39,1,.39s.73-.12.94-.36c.21-.24.31-.55.31-.92v-.14h.86v.11c0,.64-.18,1.15-.55,1.53-.37.37-.88.56-1.56.56Z"/>
      <path class="cls-1" d="M5.89,5.71V.11h.86v2.4h2.35V.11h.86v5.6h-.86v-2.42h-2.35v2.42h-.86Z"/>
      <path class="cls-1" d="M11.74,5.71V.11h.86v2.33h.13L14.82.11h1.13l-2.53,2.76,2.62,2.84h-1.16l-2.14-2.38h-.13v2.38h-.86Z"/>
      <path class="cls-1" d="M20.44,2.97c-.19,0-.34-.06-.47-.18-.12-.12-.19-.28-.19-.47s.06-.35.19-.47c.13-.12.28-.18.47-.18s.34.06.47.18c.12.12.19.28.19.46s-.06.35-.19.47c-.13.12-.28.18-.47.18ZM20.44,5.82c-.19,0-.34-.06-.47-.18-.12-.12-.19-.28-.19-.47s.06-.35.19-.47c.13-.12.28-.18.47-.18s.34.06.47.18c.12.12.19.28.19.46s-.06.35-.19.47c-.13.12-.28.18-.47.18Z"/>
      <path class="cls-2" d="M.64,24.22v-1.02h6.52v1.02H.64Z"/>
      <path class="cls-2" d="M10.37,24.22v-1.02h6.52v1.02h-6.52Z"/>
    </g>
  </g>
</svg>