<?xml version="1.0" encoding="UTF-8"?>
<svg id="Calque_2" data-name="Calque 2" xmlns="http://www.w3.org/2000/svg" viewBox="0 0 75.46 22.6">
  <defs>
    <style>
      .cls-1 {
        fill: #db3c27;
      }

      .cls-2 {
        fill: #f5f5f5;
      }
    </style>
  </defs>
  <g id="Calque_1-2" data-name="Calque 1">
    <g>
      <path class="cls-1" d="M0,5.6v-.77h.75V.77h-.75v-.77h2.24c.75,0,1.32.19,1.72.57.4.38.6.95.6,1.71v1.05c0,.76-.2,1.33-.6,1.71s-.97.56-1.72.56H0ZM1.62,4.82h.62c.49,0,.85-.12,1.08-.37.23-.25.35-.61.35-1.1v-1.1c0-.49-.12-.86-.35-1.1s-.59-.36-1.08-.36h-.62v4.02Z"/>
      <path class="cls-1" d="M5.65,5.6L7.25,0h1.52l1.59,5.6h-.89l-.37-1.32h-2.19l-.37,1.32h-.9ZM7.13,3.48h1.76l-.82-2.94h-.13l-.82,2.94Z"/>
      <path class="cls-1" d="M12.5,5.6V.78h-1.72v-.78h4.3v.78h-1.72v4.82h-.86Z"/>
      <path class="cls-1" d="M15.49,5.6l1.6-5.6h1.52l1.59,5.6h-.89l-.37-1.32h-2.19l-.37,1.32h-.9ZM16.97,3.48h1.76l-.82-2.94h-.13l-.82,2.94Z"/>
      <path class="cls-1" d="M24.62,2.86c-.19,0-.34-.06-.47-.18-.12-.12-.19-.28-.19-.47s.06-.35.19-.47c.13-.12.28-.18.47-.18s.34.06.47.18c.12.12.19.28.19.46s-.06.35-.19.47c-.13.12-.28.18-.47.18ZM24.62,5.71c-.19,0-.34-.06-.47-.18-.12-.12-.19-.28-.19-.47s.06-.35.19-.47c.13-.12.28-.18.47-.18s.34.06.47.18c.12.12.19.28.19.46s-.06.35-.19.47c-.13.12-.28.18-.47.18Z"/>
      <path class="cls-2" d="M.74,22.4v-9.8h6.03v1.06H1.92v3.28h4.47v1.06H1.92v3.33h4.93v1.06H.74Z"/>
      <path class="cls-2" d="M9.68,22.4v-9.8h2.28l3.42,9.06h.18v-9.06h1.16v9.8h-2.28l-3.4-9.07h-.2v9.07h-1.16Z"/>
      <path class="cls-2" d="M23.56,22.6c-1.17,0-2.1-.34-2.79-1.02-.69-.68-1.04-1.66-1.04-2.96v-2.24c0-1.3.35-2.28,1.04-2.96.69-.68,1.62-1.01,2.79-1.01s2.05.32,2.67.97c.62.64.93,1.53.93,2.65v.07h-1.16v-.11c0-.74-.2-1.34-.59-1.81-.4-.47-1.01-.71-1.84-.71s-1.48.25-1.95.76-.7,1.22-.7,2.13v2.3c0,.92.23,1.63.7,2.13s1.12.76,1.95.76,1.44-.24,1.84-.71c.4-.47.59-1.08.59-1.81v-.22h1.16v.18c0,1.12-.31,2-.93,2.65-.62.64-1.51.97-2.67.97Z"/>
      <path class="cls-2" d="M30.06,22.4v-9.8h3.96c.61,0,1.14.1,1.6.31.46.21.82.51,1.08.9.26.39.39.85.39,1.39v.15c0,.64-.15,1.15-.46,1.53-.31.37-.67.62-1.09.76v.2c.34,0,.61.12.83.33.22.21.33.53.33.95v3.29h-1.16v-3.15c0-.28-.08-.49-.23-.64s-.38-.22-.69-.22h-3.39v4.02h-1.18ZM31.24,17.32h2.67c.64,0,1.14-.16,1.49-.47s.53-.75.53-1.31v-.1c0-.56-.17-1-.52-1.31-.34-.31-.84-.47-1.5-.47h-2.67v3.65Z"/>
      <path class="cls-2" d="M42.31,22.4v-3.74l-3.49-6.06h1.34l2.63,4.7h.2l2.63-4.7h1.34l-3.49,6.06v3.74h-1.18Z"/>
      <path class="cls-2" d="M49.34,22.4v-9.8h3.75c.59,0,1.11.11,1.58.34s.83.55,1.1.97.41.93.41,1.53v.18c0,.59-.14,1.09-.41,1.52s-.65.75-1.11.97c-.47.22-.98.34-1.55.34h-2.58v3.95h-1.18ZM50.51,17.39h2.45c.62,0,1.12-.16,1.48-.47.36-.31.55-.75.55-1.32v-.14c0-.57-.18-1.01-.54-1.32-.36-.31-.86-.47-1.49-.47h-2.45v3.72Z"/>
      <path class="cls-2" d="M61.18,22.4v-8.74h-3.15v-1.06h7.48v1.06h-3.15v8.74h-1.18Z"/>
      <path class="cls-2" d="M67.59,22.4v-1.05h1.37v-7.7h-1.37v-1.05h3.82c1.29,0,2.28.33,2.99.98.71.65,1.06,1.66,1.06,3.01v1.82c0,1.36-.35,2.37-1.06,3.02-.7.65-1.7.97-2.99.97h-3.82ZM70.14,21.33h1.27c.95,0,1.67-.23,2.16-.7s.73-1.19.73-2.17v-1.92c0-1-.24-1.73-.73-2.18-.49-.46-1.2-.69-2.16-.69h-1.27v7.66Z"/>
    </g>
  </g>
</svg>