<?xml version="1.0" encoding="UTF-8"?>
<svg id="Calque_2" data-name="Calque 2" xmlns="http://www.w3.org/2000/svg" viewBox="0 0 74.94 22.6">
  <defs>
    <style>
      .cls-1 {
        fill: #db3c27;
      }

      .cls-2 {
        fill: #f5f5f5;
      }
    </style>
  </defs>
  <g id="Calque_1-2" data-name="Calque 1">
    <g>
      <path class="cls-1" d="M0,5.6v-.77h.75V.77h-.75v-.77h2.84c.34,0,.63.06.88.17.25.11.45.28.59.49.14.21.21.46.21.75v.08c0,.26-.05.47-.14.63-.1.17-.21.29-.35.38-.14.09-.27.15-.39.19v.13c.12.03.25.09.4.19s.26.22.36.39c.1.17.15.38.15.65v.08c0,.31-.07.57-.22.79-.14.22-.34.39-.6.5-.25.12-.55.18-.88.18H0ZM1.62,2.38h1.13c.27,0,.49-.07.66-.2.17-.14.25-.32.25-.56v-.08c0-.24-.08-.42-.24-.56-.16-.14-.38-.2-.66-.2h-1.13v1.6ZM1.62,4.82h1.13c.29,0,.51-.07.68-.21.17-.14.25-.33.25-.58v-.07c0-.25-.08-.44-.24-.58-.16-.14-.39-.21-.68-.21h-1.13v1.64Z"/>
      <path class="cls-1" d="M8.21,5.71c-.44,0-.82-.08-1.14-.24s-.56-.39-.74-.69c-.17-.3-.26-.67-.26-1.1V0h.87v3.7c0,.4.11.7.33.91.22.21.53.32.94.32s.72-.11.94-.32c.22-.21.33-.52.33-.91V0h.86v3.68c0,.43-.08.8-.26,1.1-.17.3-.42.53-.74.69-.32.16-.7.24-1.14.24Z"/>
      <path class="cls-1" d="M12.06,5.6V0h.86v5.6h-.86Z"/>
      <path class="cls-1" d="M14.7,5.6V0h.86v4.82h2.7v.78h-3.56Z"/>
      <path class="cls-1" d="M19.44,5.6v-.77h.75V.77h-.75v-.77h2.24c.75,0,1.32.19,1.72.57.4.38.6.95.6,1.71v1.05c0,.76-.2,1.33-.6,1.71s-.97.56-1.72.56h-2.24ZM21.06,4.82h.62c.49,0,.85-.12,1.08-.37.23-.25.35-.61.35-1.1v-1.1c0-.49-.12-.86-.35-1.1s-.59-.36-1.08-.36h-.62v4.02Z"/>
      <path class="cls-1" d="M28.73,2.86c-.19,0-.34-.06-.47-.18-.12-.12-.19-.28-.19-.47s.06-.35.19-.47c.13-.12.28-.18.47-.18s.34.06.47.18c.12.12.19.28.19.46s-.06.35-.19.47c-.13.12-.28.18-.47.18ZM28.73,5.71c-.19,0-.34-.06-.47-.18-.12-.12-.19-.28-.19-.47s.06-.35.19-.47c.13-.12.28-.18.47-.18s.34.06.47.18c.12.12.19.28.19.46s-.06.35-.19.47c-.13.12-.28.18-.47.18Z"/>
      <path class="cls-2" d="M.37,22.4v-1.02c0-.7.12-1.26.37-1.68.25-.42.59-.76,1.04-1.01.44-.26.97-.48,1.59-.67l.77-.24c.42-.13.79-.29,1.11-.48s.56-.43.74-.73c.18-.29.27-.66.27-1.08v-.06c0-.62-.21-1.1-.64-1.46-.43-.36-.98-.54-1.65-.54-.71,0-1.29.19-1.74.57s-.67.95-.67,1.71v.2H.42v-.18c0-.71.15-1.31.46-1.81.31-.49.73-.87,1.26-1.13.53-.26,1.13-.38,1.81-.38s1.27.13,1.79.38c.52.25.92.6,1.21,1.05.29.45.43.97.43,1.57v.13c0,.63-.13,1.16-.38,1.58s-.6.75-1.04,1.01c-.44.26-.96.49-1.56.67l-.76.24c-.48.15-.87.31-1.18.47-.31.16-.55.37-.71.62-.16.25-.24.59-.24,1.02v.24h5.78v1.02H.37Z"/>
      <path class="cls-2" d="M13.6,22.6c-1.11,0-2-.33-2.65-.99s-.99-1.64-.99-2.96v-2.3c0-1.31.33-2.29.99-2.95s1.54-.99,2.65-.99,2.01.33,2.67.99c.66.66.99,1.65.99,2.95v2.3c0,1.32-.33,2.3-.99,2.96-.66.66-1.55.99-2.67.99ZM13.6,21.57c.84,0,1.47-.25,1.89-.76s.63-1.21.63-2.11v-2.42c0-.91-.21-1.61-.64-2.11-.43-.5-1.06-.75-1.88-.75s-1.45.25-1.87.76c-.42.5-.64,1.2-.64,2.1v2.42c0,.92.21,1.62.63,2.12.42.5,1.05.75,1.88.75Z"/>
      <path class="cls-2" d="M19.88,22.4v-1.02c0-.7.12-1.26.37-1.68.25-.42.59-.76,1.04-1.01.44-.26.97-.48,1.59-.67l.77-.24c.42-.13.79-.29,1.11-.48s.56-.43.74-.73c.18-.29.27-.66.27-1.08v-.06c0-.62-.21-1.1-.64-1.46-.43-.36-.98-.54-1.65-.54-.71,0-1.29.19-1.74.57s-.67.95-.67,1.71v.2h-1.12v-.18c0-.71.15-1.31.46-1.81.31-.49.73-.87,1.26-1.13.53-.26,1.13-.38,1.81-.38s1.27.13,1.79.38c.52.25.92.6,1.21,1.05.29.45.43.97.43,1.57v.13c0,.63-.13,1.16-.38,1.58s-.6.75-1.04,1.01c-.44.26-.96.49-1.56.67l-.76.24c-.48.15-.87.31-1.18.47-.31.16-.55.37-.71.62-.16.25-.24.59-.24,1.02v.24h5.78v1.02h-6.93Z"/>
      <path class="cls-2" d="M32.97,22.6c-.67,0-1.27-.13-1.8-.4-.53-.27-.94-.65-1.25-1.14-.3-.5-.46-1.08-.46-1.76v-3.42c0-.74.14-1.36.43-1.88.29-.51.7-.91,1.22-1.18s1.16-.41,1.88-.41,1.33.13,1.84.38c.51.26.9.61,1.16,1.05.27.44.4.95.4,1.53h-1.15c0-.58-.19-1.05-.56-1.41-.37-.36-.94-.54-1.69-.54s-1.36.21-1.78.62c-.42.42-.63.99-.63,1.71v1.36h.2c.17-.28.45-.54.84-.78.39-.24.94-.36,1.64-.36.59,0,1.12.13,1.61.39.49.26.87.63,1.16,1.11s.43,1.04.43,1.69v.17c0,.66-.15,1.24-.45,1.72-.3.49-.72.86-1.25,1.13-.53.27-1.13.4-1.81.4ZM32.97,21.57c.71,0,1.28-.2,1.72-.6.44-.4.66-.95.66-1.64v-.11c0-.47-.1-.87-.3-1.2-.2-.34-.48-.6-.83-.79s-.77-.29-1.25-.29-.88.1-1.23.29c-.36.19-.63.46-.83.79-.2.34-.3.74-.3,1.2v.11c0,.69.22,1.24.66,1.64s1.01.6,1.71.6Z"/>
      <path class="cls-2" d="M42.73,22.6c-1.11,0-2-.33-2.65-.99s-.99-1.64-.99-2.96v-2.3c0-1.31.33-2.29.99-2.95s1.54-.99,2.65-.99,2.01.33,2.67.99c.66.66.99,1.65.99,2.95v2.3c0,1.32-.33,2.3-.99,2.96-.66.66-1.55.99-2.67.99ZM42.73,21.57c.84,0,1.47-.25,1.89-.76s.63-1.21.63-2.11v-2.42c0-.91-.21-1.61-.64-2.11-.43-.5-1.06-.75-1.88-.75s-1.45.25-1.87.76c-.42.5-.64,1.2-.64,2.1v2.42c0,.92.21,1.62.63,2.12.42.5,1.05.75,1.88.75Z"/>
      <path class="cls-2" d="M52.5,22.6c-.72,0-1.34-.14-1.86-.41-.52-.28-.93-.66-1.22-1.15-.29-.49-.43-1.06-.43-1.7v-.17h1.13v.13c0,.74.21,1.3.64,1.69.43.39,1,.59,1.71.59.75,0,1.33-.21,1.75-.63s.63-.99.63-1.72v-.13c0-.7-.2-1.26-.61-1.67-.41-.42-.93-.62-1.57-.62-.37,0-.68.06-.92.17-.24.12-.43.26-.57.43-.14.17-.26.34-.35.5h-1.54v-5.31h6.44v1.02h-5.31v3.39h.2c.1-.19.25-.37.43-.55.18-.18.43-.33.74-.45s.69-.18,1.15-.18c.57,0,1.08.13,1.55.39s.83.63,1.11,1.12.41,1.06.41,1.74v.15c0,.66-.14,1.25-.42,1.75s-.68.9-1.2,1.18c-.52.29-1.14.43-1.86.43Z"/>
      <path class="cls-2" d="M58.34,22.4v-1.02c0-.7.12-1.26.37-1.68.25-.42.59-.76,1.04-1.01.44-.26.97-.48,1.59-.67l.77-.24c.42-.13.79-.29,1.11-.48s.56-.43.74-.73c.18-.29.27-.66.27-1.08v-.06c0-.62-.21-1.1-.64-1.46-.43-.36-.98-.54-1.65-.54-.71,0-1.29.19-1.74.57s-.67.95-.67,1.71v.2h-1.12v-.18c0-.71.15-1.31.46-1.81.31-.49.73-.87,1.26-1.13.53-.26,1.13-.38,1.81-.38s1.27.13,1.79.38c.52.25.92.6,1.21,1.05.29.45.43.97.43,1.57v.13c0,.63-.13,1.16-.38,1.58s-.6.75-1.04,1.01c-.44.26-.96.49-1.56.67l-.76.24c-.48.15-.87.31-1.18.47-.31.16-.55.37-.71.62-.16.25-.24.59-.24,1.02v.24h5.78v1.02h-6.93Z"/>
      <path class="cls-2" d="M71.43,22.6c-.67,0-1.27-.13-1.8-.4-.53-.27-.94-.65-1.25-1.14-.3-.5-.46-1.08-.46-1.76v-3.42c0-.74.14-1.36.43-1.88.29-.51.7-.91,1.22-1.18s1.16-.41,1.88-.41,1.33.13,1.84.38c.51.26.9.61,1.16,1.05.27.44.4.95.4,1.53h-1.15c0-.58-.19-1.05-.56-1.41-.37-.36-.94-.54-1.69-.54s-1.36.21-1.78.62c-.42.42-.63.99-.63,1.71v1.36h.2c.17-.28.45-.54.84-.78.39-.24.94-.36,1.64-.36.59,0,1.12.13,1.61.39.49.26.87.63,1.16,1.11s.43,1.04.43,1.69v.17c0,.66-.15,1.24-.45,1.72-.3.49-.72.86-1.25,1.13-.53.27-1.13.4-1.81.4ZM71.43,21.57c.71,0,1.28-.2,1.72-.6.44-.4.66-.95.66-1.64v-.11c0-.47-.1-.87-.3-1.2-.2-.34-.48-.6-.83-.79s-.77-.29-1.25-.29-.88.1-1.23.29c-.36.19-.63.46-.83.79-.2.34-.3.74-.3,1.2v.11c0,.69.22,1.24.66,1.64s1.01.6,1.71.6Z"/>
    </g>
  </g>
</svg>