<?xml version="1.0" encoding="UTF-8"?>
<svg id="Calque_2" data-name="Calque 2" xmlns="http://www.w3.org/2000/svg" viewBox="0 0 48.8 22.71">
  <defs>
    <style>
      .cls-1 {
        fill: #db3c27;
      }

      .cls-2 {
        fill: #f5f5f5;
      }
    </style>
  </defs>
  <g id="Calque_1-2" data-name="Calque 1">
    <g>
      <path class="cls-1" d="M0,5.71L1.6.11h1.52l1.59,5.6h-.89l-.37-1.32H1.26l-.37,1.32h-.9ZM1.48,3.59h1.76l-.82-2.94h-.13l-.82,2.94Z"/>
      <path class="cls-1" d="M6.07,5.71V.11h2.22c.34,0,.65.07.92.2.27.14.48.33.63.58.15.25.23.55.23.89v.1c0,.35-.08.65-.24.9-.16.25-.37.44-.64.58-.27.13-.57.2-.9.2h-1.36v2.15h-.86ZM6.94,2.78h1.27c.3,0,.55-.08.73-.24.18-.16.27-.38.27-.66v-.08c0-.28-.09-.5-.27-.66-.18-.16-.42-.24-.73-.24h-1.27v1.88Z"/>
      <path class="cls-1" d="M11.5,5.71V.11h2.22c.34,0,.65.07.92.2.27.14.48.33.63.58.15.25.23.55.23.89v.1c0,.35-.08.65-.24.9-.16.25-.37.44-.64.58-.27.13-.57.2-.9.2h-1.36v2.15h-.86ZM12.36,2.78h1.27c.3,0,.55-.08.73-.24.18-.16.27-.38.27-.66v-.08c0-.28-.09-.5-.27-.66-.18-.16-.42-.24-.73-.24h-1.27v1.88Z"/>
      <path class="cls-1" d="M16.92,5.71V.11h2.35c.35,0,.65.06.92.18.26.12.47.29.62.52.15.22.22.49.22.8v.09c0,.35-.08.63-.25.84s-.37.36-.61.44v.13c.2.01.37.08.49.2.12.13.18.31.18.54v1.86h-.87v-1.74c0-.14-.04-.26-.11-.34-.07-.08-.19-.13-.36-.13h-1.7v2.21h-.86ZM17.78,2.72h1.39c.31,0,.55-.08.72-.24.17-.16.26-.37.26-.64v-.06c0-.27-.08-.49-.25-.64s-.41-.24-.72-.24h-1.39v1.82Z"/>
      <path class="cls-1" d="M24.68,5.82c-.69,0-1.24-.19-1.64-.58s-.61-.95-.61-1.68v-1.31c0-.73.2-1.29.61-1.68s.95-.58,1.64-.58,1.24.19,1.64.58.61.95.61,1.68v1.31c0,.73-.2,1.29-.61,1.68s-.96.58-1.64.58ZM24.68,5.05c.44,0,.78-.13,1.02-.39s.36-.61.36-1.06v-1.38c0-.45-.12-.8-.36-1.06s-.58-.39-1.02-.39-.77.13-1.02.39-.37.61-.37,1.06v1.38c0,.45.12.8.37,1.06s.58.39,1.02.39Z"/>
      <path class="cls-1" d="M29.58,5.71L28.02.11h.9l1.36,5.06h.1L31.74.11h.9l-1.55,5.6h-1.5Z"/>
      <path class="cls-1" d="M33.99,5.71V.11h3.53v.78h-2.66v1.61h2.44v.78h-2.44v1.64h2.7v.78h-3.57Z"/>
      <path class="cls-1" d="M38.86,5.71v-.77h.75V.88h-.75V.11h2.24c.75,0,1.32.19,1.72.57.4.38.6.95.6,1.71v1.05c0,.76-.2,1.33-.6,1.71s-.97.56-1.72.56h-2.24ZM40.48,4.93h.62c.49,0,.85-.12,1.08-.37.23-.25.35-.61.35-1.1v-1.1c0-.49-.12-.86-.35-1.1s-.59-.36-1.08-.36h-.62v4.02Z"/>
      <path class="cls-1" d="M48.14,2.97c-.19,0-.34-.06-.47-.18-.12-.12-.19-.28-.19-.47s.06-.35.19-.47c.13-.12.28-.18.47-.18s.34.06.47.18c.12.12.19.28.19.46s-.06.35-.19.47c-.13.12-.28.18-.47.18ZM48.14,5.82c-.19,0-.34-.06-.47-.18-.12-.12-.19-.28-.19-.47s.06-.35.19-.47c.13-.12.28-.18.47-.18s.34.06.47.18c.12.12.19.28.19.46s-.06.35-.19.47c-.13.12-.28.18-.47.18Z"/>
      <path class="cls-2" d="M3.51,22.51v-3.74L.03,12.71h1.34l2.63,4.7h.2l2.63-4.7h1.34l-3.49,6.06v3.74h-1.18Z"/>
      <path class="cls-2" d="M10.54,22.51v-9.8h6.03v1.06h-4.86v3.28h4.47v1.06h-4.47v3.33h4.93v1.06h-6.1Z"/>
      <path class="cls-2" d="M22.74,22.71c-.71,0-1.34-.13-1.9-.38-.56-.25-1-.63-1.32-1.14-.32-.51-.48-1.15-.48-1.91v-.29h1.16v.29c0,.81.24,1.42.71,1.81.48.4,1.09.59,1.83.59s1.35-.17,1.75-.52c.4-.35.6-.78.6-1.3,0-.36-.09-.65-.27-.87s-.44-.39-.76-.53c-.33-.13-.71-.25-1.15-.36l-.73-.18c-.57-.15-1.07-.33-1.51-.55-.44-.21-.78-.5-1.03-.85-.25-.35-.37-.8-.37-1.35s.14-1.03.41-1.43.66-.71,1.16-.92c.5-.21,1.08-.32,1.73-.32s1.26.11,1.79.34c.53.23.94.57,1.25,1.01.3.44.46,1,.46,1.67v.59h-1.16v-.59c0-.48-.1-.86-.3-1.15-.2-.29-.48-.5-.83-.64-.35-.14-.75-.21-1.2-.21-.64,0-1.16.14-1.55.43-.39.29-.59.69-.59,1.21,0,.35.08.62.25.84s.41.39.71.53c.31.13.68.25,1.11.36l.73.18c.57.12,1.08.29,1.53.5.45.21.81.49,1.08.85.27.36.41.83.41,1.41s-.15,1.08-.43,1.51c-.29.43-.7.76-1.22,1s-1.15.36-1.86.36Z"/>
    </g>
  </g>
</svg>