<?xml version="1.0" encoding="UTF-8"?>
<svg id="Calque_2" data-name="Calque 2" xmlns="http://www.w3.org/2000/svg" viewBox="0 0 34.38 22.71">
  <defs>
    <style>
      .cls-1 {
        fill: #db3c27;
      }

      .cls-2 {
        fill: #f5f5f5;
      }
    </style>
  </defs>
  <g id="Calque_1-2" data-name="Calque 1">
    <g>
      <path class="cls-1" d="M2.16,5.82c-.42,0-.79-.08-1.12-.22s-.58-.37-.76-.66c-.18-.29-.28-.64-.28-1.06v-.2h.86v.2c0,.39.12.69.36.89s.55.3.95.3.7-.08.9-.25c.2-.17.3-.38.3-.65,0-.18-.05-.32-.14-.43-.1-.11-.23-.2-.41-.27-.18-.07-.39-.13-.63-.19l-.3-.07c-.36-.09-.67-.19-.93-.32-.26-.12-.47-.29-.61-.5-.14-.21-.22-.47-.22-.8s.08-.61.24-.85c.16-.24.39-.42.68-.54.29-.13.63-.19,1.02-.19s.74.07,1.04.2c.31.13.55.33.72.59s.26.59.26.98v.29h-.86v-.29c0-.24-.05-.44-.15-.58-.1-.15-.24-.26-.41-.33s-.38-.1-.62-.1c-.34,0-.61.07-.8.21-.19.14-.28.34-.28.59,0,.17.04.31.12.42.08.11.2.2.36.27s.36.13.6.18l.3.07c.36.08.68.18.96.31.28.13.5.29.66.51.16.21.24.49.24.82s-.08.63-.25.88c-.17.25-.41.45-.72.59-.31.14-.67.21-1.1.21Z"/>
      <path class="cls-1" d="M5.73,5.71V.11h.86v5.6h-.86Z"/>
      <path class="cls-1" d="M10.3,5.82c-.4,0-.76-.09-1.07-.26-.31-.17-.56-.43-.74-.76s-.27-.75-.27-1.23v-1.31c0-.73.2-1.29.6-1.68s.94-.58,1.62-.58,1.19.18,1.55.55c.36.37.54.85.54,1.47v.04h-.86v-.06c0-.23-.05-.44-.14-.62-.09-.18-.23-.33-.41-.44-.18-.11-.41-.16-.7-.16-.43,0-.76.13-1,.39s-.36.62-.36,1.08v1.34c0,.45.12.81.36,1.08.24.26.58.4,1.01.4s.74-.12.94-.35c.2-.23.3-.54.3-.91v-.1h-1.5v-.74h2.36v2.77h-.8v-.57h-.13c-.05.1-.12.21-.21.31-.09.11-.23.19-.4.26-.17.07-.4.1-.69.1Z"/>
      <path class="cls-1" d="M14.25,5.71V.11h1.66l1.52,5.02h.13V.11h.86v5.6h-1.66l-1.52-5.03h-.13v5.03h-.86Z"/>
      <path class="cls-1" d="M19.77,5.71L21.37.11h1.52l1.59,5.6h-.89l-.37-1.32h-2.19l-.37,1.32h-.9ZM21.25,3.59h1.76l-.82-2.94h-.13l-.82,2.94Z"/>
      <path class="cls-1" d="M25.84,5.71V.11h.86v4.82h2.7v.78h-3.56Z"/>
      <path class="cls-1" d="M33.73,2.97c-.19,0-.34-.06-.47-.18-.12-.12-.19-.28-.19-.47s.06-.35.19-.47c.13-.12.28-.18.47-.18s.34.06.47.18c.12.12.19.28.19.46s-.06.35-.19.47c-.13.12-.28.18-.47.18ZM33.73,5.82c-.19,0-.34-.06-.47-.18-.12-.12-.19-.28-.19-.47s.06-.35.19-.47c.13-.12.28-.18.47-.18s.34.06.47.18c.12.12.19.28.19.46s-.06.35-.19.47c-.13.12-.28.18-.47.18Z"/>
      <path class="cls-2" d="M4.03,22.71c-.76,0-1.41-.11-1.97-.34-.55-.23-.98-.55-1.29-.97-.3-.42-.46-.9-.46-1.46v-.15c0-.48.1-.89.31-1.2s.46-.56.75-.74.57-.28.82-.33v-.18c-.25-.08-.51-.2-.78-.36-.27-.17-.49-.4-.66-.69-.17-.29-.26-.64-.26-1.06v-.15c0-.53.15-.99.46-1.37.3-.38.72-.67,1.25-.88.53-.21,1.14-.31,1.82-.31s1.3.1,1.83.31c.53.21.94.5,1.25.88.3.38.46.83.46,1.37v.15c0,.42-.08.77-.25,1.06-.17.29-.38.52-.64.69-.26.17-.52.29-.78.36v.18c.26.05.54.16.83.33.29.17.53.42.73.74.2.32.3.72.3,1.2v.15c0,.56-.15,1.05-.45,1.46-.3.42-.73.74-1.28.97-.56.23-1.22.34-1.98.34ZM4.03,21.69c.79,0,1.42-.15,1.88-.46s.69-.76.69-1.34v-.11c0-.59-.23-1.04-.69-1.34-.46-.31-1.09-.46-1.89-.46s-1.42.15-1.88.46c-.46.31-.69.76-.69,1.34v.11c0,.59.23,1.04.69,1.34s1.08.46,1.87.46ZM4.03,16.94c.75,0,1.33-.14,1.76-.43.42-.28.64-.69.64-1.21v-.11c0-.53-.21-.94-.64-1.22-.43-.29-1.01-.43-1.75-.43s-1.32.14-1.75.43c-.43.29-.64.69-.64,1.22v.11c0,.52.21.93.64,1.21.43.29,1.01.43,1.75.43Z"/>
      <path class="cls-2" d="M13.63,22.71c-.72,0-1.33-.13-1.84-.39-.51-.26-.89-.61-1.15-1.06-.26-.45-.39-.96-.39-1.53h1.13c0,.58.19,1.05.57,1.41s.94.54,1.68.54c.78,0,1.37-.21,1.79-.62.42-.42.62-.99.62-1.71v-1.36h-.18c-.18.28-.46.54-.85.78-.39.24-.93.36-1.63.36-.59,0-1.13-.13-1.62-.39-.49-.26-.88-.63-1.17-1.11-.29-.48-.43-1.04-.43-1.69v-.17c0-.67.15-1.25.46-1.73.31-.48.73-.85,1.25-1.12.53-.27,1.13-.4,1.8-.4s1.29.13,1.81.4c.53.27.94.64,1.24,1.13.3.49.45,1.08.45,1.77v3.42c0,.73-.14,1.35-.43,1.87-.28.52-.69.92-1.22,1.19s-1.16.41-1.89.41ZM13.67,18.17c.47,0,.88-.1,1.23-.29s.63-.46.83-.8c.2-.34.3-.74.3-1.2v-.11c0-.7-.22-1.25-.65-1.64-.43-.4-1.01-.59-1.72-.59s-1.28.2-1.72.59-.66.95-.66,1.64v.11c0,.46.1.86.3,1.2.2.34.48.61.84.8s.77.29,1.24.29Z"/>
      <path class="cls-2" d="M21.78,17.04c-.68,0-1.22-.2-1.62-.6s-.6-.94-.6-1.61v-.08c0-.68.2-1.22.6-1.62s.94-.6,1.62-.6,1.21.2,1.62.6.61.94.61,1.62v.08c0,.67-.2,1.21-.61,1.61s-.95.6-1.62.6ZM20.95,22.71l-.76-.6,7.8-9.59.74.6-7.78,9.59ZM21.78,16.23c.39,0,.71-.13.94-.38.23-.25.35-.58.35-.98v-.17c0-.41-.12-.74-.35-.99-.23-.25-.55-.37-.94-.37s-.72.12-.94.37c-.23.25-.34.58-.34.99v.17c0,.4.11.73.34.98.23.25.54.38.94.38ZM27.17,22.69c-.68,0-1.23-.2-1.63-.59-.41-.4-.61-.94-.61-1.62v-.08c0-.68.2-1.22.61-1.62.41-.4.95-.59,1.63-.59s1.2.2,1.61.59c.41.4.62.94.62,1.62v.08c0,.68-.2,1.22-.61,1.62-.41.4-.94.59-1.62.59ZM27.17,21.88c.39,0,.7-.13.93-.38s.34-.58.34-.98v-.17c0-.41-.11-.74-.34-.99-.23-.25-.54-.37-.93-.37s-.72.12-.95.37c-.23.25-.34.58-.34.99v.17c0,.4.11.73.34.98s.54.38.95.38Z"/>
    </g>
  </g>
</svg>