<?xml version="1.0" encoding="UTF-8"?>
<svg id="Calque_2" data-name="Calque 2" xmlns="http://www.w3.org/2000/svg" viewBox="0 0 60.09 22.71">
  <defs>
    <style>
      .cls-1 {
        fill: #db3c27;
      }

      .cls-2 {
        fill: #f5f5f5;
      }
    </style>
  </defs>
  <g id="Calque_1-2" data-name="Calque 1">
    <g>
      <path class="cls-1" d="M0,5.71V.11h1.62l1.22,5.02h.13L4.2.11h1.62v5.6h-.84V.72h-.13l-1.22,4.99h-1.46L.97.72h-.13v4.99h-.84Z"/>
      <path class="cls-1" d="M9.7,5.82c-.69,0-1.24-.19-1.64-.58s-.61-.95-.61-1.68v-1.31c0-.73.2-1.29.61-1.68s.95-.58,1.64-.58,1.24.19,1.64.58.61.95.61,1.68v1.31c0,.73-.2,1.29-.61,1.68s-.96.58-1.64.58ZM9.7,5.05c.44,0,.78-.13,1.02-.39s.36-.61.36-1.06v-1.38c0-.45-.12-.8-.36-1.06s-.58-.39-1.02-.39-.77.13-1.02.39-.37.61-.37,1.06v1.38c0,.45.12.8.37,1.06s.58.39,1.02.39Z"/>
      <path class="cls-1" d="M13.18,5.71v-.77h.75V.88h-.75V.11h2.24c.75,0,1.32.19,1.72.57.4.38.6.95.6,1.71v1.05c0,.76-.2,1.33-.6,1.71s-.97.56-1.72.56h-2.24ZM14.81,4.93h.62c.49,0,.85-.12,1.08-.37.23-.25.35-.61.35-1.1v-1.1c0-.49-.12-.86-.35-1.1s-.59-.36-1.08-.36h-.62v4.02Z"/>
      <path class="cls-1" d="M19.31,5.71V.11h3.53v.78h-2.66v1.61h2.44v.78h-2.44v1.64h2.7v.78h-3.57Z"/>
      <path class="cls-1" d="M27.54,2.97c-.19,0-.34-.06-.47-.18-.12-.12-.19-.28-.19-.47s.06-.35.19-.47c.13-.12.28-.18.47-.18s.34.06.47.18c.12.12.19.28.19.46s-.06.35-.19.47c-.13.12-.28.18-.47.18ZM27.54,5.82c-.19,0-.34-.06-.47-.18-.12-.12-.19-.28-.19-.47s.06-.35.19-.47c.13-.12.28-.18.47-.18s.34.06.47.18c.12.12.19.28.19.46s-.06.35-.19.47c-.13.12-.28.18-.47.18Z"/>
      <path class="cls-2" d="M.54,22.51v-9.8h2.24l2.6,9.06h.18l2.6-9.06h2.24v9.8h-1.13v-9.03h-.2l-2.59,9.03h-2.03L1.87,13.48h-.2v9.03H.54Z"/>
      <path class="cls-2" d="M12.93,22.51l3.02-9.8h2.07l3.02,9.8h-1.22l-.76-2.48h-4.17l-.76,2.48h-1.22ZM15.19,18.97h3.57l-1.68-5.54h-.2l-1.69,5.54Z"/>
      <path class="cls-2" d="M23.57,22.51v-9.8h2.28l3.42,9.06h.18v-9.06h1.16v9.8h-2.28l-3.4-9.07h-.2v9.07h-1.16Z"/>
      <path class="cls-2" d="M37.45,22.71c-.73,0-1.36-.13-1.9-.39-.54-.26-.96-.65-1.26-1.17-.3-.52-.45-1.15-.45-1.91v-6.52h1.16v6.54c0,.8.21,1.4.64,1.81.43.4,1.03.6,1.81.6s1.38-.2,1.81-.6c.43-.4.64-1,.64-1.81v-6.54h1.18v6.52c0,.76-.15,1.39-.45,1.91-.3.52-.72.91-1.27,1.17-.55.26-1.18.39-1.91.39Z"/>
      <path class="cls-2" d="M43.32,22.51l3.02-9.8h2.07l3.02,9.8h-1.22l-.76-2.48h-4.17l-.76,2.48h-1.22ZM45.59,18.97h3.57l-1.68-5.54h-.2l-1.69,5.54Z"/>
      <path class="cls-2" d="M53.96,22.51v-9.8h1.18v8.74h4.96v1.06h-6.13Z"/>
    </g>
  </g>
</svg>