<?xml version="1.0" encoding="UTF-8"?>
<svg id="Calque_2" data-name="Calque 2" xmlns="http://www.w3.org/2000/svg" viewBox="0 0 41.38 22.6">
  <defs>
    <style>
      .cls-1 {
        fill: #db3c27;
      }

      .cls-2 {
        fill: #f5f5f5;
      }
    </style>
  </defs>
  <g id="Calque_1-2" data-name="Calque 1">
    <g>
      <path class="cls-1" d="M1.72,5.6V.78H0v-.78h4.3v.78h-1.72v4.82h-.86Z"/>
      <path class="cls-1" d="M5.69,5.6V0h3.53v.78h-2.66v1.61h2.44v.78h-2.44v1.64h2.7v.78h-3.57Z"/>
      <path class="cls-1" d="M10.76,5.6V0h1.62l1.22,5.02h.13l1.22-5.02h1.62v5.6h-.84V.61h-.13l-1.22,4.99h-1.46l-1.22-4.99h-.13v4.99h-.84Z"/>
      <path class="cls-1" d="M18.35,5.6V0h2.22c.34,0,.65.07.92.2.27.14.48.33.63.58.15.25.23.55.23.89v.1c0,.35-.08.65-.24.9-.16.25-.37.44-.64.58-.27.13-.57.2-.9.2h-1.36v2.15h-.86ZM19.22,2.66h1.27c.3,0,.55-.08.73-.24.18-.16.27-.38.27-.66v-.08c0-.28-.09-.5-.27-.66-.18-.16-.42-.24-.73-.24h-1.27v1.88Z"/>
      <path class="cls-1" d="M26.94,2.86c-.19,0-.34-.06-.47-.18-.12-.12-.19-.28-.19-.47s.06-.35.19-.47c.13-.12.28-.18.47-.18s.34.06.47.18c.12.12.19.28.19.46s-.06.35-.19.47c-.13.12-.28.18-.47.18ZM26.94,5.71c-.19,0-.34-.06-.47-.18-.12-.12-.19-.28-.19-.47s.06-.35.19-.47c.13-.12.28-.18.47-.18s.34.06.47.18c.12.12.19.28.19.46s-.06.35-.19.47c-.13.12-.28.18-.47.18Z"/>
      <path class="cls-2" d="M.91,19.31v-1.02h4.14v1.02H.91Z"/>
      <path class="cls-2" d="M11.7,22.6c-1.11,0-2-.33-2.65-.99s-.99-1.64-.99-2.96v-2.3c0-1.31.33-2.29.99-2.95s1.54-.99,2.65-.99,2.01.33,2.67.99c.66.66.99,1.65.99,2.95v2.3c0,1.32-.33,2.3-.99,2.96-.66.66-1.55.99-2.67.99ZM11.7,21.57c.84,0,1.47-.25,1.89-.76s.63-1.21.63-2.11v-2.42c0-.91-.21-1.61-.64-2.11-.43-.5-1.06-.75-1.88-.75s-1.45.25-1.87.76c-.42.5-.64,1.2-.64,2.1v2.42c0,.92.21,1.62.63,2.12.42.5,1.05.75,1.88.75Z"/>
      <path class="cls-2" d="M17.99,22.4v-1.02c0-.7.12-1.26.37-1.68.25-.42.59-.76,1.04-1.01.44-.26.97-.48,1.59-.67l.77-.24c.42-.13.79-.29,1.11-.48s.56-.43.74-.73c.18-.29.27-.66.27-1.08v-.06c0-.62-.21-1.1-.64-1.46-.43-.36-.98-.54-1.65-.54-.71,0-1.29.19-1.74.57s-.67.95-.67,1.71v.2h-1.12v-.18c0-.71.15-1.31.46-1.81.31-.49.73-.87,1.26-1.13.53-.26,1.13-.38,1.81-.38s1.27.13,1.79.38c.52.25.92.6,1.21,1.05.29.45.43.97.43,1.57v.13c0,.63-.13,1.16-.38,1.58s-.6.75-1.04,1.01c-.44.26-.96.49-1.56.67l-.76.24c-.48.15-.87.31-1.18.47-.31.16-.55.37-.71.62-.16.25-.24.59-.24,1.02v.24h5.78v1.02h-6.93Z"/>
      <path class="cls-2" d="M29.41,16.69c-.4,0-.77-.09-1.1-.27-.33-.18-.59-.44-.78-.76-.19-.33-.29-.7-.29-1.12s.1-.78.29-1.1.45-.57.78-.76c.33-.18.7-.27,1.1-.27s.77.09,1.09.27c.33.18.59.43.78.76s.29.69.29,1.11-.1.78-.29,1.11c-.19.33-.45.58-.78.76-.33.18-.69.27-1.09.27ZM29.41,15.76c.35,0,.64-.11.86-.34.22-.22.33-.52.33-.88s-.11-.67-.33-.89c-.22-.22-.51-.33-.86-.33s-.64.11-.87.33c-.22.22-.34.52-.34.89s.11.66.34.88c.22.22.51.34.87.34Z"/>
      <path class="cls-2" d="M37.78,22.6c-1.17,0-2.1-.34-2.79-1.02-.69-.68-1.04-1.66-1.04-2.96v-2.24c0-1.3.35-2.28,1.04-2.96.69-.68,1.62-1.01,2.79-1.01s2.05.32,2.67.97c.62.64.93,1.53.93,2.65v.07h-1.16v-.11c0-.74-.2-1.34-.59-1.81-.4-.47-1.01-.71-1.84-.71s-1.48.25-1.95.76-.7,1.22-.7,2.13v2.3c0,.92.23,1.63.7,2.13s1.12.76,1.95.76,1.44-.24,1.84-.71c.4-.47.59-1.08.59-1.81v-.22h1.16v.18c0,1.12-.31,2-.93,2.65-.62.64-1.51.97-2.67.97Z"/>
    </g>
  </g>
</svg>