<?xml version="1.0" encoding="UTF-8"?>
<svg id="Calque_2" data-name="Calque 2" xmlns="http://www.w3.org/2000/svg" viewBox="0 0 45.64 22.51">
  <defs>
    <style>
      .cls-1 {
        fill: #db3c27;
      }

      .cls-2 {
        fill: #f5f5f5;
      }
    </style>
  </defs>
  <g id="Calque_1-2" data-name="Calque 1">
    <g>
      <path class="cls-1" d="M2.33,5.82c-.44,0-.82-.08-1.14-.24s-.56-.39-.74-.69c-.17-.3-.26-.67-.26-1.1V.11h.87v3.7c0,.4.11.7.33.91.22.21.53.32.94.32s.72-.11.94-.32c.22-.21.33-.52.33-.91V.11h.86v3.68c0,.43-.08.8-.26,1.1-.17.3-.42.53-.74.69-.32.16-.7.24-1.14.24Z"/>
      <path class="cls-1" d="M8.09,5.82c-.42,0-.79-.08-1.12-.22s-.58-.37-.76-.66c-.18-.29-.28-.64-.28-1.06v-.2h.86v.2c0,.39.12.69.36.89s.55.3.95.3.7-.08.9-.25c.2-.17.3-.38.3-.65,0-.18-.05-.32-.14-.43-.1-.11-.23-.2-.41-.27-.18-.07-.39-.13-.63-.19l-.3-.07c-.36-.09-.67-.19-.93-.32-.26-.12-.47-.29-.61-.5-.14-.21-.22-.47-.22-.8s.08-.61.24-.85c.16-.24.39-.42.68-.54.29-.13.63-.19,1.02-.19s.74.07,1.04.2c.31.13.55.33.72.59s.26.59.26.98v.29h-.86v-.29c0-.24-.05-.44-.15-.58-.1-.15-.24-.26-.41-.33s-.38-.1-.62-.1c-.34,0-.61.07-.8.21-.19.14-.28.34-.28.59,0,.17.04.31.12.42.08.11.2.2.36.27s.36.13.6.18l.3.07c.36.08.68.18.96.31.28.13.5.29.66.51.16.21.24.49.24.82s-.08.63-.25.88c-.17.25-.41.45-.72.59-.31.14-.67.21-1.1.21Z"/>
      <path class="cls-1" d="M11.66,5.71V.11h3.53v.78h-2.66v1.61h2.44v.78h-2.44v1.64h2.7v.78h-3.57Z"/>
      <path class="cls-1" d="M16.73,5.71V.11h2.35c.35,0,.65.06.92.18.26.12.47.29.62.52.15.22.22.49.22.8v.09c0,.35-.08.63-.25.84s-.37.36-.61.44v.13c.2.01.37.08.49.2.12.13.18.31.18.54v1.86h-.87v-1.74c0-.14-.04-.26-.11-.34-.07-.08-.19-.13-.36-.13h-1.7v2.21h-.86ZM17.59,2.72h1.39c.31,0,.55-.08.72-.24.17-.16.26-.37.26-.64v-.06c0-.27-.08-.49-.25-.64s-.41-.24-.72-.24h-1.39v1.82Z"/>
      <path class="cls-1" d="M25.55,2.97c-.19,0-.34-.06-.47-.18-.12-.12-.19-.28-.19-.47s.06-.35.19-.47c.13-.12.28-.18.47-.18s.34.06.47.18c.12.12.19.28.19.46s-.06.35-.19.47c-.13.12-.28.18-.47.18ZM25.55,5.82c-.19,0-.34-.06-.47-.18-.12-.12-.19-.28-.19-.47s.06-.35.19-.47c.13-.12.28-.18.47-.18s.34.06.47.18c.12.12.19.28.19.46s-.06.35-.19.47c-.13.12-.28.18-.47.18Z"/>
      <path class="cls-2" d="M0,22.51l3.02-9.8h2.07l3.02,9.8h-1.22l-.76-2.48H1.97l-.76,2.48H0ZM2.27,18.97h3.57l-1.68-5.54h-.2l-1.69,5.54Z"/>
      <path class="cls-2" d="M10.18,22.51v-1.05h1.37v-7.7h-1.37v-1.05h3.82c1.29,0,2.28.33,2.99.98.71.65,1.06,1.66,1.06,3.01v1.82c0,1.36-.35,2.37-1.06,3.02-.7.65-1.7.97-2.99.97h-3.82ZM12.73,21.45h1.27c.95,0,1.67-.23,2.16-.7s.73-1.19.73-2.17v-1.92c0-1-.24-1.73-.73-2.18-.49-.46-1.2-.69-2.16-.69h-1.27v7.66Z"/>
      <path class="cls-2" d="M20.97,22.51v-9.8h2.24l2.6,9.06h.18l2.6-9.06h2.24v9.8h-1.13v-9.03h-.2l-2.59,9.03h-2.03l-2.59-9.03h-.2v9.03h-1.13Z"/>
      <path class="cls-2" d="M34.13,22.51v-9.8h1.18v9.8h-1.18Z"/>
      <path class="cls-2" d="M38.6,22.51v-9.8h2.28l3.42,9.06h.18v-9.06h1.16v9.8h-2.28l-3.4-9.07h-.2v9.07h-1.16Z"/>
    </g>
  </g>
</svg>