<?xml version="1.0" encoding="UTF-8"?>
<svg id="Calque_2" data-name="Calque 2" xmlns="http://www.w3.org/2000/svg" viewBox="0 0 129.42 25.86">
  <defs>
    <style>
      .cls-1 {
        fill: #db3c27;
      }
    </style>
  </defs>
  <g id="Calque_1-2" data-name="Calque 1">
    <g>
      <g>
        <path d="M30.54,18.25l-1.54-10.5h1.62l1.26,9.41h.24l1.62-9.41h2.83l1.62,9.41h.24l1.25-9.41h1.62l-1.54,10.5h-2.83l-1.65-9.54h-.24l-1.64,9.54h-2.85Z"/>
        <path d="M42.92,18.25l3-10.5h2.85l2.99,10.5h-1.67l-.69-2.47h-4.11l-.69,2.47h-1.68ZM45.69,14.28h3.3l-1.53-5.52h-.24l-1.53,5.52Z"/>
        <path d="M54.3,18.25V7.75h4.41c.65,0,1.22.11,1.72.34.5.22.88.55,1.16.97.27.42.41.92.41,1.5v.17c0,.66-.16,1.19-.47,1.58-.31.39-.7.67-1.15.83v.24c.38.02.68.15.92.38.23.23.34.57.34,1.01v3.48h-1.63v-3.25c0-.27-.07-.49-.21-.65-.14-.16-.37-.24-.67-.24h-3.2v4.14h-1.62ZM55.92,12.64h2.61c.58,0,1.03-.15,1.35-.44s.48-.7.48-1.21v-.12c0-.51-.16-.91-.47-1.21-.32-.29-.77-.44-1.36-.44h-2.61v3.42Z"/>
        <path d="M64.9,18.25V7.75h3.12l2.85,9.42h.24V7.75h1.61v10.5h-3.12l-2.85-9.43h-.24v9.43h-1.61Z"/>
        <path d="M76.03,18.25V7.75h1.62v10.5h-1.62Z"/>
        <path d="M80.97,18.25V7.75h3.12l2.85,9.42h.24V7.75h1.61v10.5h-3.12l-2.85-9.43h-.24v9.43h-1.61Z"/>
        <path d="M95.75,18.46c-.75,0-1.42-.16-2.01-.49-.59-.33-1.06-.8-1.4-1.43s-.51-1.4-.51-2.31v-2.46c0-1.37.38-2.42,1.12-3.14.75-.73,1.76-1.09,3.04-1.09s2.23.34,2.91,1.03c.68.69,1.02,1.6,1.02,2.75v.07h-1.6v-.12c0-.43-.08-.82-.25-1.16-.17-.34-.43-.62-.77-.82s-.77-.3-1.3-.3c-.8,0-1.42.24-1.88.73s-.67,1.16-.67,2.02v2.52c0,.85.22,1.52.67,2.02s1.08.74,1.89.74,1.38-.22,1.75-.66c.37-.44.56-1.01.56-1.71v-.2h-2.82v-1.4h4.42v5.19h-1.5v-1.07h-.24c-.09.19-.22.39-.4.58-.17.2-.42.37-.75.5-.32.13-.76.2-1.3.2Z"/>
      </g>
      <g>
        <path class="cls-1" d="M30.54,18.25l-1.54-10.5h1.62l1.26,9.41h.24l1.62-9.41h2.83l1.62,9.41h.24l1.25-9.41h1.62l-1.54,10.5h-2.83l-1.65-9.54h-.24l-1.64,9.54h-2.85Z"/>
        <path class="cls-1" d="M42.92,18.25l3-10.5h2.85l2.99,10.5h-1.67l-.69-2.47h-4.11l-.69,2.47h-1.68ZM45.69,14.28h3.3l-1.53-5.52h-.24l-1.53,5.52Z"/>
        <path class="cls-1" d="M54.3,18.25V7.75h4.41c.65,0,1.22.11,1.72.34.5.22.88.55,1.16.97.27.42.41.92.41,1.5v.17c0,.66-.16,1.19-.47,1.58-.31.39-.7.67-1.15.83v.24c.38.02.68.15.92.38.23.23.34.57.34,1.01v3.48h-1.63v-3.25c0-.27-.07-.49-.21-.65-.14-.16-.37-.24-.67-.24h-3.2v4.14h-1.62ZM55.92,12.64h2.61c.58,0,1.03-.15,1.35-.44s.48-.7.48-1.21v-.12c0-.51-.16-.91-.47-1.21-.32-.29-.77-.44-1.36-.44h-2.61v3.42Z"/>
        <path class="cls-1" d="M64.9,18.25V7.75h3.12l2.85,9.42h.24V7.75h1.61v10.5h-3.12l-2.85-9.43h-.24v9.43h-1.61Z"/>
        <path class="cls-1" d="M76.03,18.25V7.75h1.62v10.5h-1.62Z"/>
        <path class="cls-1" d="M80.97,18.25V7.75h3.12l2.85,9.42h.24V7.75h1.61v10.5h-3.12l-2.85-9.43h-.24v9.43h-1.61Z"/>
        <path class="cls-1" d="M95.75,18.46c-.75,0-1.42-.16-2.01-.49-.59-.33-1.06-.8-1.4-1.43s-.51-1.4-.51-2.31v-2.46c0-1.37.38-2.42,1.12-3.14.75-.73,1.76-1.09,3.04-1.09s2.23.34,2.91,1.03c.68.69,1.02,1.6,1.02,2.75v.07h-1.6v-.12c0-.43-.08-.82-.25-1.16-.17-.34-.43-.62-.77-.82s-.77-.3-1.3-.3c-.8,0-1.42.24-1.88.73s-.67,1.16-.67,2.02v2.52c0,.85.22,1.52.67,2.02s1.08.74,1.89.74,1.38-.22,1.75-.66c.37-.44.56-1.01.56-1.71v-.2h-2.82v-1.4h4.42v5.19h-1.5v-1.07h-.24c-.09.19-.22.39-.4.58-.17.2-.42.37-.75.5-.32.13-.76.2-1.3.2Z"/>
      </g>
      <path class="cls-1" d="M129.42,25.86H0V0h129.42v25.86ZM1,24.86h127.42V1H1v23.86Z"/>
    </g>
  </g>
</svg>