<?xml version="1.0" encoding="UTF-8"?>
<svg id="Calque_2" data-name="Calque 2" xmlns="http://www.w3.org/2000/svg" viewBox="0 0 21.83 22.6">
  <defs>
    <style>
      .cls-1 {
        fill: #db3c27;
      }

      .cls-2 {
        fill: #f5f5f5;
      }
    </style>
  </defs>
  <g id="Calque_1-2" data-name="Calque 1">
    <g>
      <path class="cls-1" d="M1.56,5.6L0,0h.9l1.36,5.06h.1L3.71,0h.9l-1.55,5.6h-1.5Z"/>
      <path class="cls-1" d="M5.97,5.6V0h3.53v.78h-2.66v1.61h2.44v.78h-2.44v1.64h2.7v.78h-3.57Z"/>
      <path class="cls-1" d="M11.04,5.6V0h2.35c.35,0,.65.06.92.18.26.12.47.29.62.52.15.22.22.49.22.8v.09c0,.35-.08.63-.25.84s-.37.36-.61.44v.13c.2.01.37.08.49.2.12.13.18.31.18.54v1.86h-.87v-1.74c0-.14-.04-.26-.11-.34-.07-.08-.19-.13-.36-.13h-1.7v2.21h-.86ZM11.9,2.61h1.39c.31,0,.55-.08.72-.24.17-.16.26-.37.26-.64v-.06c0-.27-.08-.49-.25-.64s-.41-.24-.72-.24h-1.39v1.82Z"/>
      <path class="cls-1" d="M19.86,2.86c-.19,0-.34-.06-.47-.18-.12-.12-.19-.28-.19-.47s.06-.35.19-.47c.13-.12.28-.18.47-.18s.34.06.47.18c.12.12.19.28.19.46s-.06.35-.19.47c-.13.12-.28.18-.47.18ZM19.86,5.71c-.19,0-.34-.06-.47-.18-.12-.12-.19-.28-.19-.47s.06-.35.19-.47c.13-.12.28-.18.47-.18s.34.06.47.18c.12.12.19.28.19.46s-.06.35-.19.47c-.13.12-.28.18-.47.18Z"/>
      <path class="cls-2" d="M.57,22.4v-1.02c0-.7.12-1.26.37-1.68.25-.42.59-.76,1.04-1.01.44-.26.97-.48,1.59-.67l.77-.24c.42-.13.79-.29,1.11-.48s.56-.43.74-.73c.18-.29.27-.66.27-1.08v-.06c0-.62-.21-1.1-.64-1.46-.43-.36-.98-.54-1.65-.54-.71,0-1.29.19-1.74.57s-.67.95-.67,1.71v.2H.63v-.18c0-.71.15-1.31.46-1.81.31-.49.73-.87,1.26-1.13.53-.26,1.13-.38,1.81-.38s1.27.13,1.79.38c.52.25.92.6,1.21,1.05.29.45.43.97.43,1.57v.13c0,.63-.13,1.16-.38,1.58s-.6.75-1.04,1.01c-.44.26-.96.49-1.56.67l-.76.24c-.48.15-.87.31-1.18.47-.31.16-.55.37-.71.62-.16.25-.24.59-.24,1.02v.24h5.78v1.02H.57Z"/>
      <path class="cls-2" d="M11.09,22.6c-.27,0-.5-.09-.68-.27-.18-.18-.27-.41-.27-.69s.09-.51.27-.69c.18-.18.41-.27.68-.27s.51.09.69.27c.18.18.27.41.27.69s-.09.51-.27.69-.41.27-.69.27Z"/>
      <path class="cls-2" d="M18.17,22.6c-1.11,0-2-.33-2.65-.99s-.99-1.64-.99-2.96v-2.3c0-1.31.33-2.29.99-2.95s1.54-.99,2.65-.99,2.01.33,2.67.99c.66.66.99,1.65.99,2.95v2.3c0,1.32-.33,2.3-.99,2.96-.66.66-1.55.99-2.67.99ZM18.17,21.57c.84,0,1.47-.25,1.89-.76s.63-1.21.63-2.11v-2.42c0-.91-.21-1.61-.64-2.11-.43-.5-1.06-.75-1.88-.75s-1.45.25-1.87.76c-.42.5-.64,1.2-.64,2.1v2.42c0,.92.21,1.62.63,2.12.42.5,1.05.75,1.88.75Z"/>
    </g>
  </g>
</svg>