<?xml version="1.0" encoding="UTF-8"?>
<svg id="Calque_2" data-name="Calque 2" xmlns="http://www.w3.org/2000/svg" viewBox="0 0 45.52 45.52">
  <defs>
    <style>
      .cls-1 {
        fill: #f5f5f5;
      }
    </style>
  </defs>
  <g id="Calque_1-2" data-name="Calque 1">
    <g>
      <g>
        <polygon class="cls-1" points="45.52 45.52 32.52 45.52 32.52 44.52 44.52 44.52 44.52 32.52 45.52 32.52 45.52 45.52"/>
        <polygon class="cls-1" points="13 45.52 0 45.52 0 32.52 1 32.52 1 44.52 13 44.52 13 45.52"/>
        <polygon class="cls-1" points="1 13 0 13 0 0 13 0 13 1 1 1 1 13"/>
        <polygon class="cls-1" points="45.52 13 44.52 13 44.52 1 32.52 1 32.52 0 45.52 0 45.52 13"/>
      </g>
      <g>
        <rect class="cls-1" x="22.26" y="14.05" width="1" height="17.42"/>
        <rect class="cls-1" x="14.05" y="22.26" width="17.42" height="1"/>
      </g>
    </g>
  </g>
</svg>