<?xml version="1.0" encoding="UTF-8"?>
<svg id="Calque_2" data-name="Calque 2" xmlns="http://www.w3.org/2000/svg" xmlns:xlink="http://www.w3.org/1999/xlink" viewBox="0 0 133.61 25.16">
  <defs>
    <style>
      .cls-1, .cls-2 {
        fill: none;
      }

      .cls-3 {
        fill: url(#_50_10_lpp_2);
      }

      .cls-2 {
        stroke: #db3c27;
        stroke-width: 3.6px;
      }
    </style>
    <pattern id="_50_10_lpp_2" data-name="50 % 10 lpp 2" x="0" y="0" width="72" height="72" patternTransform="translate(629.21 -14810.09) rotate(-44.42) scale(25.13 3.11) skewX(12.71)" patternUnits="userSpaceOnUse" viewBox="0 0 72 72">
      <g>
        <rect class="cls-1" width="72" height="72"/>
        <g>
          <line class="cls-2" x1="71.75" y1="68.4" x2="144.25" y2="68.4"/>
          <line class="cls-2" x1="71.75" y1="54" x2="144.25" y2="54"/>
          <line class="cls-2" x1="71.75" y1="39.6" x2="144.25" y2="39.6"/>
          <line class="cls-2" x1="71.75" y1="25.2" x2="144.25" y2="25.2"/>
          <line class="cls-2" x1="71.75" y1="10.8" x2="144.25" y2="10.8"/>
          <line class="cls-2" x1="71.75" y1="61.2" x2="144.25" y2="61.2"/>
          <line class="cls-2" x1="71.75" y1="46.8" x2="144.25" y2="46.8"/>
          <line class="cls-2" x1="71.75" y1="32.4" x2="144.25" y2="32.4"/>
          <line class="cls-2" x1="71.75" y1="18" x2="144.25" y2="18"/>
          <line class="cls-2" x1="71.75" y1="3.6" x2="144.25" y2="3.6"/>
        </g>
        <g>
          <line class="cls-2" x1="-.25" y1="68.4" x2="72.25" y2="68.4"/>
          <line class="cls-2" x1="-.25" y1="54" x2="72.25" y2="54"/>
          <line class="cls-2" x1="-.25" y1="39.6" x2="72.25" y2="39.6"/>
          <line class="cls-2" x1="-.25" y1="25.2" x2="72.25" y2="25.2"/>
          <line class="cls-2" x1="-.25" y1="10.8" x2="72.25" y2="10.8"/>
          <line class="cls-2" x1="-.25" y1="61.2" x2="72.25" y2="61.2"/>
          <line class="cls-2" x1="-.25" y1="46.8" x2="72.25" y2="46.8"/>
          <line class="cls-2" x1="-.25" y1="32.4" x2="72.25" y2="32.4"/>
          <line class="cls-2" x1="-.25" y1="18" x2="72.25" y2="18"/>
          <line class="cls-2" x1="-.25" y1="3.6" x2="72.25" y2="3.6"/>
        </g>
        <g>
          <line class="cls-2" x1="-72.25" y1="68.4" x2=".25" y2="68.4"/>
          <line class="cls-2" x1="-72.25" y1="54" x2=".25" y2="54"/>
          <line class="cls-2" x1="-72.25" y1="39.6" x2=".25" y2="39.6"/>
          <line class="cls-2" x1="-72.25" y1="25.2" x2=".25" y2="25.2"/>
          <line class="cls-2" x1="-72.25" y1="10.8" x2=".25" y2="10.8"/>
          <line class="cls-2" x1="-72.25" y1="61.2" x2=".25" y2="61.2"/>
          <line class="cls-2" x1="-72.25" y1="46.8" x2=".25" y2="46.8"/>
          <line class="cls-2" x1="-72.25" y1="32.4" x2=".25" y2="32.4"/>
          <line class="cls-2" x1="-72.25" y1="18" x2=".25" y2="18"/>
          <line class="cls-2" x1="-72.25" y1="3.6" x2=".25" y2="3.6"/>
        </g>
      </g>
    </pattern>
  </defs>
  <g id="Calque_1-2" data-name="Calque 1">
    <rect class="cls-3" width="133.61" height="25.16"/>
  </g>
</svg>