<?xml version="1.0" encoding="UTF-8"?>
<svg id="Calque_2" data-name="Calque 2" xmlns="http://www.w3.org/2000/svg" viewBox="0 0 30.71 130.1">
  <defs>
    <style>
      .cls-1 {
        fill: #db3c27;
      }
    </style>
  </defs>
  <g id="Calque_1-2" data-name="Calque 1">
    <g>
      <path class="cls-1" d="M.58,8.4V0h1.3v8.4H.58Z"/>
      <path class="cls-1" d="M3.5,8.4V0h2.5l2.28,7.54h.19V0h1.28v8.4h-2.5L4.98.85h-.19v7.55h-1.28Z"/>
      <path class="cls-1" d="M11.36,10.1v-1.12h5.74v1.12h-5.74Z"/>
      <path class="cls-1" d="M3.73,28.57c-1.03,0-1.85-.29-2.46-.87-.61-.58-.91-1.42-.91-2.51v-1.97c0-1.1.3-1.93.91-2.51.61-.58,1.43-.87,2.46-.87s1.85.29,2.47.87.92,1.42.92,2.51v1.97c0,1.1-.31,1.93-.92,2.51s-1.43.87-2.47.87ZM3.73,27.4c.66,0,1.18-.19,1.54-.58.36-.39.54-.92.54-1.59v-2.06c0-.67-.18-1.2-.54-1.59-.36-.39-.87-.58-1.54-.58s-1.16.19-1.52.58c-.37.39-.55.92-.55,1.59v2.06c0,.67.18,1.2.55,1.59.37.39.88.58,1.52.58Z"/>
      <path class="cls-1" d="M11.68,28.57c-.66,0-1.23-.12-1.71-.36-.48-.24-.84-.59-1.1-1.04-.26-.45-.39-1-.39-1.65v-5.52h1.31v5.56c0,.59.16,1.05.49,1.37.33.32.8.48,1.4.48s1.08-.16,1.4-.48c.33-.32.49-.78.49-1.37v-5.56h1.3v5.52c0,.65-.13,1.2-.38,1.65-.26.45-.62.8-1.1,1.04-.48.24-1.05.36-1.7.36Z"/>
      <path class="cls-1" d="M18.44,28.4v-7.22h-2.58v-1.18h6.46v1.18h-2.58v7.22h-1.3Z"/>
      <path class="cls-1" d="M23.35,30.1v-1.12h5.74v1.12h-5.74Z"/>
      <path class="cls-1" d="M2.58,48.4v-7.22H0v-1.18h6.46v1.18h-2.58v7.22h-1.3Z"/>
      <path class="cls-1" d="M7.51,48.4v-8.4h2.44l1.84,7.54h.19l1.84-7.54h2.44v8.4h-1.26v-7.49h-.19l-1.82,7.49h-2.18l-1.82-7.49h-.19v7.49h-1.26Z"/>
      <path class="cls-1" d="M17.88,48.4v-8.4h3.34c.51,0,.97.1,1.37.31s.72.49.95.86c.23.37.34.82.34,1.34v.16c0,.52-.12.97-.35,1.34-.24.38-.55.66-.95.86-.4.2-.85.3-1.36.3h-2.04v3.23h-1.3ZM19.18,44h1.91c.46,0,.82-.12,1.09-.36.27-.24.41-.57.41-.98v-.12c0-.42-.14-.76-.41-1-.27-.24-.64-.36-1.09-.36h-1.91v2.82Z"/>
      <path class="cls-1" d="M24.97,50.1v-1.12h5.74v1.12h-5.74Z"/>
      <path class="cls-1" d="M.58,68.4v-8.4h1.3v7.22h4.04v1.18H.58Z"/>
      <path class="cls-1" d="M9.88,68.57c-1.03,0-1.85-.29-2.46-.87-.61-.58-.91-1.42-.91-2.51v-1.97c0-1.1.3-1.93.91-2.51.61-.58,1.43-.87,2.46-.87s1.85.29,2.47.87.92,1.42.92,2.51v1.97c0,1.1-.31,1.93-.92,2.51s-1.43.87-2.47.87ZM9.88,67.4c.66,0,1.18-.19,1.54-.58.36-.39.54-.92.54-1.59v-2.06c0-.67-.18-1.2-.54-1.59-.36-.39-.87-.58-1.54-.58s-1.16.19-1.52.58c-.37.39-.55.92-.55,1.59v2.06c0,.67.18,1.2.55,1.59.37.39.88.58,1.52.58Z"/>
      <path class="cls-1" d="M17.59,68.57c-.6,0-1.14-.13-1.61-.39-.47-.26-.84-.64-1.12-1.15-.27-.5-.41-1.12-.41-1.85v-1.97c0-1.1.3-1.93.9-2.51.6-.58,1.41-.87,2.44-.87s1.78.27,2.33.82.82,1.28.82,2.2v.06h-1.28v-.1c0-.34-.07-.65-.2-.93-.14-.28-.34-.49-.61-.65-.27-.16-.62-.24-1.04-.24-.64,0-1.14.19-1.5.58-.36.39-.54.93-.54,1.61v2.02c0,.68.18,1.22.54,1.61.36.4.86.59,1.51.59s1.11-.18,1.4-.53c.3-.35.44-.81.44-1.37v-.16h-2.26v-1.12h3.54v4.15h-1.2v-.85h-.19c-.07.15-.18.31-.32.47-.14.16-.34.29-.6.4-.26.1-.61.16-1.04.16Z"/>
      <path class="cls-1" d="M22.46,70.1v-1.12h5.74v1.12h-5.74Z"/>
      <path class="cls-1" d="M3.7,88.57c-1.02,0-1.84-.29-2.44-.87-.6-.58-.9-1.42-.9-2.51v-1.97c0-1.1.3-1.93.9-2.51.6-.58,1.41-.87,2.44-.87s1.79.28,2.33.84c.55.56.82,1.32.82,2.29v.07h-1.28v-.11c0-.57-.15-1.03-.46-1.39-.31-.36-.78-.54-1.41-.54s-1.14.19-1.5.58c-.36.39-.54.93-.54,1.61v2.02c0,.68.18,1.22.54,1.61s.86.59,1.5.59,1.1-.18,1.41-.55c.31-.36.46-.83.46-1.39v-.2h1.28v.17c0,.97-.27,1.73-.82,2.29s-1.33.84-2.33.84Z"/>
      <path class="cls-1" d="M8.17,88.4v-8.4h5.18v1.18h-3.89v2.42h3.58v1.18h-3.58v3.62h-1.3Z"/>
      <path class="cls-1" d="M17.33,88.57c-.6,0-1.14-.13-1.61-.39-.47-.26-.84-.64-1.12-1.15-.27-.5-.41-1.12-.41-1.85v-1.97c0-1.1.3-1.93.9-2.51.6-.58,1.41-.87,2.44-.87s1.78.27,2.33.82.82,1.28.82,2.2v.06h-1.28v-.1c0-.34-.07-.65-.2-.93-.14-.28-.34-.49-.61-.65-.27-.16-.62-.24-1.04-.24-.64,0-1.14.19-1.5.58-.36.39-.54.93-.54,1.61v2.02c0,.68.18,1.22.54,1.61.36.4.86.59,1.51.59s1.11-.18,1.4-.53c.3-.35.44-.81.44-1.37v-.16h-2.26v-1.12h3.54v4.15h-1.2v-.85h-.19c-.07.15-.18.31-.32.47-.14.16-.34.29-.6.4-.26.1-.61.16-1.04.16Z"/>
      <path class="cls-1" d="M22.2,90.1v-1.12h5.74v1.12h-5.74Z"/>
      <path class="cls-1" d="M.58,108.4v-8.4h3.53c.52,0,.98.09,1.37.27.4.18.7.44.92.77.22.34.33.74.33,1.2v.13c0,.53-.13.95-.38,1.27s-.56.54-.92.67v.19c.3.02.55.12.73.31.18.19.28.46.28.81v2.78h-1.31v-2.6c0-.22-.06-.39-.17-.52-.11-.13-.29-.19-.54-.19H1.87v3.31H.58ZM1.87,103.91h2.09c.46,0,.82-.12,1.08-.35s.38-.56.38-.97v-.1c0-.41-.13-.73-.38-.97-.25-.24-.61-.35-1.09-.35H1.87v2.74Z"/>
      <path class="cls-1" d="M8.04,108.4v-8.4h5.29v1.18h-4v2.41h3.66v1.18h-3.66v2.46h4.06v1.18h-5.35Z"/>
      <path class="cls-1" d="M17.48,108.57c-.63,0-1.19-.11-1.68-.34s-.87-.55-1.15-.99c-.28-.44-.41-.97-.41-1.59v-.3h1.28v.3c0,.59.18,1.04.53,1.33.36.3.83.44,1.42.44s1.05-.13,1.36-.38.46-.58.46-.98c0-.26-.07-.48-.22-.65-.14-.17-.35-.3-.61-.4-.26-.1-.58-.19-.95-.28l-.44-.11c-.54-.13-1-.29-1.4-.47-.4-.19-.7-.44-.92-.75-.22-.31-.32-.71-.32-1.2s.12-.92.37-1.27c.24-.35.58-.62,1.01-.82.43-.19.94-.29,1.52-.29s1.11.1,1.57.3c.46.2.82.5,1.09.89.26.39.4.88.4,1.48v.43h-1.28v-.43c0-.36-.07-.65-.22-.88-.15-.22-.35-.39-.62-.49-.26-.1-.57-.16-.92-.16-.51,0-.91.11-1.19.32-.28.21-.43.51-.43.88,0,.26.06.47.19.63s.31.3.55.4c.24.1.54.2.9.28l.44.11c.54.12,1.02.27,1.44.46.42.19.74.44.98.76s.36.73.36,1.24-.13.94-.38,1.32-.61.67-1.07.88-1.01.32-1.64.32Z"/>
      <path class="cls-1" d="M21.79,110.1v-1.12h5.74v1.12h-5.74Z"/>
      <path class="cls-1" d="M.58,128.4v-8.4h5.29v1.18H1.87v2.41h3.66v1.18H1.87v2.46h4.06v1.18H.58Z"/>
      <path class="cls-1" d="M7.16,128.4v-8.4h2.5l2.28,7.54h.19v-7.54h1.28v8.4h-2.5l-2.28-7.55h-.19v7.55h-1.28Z"/>
      <path class="cls-1" d="M14.74,128.4v-1.15h1.13v-6.1h-1.13v-1.15h3.36c1.12,0,1.98.28,2.57.85s.89,1.42.89,2.57v1.57c0,1.14-.3,2-.89,2.56-.6.56-1.45.85-2.57.85h-3.36ZM17.17,127.22h.94c.73,0,1.27-.18,1.62-.55.35-.37.53-.92.53-1.64v-1.66c0-.74-.18-1.28-.53-1.64-.35-.36-.89-.54-1.62-.54h-.94v6.04Z"/>
      <path class="cls-1" d="M22.88,130.1v-1.12h5.74v1.12h-5.74Z"/>
    </g>
  </g>
</svg>