<?xml version="1.0" encoding="UTF-8"?>
<svg id="Calque_2" data-name="Calque 2" xmlns="http://www.w3.org/2000/svg" viewBox="0 0 65 65">
  <defs>
    <style>
      .cls-1 {
        fill: #db3c27;
      }

      .cls-2 {
        fill: #f5f5f5;
      }
    </style>
  </defs>
  <g id="Calque_1-2" data-name="Calque 1">
    <g>
      <g>
        <path d="M14.1,32.12c-1.03,0-1.85-.29-2.46-.87-.61-.58-.91-1.42-.91-2.51v-1.97c0-1.1.3-1.93.91-2.51.61-.58,1.43-.87,2.46-.87s1.85.29,2.47.87.92,1.42.92,2.51v1.97c0,1.1-.31,1.93-.92,2.51s-1.43.87-2.47.87ZM14.1,30.96c.66,0,1.18-.19,1.54-.58.36-.39.54-.92.54-1.59v-2.06c0-.67-.18-1.2-.54-1.59-.36-.39-.87-.58-1.54-.58s-1.16.19-1.52.58c-.37.39-.55.92-.55,1.59v2.06c0,.67.18,1.2.55,1.59.37.39.88.58,1.52.58Z"/>
        <path d="M19.92,31.96v-8.4h2.5l2.28,7.54h.19v-7.54h1.28v8.4h-2.5l-2.28-7.55h-.19v7.55h-1.28Z"/>
        <path d="M28.82,31.96v-8.4h1.3v7.22h4.04v1.18h-5.34Z"/>
        <path d="M36.25,31.96v-8.4h1.3v8.4h-1.3Z"/>
        <path d="M40.2,31.96v-8.4h2.5l2.28,7.54h.19v-7.54h1.28v8.4h-2.5l-2.28-7.55h-.19v7.55h-1.28Z"/>
        <path d="M49.1,31.96v-8.4h5.29v1.18h-4v2.41h3.66v1.18h-3.66v2.46h4.06v1.18h-5.35Z"/>
        <path d="M30.73,49.45v-1.13h3.55v1.13h-3.55Z"/>
      </g>
      <circle class="cls-1" cx="32.5" cy="32.5" r="32.5"/>
      <g>
        <path class="cls-2" d="M14.1,32.12c-1.03,0-1.85-.29-2.46-.87-.61-.58-.91-1.42-.91-2.51v-1.97c0-1.1.3-1.93.91-2.51.61-.58,1.43-.87,2.46-.87s1.85.29,2.47.87.92,1.42.92,2.51v1.97c0,1.1-.31,1.93-.92,2.51s-1.43.87-2.47.87ZM14.1,30.96c.66,0,1.18-.19,1.54-.58.36-.39.54-.92.54-1.59v-2.06c0-.67-.18-1.2-.54-1.59-.36-.39-.87-.58-1.54-.58s-1.16.19-1.52.58c-.37.39-.55.92-.55,1.59v2.06c0,.67.18,1.2.55,1.59.37.39.88.58,1.52.58Z"/>
        <path class="cls-2" d="M19.92,31.96v-8.4h2.5l2.28,7.54h.19v-7.54h1.28v8.4h-2.5l-2.28-7.55h-.19v7.55h-1.28Z"/>
        <path class="cls-2" d="M28.82,31.96v-8.4h1.3v7.22h4.04v1.18h-5.34Z"/>
        <path class="cls-2" d="M36.25,31.96v-8.4h1.3v8.4h-1.3Z"/>
        <path class="cls-2" d="M40.2,31.96v-8.4h2.5l2.28,7.54h.19v-7.54h1.28v8.4h-2.5l-2.28-7.55h-.19v7.55h-1.28Z"/>
        <path class="cls-2" d="M49.1,31.96v-8.4h5.29v1.18h-4v2.41h3.66v1.18h-3.66v2.46h4.06v1.18h-5.35Z"/>
        <path class="cls-2" d="M30.73,49.45v-1.13h3.55v1.13h-3.55Z"/>
      </g>
    </g>
  </g>
</svg>