<?xml version="1.0" encoding="UTF-8"?>
<svg id="Calque_2" data-name="Calque 2" xmlns="http://www.w3.org/2000/svg" viewBox="0 0 65 65">
  <defs>
    <style>
      .cls-1 {
        fill: #db3c27;
      }

      .cls-2 {
        fill: #f5f5f5;
      }
    </style>
  </defs>
  <g id="Calque_1-2" data-name="Calque 1">
    <g>
      <g>
        <path d="M19.79,32.12c-.63,0-1.19-.11-1.68-.34s-.87-.55-1.15-.99c-.28-.44-.41-.97-.41-1.59v-.3h1.28v.3c0,.59.18,1.04.53,1.33.36.3.83.44,1.42.44s1.05-.13,1.36-.38.46-.58.46-.98c0-.26-.07-.48-.22-.65-.14-.17-.35-.3-.61-.4-.26-.1-.58-.19-.95-.28l-.44-.11c-.54-.13-1-.29-1.4-.47-.4-.19-.7-.44-.92-.75-.22-.31-.32-.71-.32-1.2s.12-.92.37-1.27c.24-.35.58-.62,1.01-.82.43-.19.94-.29,1.52-.29s1.11.1,1.57.3c.46.2.82.5,1.09.89.26.39.4.88.4,1.48v.43h-1.28v-.43c0-.36-.07-.65-.22-.88-.15-.22-.35-.39-.62-.49-.26-.1-.57-.16-.92-.16-.51,0-.91.11-1.19.32-.28.21-.43.51-.43.88,0,.26.06.47.19.63s.31.3.55.4c.24.1.54.2.9.28l.44.11c.54.12,1.02.27,1.44.46.42.19.74.44.98.76s.36.73.36,1.24-.13.94-.38,1.32-.61.67-1.07.88-1.01.32-1.64.32Z"/>
        <path d="M27.06,31.96v-3.05l-2.92-5.35h1.46l2.02,3.8h.18l2.02-3.8h1.46l-2.92,5.35v3.05h-1.31Z"/>
        <path d="M33.2,31.96v-8.4h2.5l2.28,7.54h.19v-7.54h1.28v8.4h-2.5l-2.28-7.55h-.19v7.55h-1.28Z"/>
        <path d="M45.22,32.12c-1.02,0-1.84-.29-2.44-.87-.6-.58-.9-1.42-.9-2.51v-1.97c0-1.1.3-1.93.9-2.51.6-.58,1.41-.87,2.44-.87s1.79.28,2.33.84c.55.56.82,1.32.82,2.29v.07h-1.28v-.11c0-.57-.15-1.03-.46-1.39-.31-.36-.78-.54-1.41-.54s-1.14.19-1.5.58c-.36.39-.54.93-.54,1.61v2.02c0,.68.18,1.22.54,1.61s.86.59,1.5.59,1.1-.18,1.41-.55c.31-.36.46-.83.46-1.39v-.2h1.28v.17c0,.97-.27,1.73-.82,2.29s-1.33.84-2.33.84Z"/>
        <path d="M30.73,49.45v-1.13h3.55v1.13h-3.55Z"/>
      </g>
      <circle class="cls-1" cx="32.5" cy="32.5" r="32.5"/>
      <g>
        <path class="cls-2" d="M19.79,32.12c-.63,0-1.19-.11-1.68-.34s-.87-.55-1.15-.99c-.28-.44-.41-.97-.41-1.59v-.3h1.28v.3c0,.59.18,1.04.53,1.33.36.3.83.44,1.42.44s1.05-.13,1.36-.38.46-.58.46-.98c0-.26-.07-.48-.22-.65-.14-.17-.35-.3-.61-.4-.26-.1-.58-.19-.95-.28l-.44-.11c-.54-.13-1-.29-1.4-.47-.4-.19-.7-.44-.92-.75-.22-.31-.32-.71-.32-1.2s.12-.92.37-1.27c.24-.35.58-.62,1.01-.82.43-.19.94-.29,1.52-.29s1.11.1,1.57.3c.46.2.82.5,1.09.89.26.39.4.88.4,1.48v.43h-1.28v-.43c0-.36-.07-.65-.22-.88-.15-.22-.35-.39-.62-.49-.26-.1-.57-.16-.92-.16-.51,0-.91.11-1.19.32-.28.21-.43.51-.43.88,0,.26.06.47.19.63s.31.3.55.4c.24.1.54.2.9.28l.44.11c.54.12,1.02.27,1.44.46.42.19.74.44.98.76s.36.73.36,1.24-.13.94-.38,1.32-.61.67-1.07.88-1.01.32-1.64.32Z"/>
        <path class="cls-2" d="M27.06,31.96v-3.05l-2.92-5.35h1.46l2.02,3.8h.18l2.02-3.8h1.46l-2.92,5.35v3.05h-1.31Z"/>
        <path class="cls-2" d="M33.2,31.96v-8.4h2.5l2.28,7.54h.19v-7.54h1.28v8.4h-2.5l-2.28-7.55h-.19v7.55h-1.28Z"/>
        <path class="cls-2" d="M45.22,32.12c-1.02,0-1.84-.29-2.44-.87-.6-.58-.9-1.42-.9-2.51v-1.97c0-1.1.3-1.93.9-2.51.6-.58,1.41-.87,2.44-.87s1.79.28,2.33.84c.55.56.82,1.32.82,2.29v.07h-1.28v-.11c0-.57-.15-1.03-.46-1.39-.31-.36-.78-.54-1.41-.54s-1.14.19-1.5.58c-.36.39-.54.93-.54,1.61v2.02c0,.68.18,1.22.54,1.61s.86.59,1.5.59,1.1-.18,1.41-.55c.31-.36.46-.83.46-1.39v-.2h1.28v.17c0,.97-.27,1.73-.82,2.29s-1.33.84-2.33.84Z"/>
        <path class="cls-2" d="M30.73,49.45v-1.13h3.55v1.13h-3.55Z"/>
      </g>
    </g>
  </g>
</svg>