<?xml version="1.0" encoding="UTF-8"?>
<svg id="Calque_2" data-name="Calque 2" xmlns="http://www.w3.org/2000/svg" viewBox="0 0 65 65">
  <defs>
    <style>
      .cls-1 {
        fill: #db3c27;
      }

      .cls-2 {
        fill: #f5f5f5;
      }
    </style>
  </defs>
  <g id="Calque_1-2" data-name="Calque 1">
    <g>
      <g>
        <path d="M10.87,31.96l2.4-8.4h2.28l2.39,8.4h-1.33l-.55-1.98h-3.29l-.55,1.98h-1.34ZM13.09,28.78h2.64l-1.22-4.42h-.19l-1.22,4.42Z"/>
        <path d="M23,32.12c-1.02,0-1.84-.29-2.44-.87-.6-.58-.9-1.42-.9-2.51v-1.97c0-1.1.3-1.93.9-2.51.6-.58,1.41-.87,2.44-.87s1.79.28,2.33.84c.55.56.82,1.32.82,2.29v.07h-1.28v-.11c0-.57-.15-1.03-.46-1.39-.31-.36-.78-.54-1.41-.54s-1.14.19-1.5.58c-.36.39-.54.93-.54,1.61v2.02c0,.68.18,1.22.54,1.61s.86.59,1.5.59,1.1-.18,1.41-.55c.31-.36.46-.83.46-1.39v-.2h1.28v.17c0,.97-.27,1.73-.82,2.29s-1.33.84-2.33.84Z"/>
        <path d="M30.32,31.96v-7.22h-2.58v-1.18h6.46v1.18h-2.58v7.22h-1.3Z"/>
        <path d="M36.27,31.96v-8.4h1.3v8.4h-1.3Z"/>
        <path d="M41.94,31.96l-2.34-8.4h1.34l2.04,7.58h.16l2.03-7.58h1.34l-2.33,8.4h-2.24Z"/>
        <path d="M48.55,31.96v-8.4h5.29v1.18h-4v2.41h3.66v1.18h-3.66v2.46h4.06v1.18h-5.35Z"/>
        <path d="M30.73,49.45v-1.13h3.55v1.13h-3.55Z"/>
      </g>
      <circle class="cls-1" cx="32.5" cy="32.5" r="32.5"/>
      <g>
        <path class="cls-2" d="M10.87,31.96l2.4-8.4h2.28l2.39,8.4h-1.33l-.55-1.98h-3.29l-.55,1.98h-1.34ZM13.09,28.78h2.64l-1.22-4.42h-.19l-1.22,4.42Z"/>
        <path class="cls-2" d="M23,32.12c-1.02,0-1.84-.29-2.44-.87-.6-.58-.9-1.42-.9-2.51v-1.97c0-1.1.3-1.93.9-2.51.6-.58,1.41-.87,2.44-.87s1.79.28,2.33.84c.55.56.82,1.32.82,2.29v.07h-1.28v-.11c0-.57-.15-1.03-.46-1.39-.31-.36-.78-.54-1.41-.54s-1.14.19-1.5.58c-.36.39-.54.93-.54,1.61v2.02c0,.68.18,1.22.54,1.61s.86.59,1.5.59,1.1-.18,1.41-.55c.31-.36.46-.83.46-1.39v-.2h1.28v.17c0,.97-.27,1.73-.82,2.29s-1.33.84-2.33.84Z"/>
        <path class="cls-2" d="M30.32,31.96v-7.22h-2.58v-1.18h6.46v1.18h-2.58v7.22h-1.3Z"/>
        <path class="cls-2" d="M36.27,31.96v-8.4h1.3v8.4h-1.3Z"/>
        <path class="cls-2" d="M41.94,31.96l-2.34-8.4h1.34l2.04,7.58h.16l2.03-7.58h1.34l-2.33,8.4h-2.24Z"/>
        <path class="cls-2" d="M48.55,31.96v-8.4h5.29v1.18h-4v2.41h3.66v1.18h-3.66v2.46h4.06v1.18h-5.35Z"/>
        <path class="cls-2" d="M30.73,49.45v-1.13h3.55v1.13h-3.55Z"/>
      </g>
    </g>
  </g>
</svg>