<?xml version="1.0" encoding="UTF-8"?>
<svg id="Calque_2" xmlns="http://www.w3.org/2000/svg" version="1.1" viewBox="0 0 436.9 111.3">
  <!-- Generator: Adobe Illustrator 30.4.0, SVG Export Plug-In . SVG Version: 2.1.4 Build 226)  -->
  <defs>
    <style>
      .st0 {
        fill: #f2f2f2;
      }

      .st1 {
        fill: #db3c27;
      }
    </style>
  </defs>
  <g id="Calque_1-2">
    <g>
      <g>
        <g>
          <path class="st0" d="M114,65.9c-2-1.1-3.6-2.5-4.6-4.4s-1.6-4.1-1.6-6.5v-2c0-.2,0-.4.2-.6.2-.2.3-.2.6-.2h7.8c.2,0,.4,0,.6.2s.2.3.2.6v1.5c0,1.4.4,2.5,1.1,3.4.7.9,1.6,1.3,2.7,1.3s2-.4,2.7-1.2,1.1-1.9,1.1-3.2-.5-2.5-1.4-3.5-2.7-2.4-5.3-4.3c-2.3-1.6-4.1-3.1-5.5-4.4-1.4-1.3-2.6-2.8-3.6-4.7-1-1.9-1.5-4-1.5-6.5,0-3.9,1.2-7,3.6-9.3s5.6-3.5,9.6-3.5,7.2,1.2,9.7,3.6c2.4,2.4,3.6,5.6,3.6,9.5v1.6c0,.2,0,.4-.2.6-.2.2-.4.2-.6.2h-7.8c-.2,0-.4,0-.6-.2s-.2-.3-.2-.6v-1.8c0-1.4-.3-2.5-1.1-3.4s-1.6-1.3-2.8-1.3-2,.4-2.7,1.2c-.7.8-1,1.9-1,3.3s.4,2.6,1.3,3.6c.9,1,2.6,2.5,5.1,4.4,2.8,2.1,5,3.8,6.4,5.1,1.4,1.3,2.6,2.7,3.4,4.3s1.2,3.5,1.2,5.6c0,4-1.2,7.2-3.7,9.6-2.5,2.4-5.7,3.5-9.7,3.5s-5-.5-7-1.6h0Z"/>
          <path class="st0" d="M165.3,19.3c.2.2.2.4.2.6v6.6c0,.2,0,.4-.2.6s-.4.2-.6.2h-8.5c-.2,0-.3.1-.3.3v38.4c0,.2,0,.4-.2.6s-.4.2-.6.2h-8c-.2,0-.4,0-.6-.2-.2-.2-.2-.3-.2-.6V27.7c0-.2-.1-.3-.3-.3h-8.2c-.2,0-.4,0-.6-.2s-.2-.4-.2-.6v-6.6c0-.2,0-.4.2-.6s.4-.2.6-.2h27c.2,0,.4,0,.6.2h0Z"/>
          <path class="st0" d="M172.7,63.6c-2.5-2.6-3.7-6-3.7-10.3V19.9c0-.2,0-.4.2-.6s.4-.2.6-.2h8c.2,0,.4,0,.6.2s.2.4.2.6v34.3c0,1.5.4,2.6,1.1,3.5s1.7,1.4,2.9,1.4,2.1-.5,2.8-1.4c.7-.9,1.1-2.1,1.1-3.5V19.9c0-.2,0-.4.2-.6s.4-.2.6-.2h8c.2,0,.4,0,.6.2s.2.4.2.6v33.4c0,4.3-1.2,7.7-3.7,10.3s-5.8,3.9-9.8,3.9-7.4-1.3-9.9-3.9h0Z"/>
          <path class="st0" d="M200.7,66.7c-.2-.2-.2-.3-.2-.6V19.9c0-.2,0-.4.2-.6s.4-.2.6-.2h12.4c4.1,0,7.5,1.2,10,3.6s3.8,5.6,3.8,9.6v21.3c0,4-1.2,7.2-3.8,9.6-2.5,2.4-5.8,3.6-10,3.6h-12.4c-.2,0-.4,0-.6-.2ZM210.4,58.7h3.1c1.2-.1,2.2-.6,3-1.6.8-1,1.2-2.3,1.2-4v-20.1c0-1.7-.4-3.1-1.2-4.1s-1.8-1.5-3.1-1.5h-3c-.2,0-.3.1-.3.3v30.6c0,.2.1.3.3.3h0Z"/>
          <path class="st0" d="M231.7,66.7c-.2-.2-.2-.3-.2-.6V19.9c0-.2,0-.4.2-.6s.4-.2.6-.2h8c.2,0,.4,0,.6.2s.2.4.2.6v46.2c0,.2,0,.4-.2.6s-.4.2-.6.2h-8c-.2,0-.4,0-.6-.2Z"/>
          <path class="st0" d="M248.9,63.8c-2.5-2.5-3.8-5.7-3.8-9.8v-21.8c0-4.1,1.2-7.4,3.8-9.8,2.5-2.5,5.9-3.7,10-3.7s7.5,1.2,10.1,3.7c2.5,2.5,3.8,5.7,3.8,9.8v21.8c0,4.1-1.3,7.4-3.8,9.8-2.5,2.5-5.9,3.7-10.1,3.7s-7.5-1.2-10-3.7ZM262,57.9c.8-.9,1.2-2.1,1.2-3.5v-22.7c0-1.5-.4-2.6-1.2-3.5-.8-.9-1.8-1.3-3.1-1.3s-2.3.4-3,1.3-1.1,2.1-1.1,3.5v22.7c0,1.5.4,2.6,1.1,3.5.8.9,1.8,1.3,3,1.3s2.3-.4,3.1-1.3Z"/>
          <path class="st0" d="M292,66.7c-.2-.2-.2-.3-.2-.6V19.9c0-.2,0-.4.2-.6s.4-.2.6-.2h12.4c4.1,0,7.5,1.2,10,3.6s3.8,5.6,3.8,9.6v21.3c0,4-1.2,7.2-3.8,9.6-2.5,2.4-5.8,3.6-10,3.6h-12.4c-.2,0-.4,0-.6-.2ZM301.8,58.7h3.1c1.2-.1,2.2-.6,3-1.6.8-1,1.2-2.3,1.2-4v-20.1c0-1.7-.4-3.1-1.2-4.1s-1.8-1.5-3.1-1.5h-3c-.2,0-.3.1-.3.3v30.6c0,.2.1.3.3.3h0Z"/>
          <path class="st0" d="M325.4,63.9c-2.5-2.3-3.7-5.5-3.7-9.3v-4.7c0-.2,0-.4.2-.6.2-.2.4-.2.6-.2h8c.2,0,.4,0,.6.2.2.2.2.3.2.6v4.8c0,1.3.3,2.4,1,3.2s1.6,1.2,2.7,1.2,2.1-.4,2.8-1.2c.7-.8,1.1-1.9,1.1-3.2V19.9c0-.2,0-.4.2-.6s.4-.2.6-.2h8c.2,0,.4,0,.6.2.2.2.2.4.2.6v34.7c0,3.9-1.2,7-3.7,9.3-2.5,2.3-5.8,3.5-9.8,3.5s-7.2-1.2-9.7-3.5h0Z"/>
          <path class="st0" d="M377.9,27.1c-.2.2-.4.2-.6.2h-14.3c-.2,0-.3.1-.3.3v10.8c0,.2.1.3.3.3h8.2c.2,0,.4,0,.6.2.2.2.2.3.2.6v6.6c0,.2,0,.4-.2.6-.2.2-.4.2-.6.2h-8.2c-.2,0-.3.1-.3.3v10.9c0,.2.1.3.3.3h14.3c.2,0,.4,0,.6.2.2.2.2.3.2.6v6.6c0,.2,0,.4-.2.6s-.4.2-.6.2h-23.4c-.2,0-.4,0-.6-.2-.2-.2-.2-.3-.2-.6V19.9c0-.2,0-.4.2-.6s.4-.2.6-.2h23.4c.2,0,.4,0,.6.2.2.2.2.4.2.6v6.6c0,.2,0,.4-.2.6h0Z"/>
          <path class="st0" d="M381.3,66.7c-.2-.2-.2-.3-.2-.6v-6.9c0-.4,0-.7.2-1l14.6-30.4c0-.1,0-.2,0-.3,0,0-.1-.1-.3-.1h-13.7c-.2,0-.4,0-.6-.2-.2-.2-.2-.4-.2-.6v-6.6c0-.2,0-.4.2-.6s.4-.2.6-.2h23.5c.2,0,.4,0,.6.2.2.2.2.4.2.6v6.9c0,.3,0,.7-.2,1l-14.6,30.4c0,.1,0,.2,0,.3,0,0,.1,0,.3,0h13.7c.2,0,.4,0,.6.2.2.2.2.3.2.6v6.6c0,.2,0,.4-.2.6s-.4.2-.6.2h-23.5c-.2,0-.4,0-.6-.2Z"/>
          <path class="st0" d="M413,63.8c-2.5-2.5-3.8-5.7-3.8-9.8v-21.8c0-4.1,1.2-7.4,3.8-9.8,2.5-2.5,5.9-3.7,10-3.7s7.5,1.2,10.1,3.7c2.5,2.5,3.8,5.7,3.8,9.8v21.8c0,4.1-1.3,7.4-3.8,9.8-2.5,2.5-5.9,3.7-10.1,3.7s-7.5-1.2-10-3.7ZM426.1,57.9c.8-.9,1.2-2.1,1.2-3.5v-22.7c0-1.5-.4-2.6-1.2-3.5-.8-.9-1.8-1.3-3.1-1.3s-2.3.4-3,1.3-1.1,2.1-1.1,3.5v22.7c0,1.5.4,2.6,1.1,3.5s1.8,1.3,3,1.3,2.3-.4,3.1-1.3Z"/>
        </g>
        <g>
          <path class="st0" d="M113.1,92.8c-1.7,0-3-.5-4-1.5-1-1-1.5-2.4-1.5-4.3v-3.2c0-1.9.5-3.4,1.5-4.3s2.3-1.5,4-1.5,2.9.5,3.8,1.4,1.3,2.2,1.3,3.8h0c0,0-1.3,0-1.3,0h0c0-1.3-.3-2.3-.9-3-.6-.7-1.6-1.1-2.9-1.1s-2.4.4-3.1,1.2-1.1,1.9-1.1,3.4v3.3c0,1.5.4,2.6,1.1,3.4.7.8,1.8,1.2,3.1,1.2s2.3-.4,2.9-1.1c.6-.7.9-1.7.9-2.9v-.3h1.3v.3c0,1.6-.4,2.9-1.3,3.8s-2.2,1.4-3.8,1.4h0Z"/>
          <path class="st0" d="M127.2,92.8c-1.7,0-3-.5-4-1.5-1-1-1.5-2.4-1.5-4.3v-3.2c0-1.9.5-3.4,1.5-4.3,1-1,2.3-1.5,4-1.5s3,.5,4,1.5c1,1,1.5,2.4,1.5,4.3v3.2c0,1.9-.5,3.4-1.5,4.3-1,1-2.3,1.5-4,1.5ZM127.2,91.6c1.3,0,2.4-.4,3.1-1.2.7-.8,1.1-1.9,1.1-3.4v-3.3c0-1.5-.4-2.6-1.1-3.4-.7-.8-1.8-1.2-3.1-1.2s-2.3.4-3.1,1.2-1.1,1.9-1.1,3.4v3.3c0,1.5.4,2.6,1.1,3.4.7.8,1.8,1.2,3.1,1.2Z"/>
          <path class="st0" d="M136.6,92.5v-14.3h2.6l4.3,13.6h.2l4.3-13.6h2.6v14.3h-1.3v-13.6h-.2l-4.3,13.6h-2.3l-4.3-13.6h-.2v13.6h-1.3,0Z"/>
          <path class="st0" d="M155,92.5v-14.3h2.6l4.3,13.6h.2l4.3-13.6h2.6v14.3h-1.3v-13.6h-.2l-4.3,13.6h-2.3l-4.3-13.6h-.2v13.6h-1.3,0Z"/>
          <path class="st0" d="M178.4,92.8c-1,0-1.9-.2-2.7-.5s-1.4-.9-1.8-1.7-.6-1.7-.6-2.8v-9.6h1.3v9.6c0,1.3.3,2.2,1,2.9.7.6,1.6.9,2.8.9s2.2-.3,2.8-.9c.7-.6,1-1.6,1-2.9v-9.6h1.3v9.6c0,1.1-.2,2.1-.6,2.8-.4.7-1,1.3-1.8,1.7s-1.7.5-2.7.5Z"/>
          <path class="st0" d="M187.7,92.5v-14.3h2.6l5.9,13.6h.2v-13.6h1.3v14.3h-2.6l-5.9-13.6h-.2v13.6h-1.3Z"/>
          <path class="st0" d="M202,92.5v-14.3h1.3v14.3h-1.3Z"/>
          <path class="st0" d="M212.8,92.8c-1.7,0-3-.5-4-1.5-1-1-1.5-2.4-1.5-4.3v-3.2c0-1.9.5-3.4,1.5-4.3s2.3-1.5,4-1.5,2.9.5,3.8,1.4,1.3,2.2,1.3,3.8h0c0,0-1.3,0-1.3,0h0c0-1.3-.3-2.3-.9-3-.6-.7-1.6-1.1-2.9-1.1s-2.4.4-3.1,1.2-1.1,1.9-1.1,3.4v3.3c0,1.5.4,2.6,1.1,3.4.7.8,1.8,1.2,3.1,1.2s2.3-.4,2.9-1.1c.6-.7.9-1.7.9-2.9v-.3h1.3v.3c0,1.6-.4,2.9-1.3,3.8s-2.1,1.4-3.8,1.4h0Z"/>
          <path class="st0" d="M220.5,92.5l4.7-14.3h2.3l4.7,14.3h-1.4l-1.2-3.8h-6.5l-1.2,3.8h-1.4ZM223.5,87.5h5.8l-2.8-8.6h-.2l-2.8,8.6h0Z"/>
          <path class="st0" d="M237.7,92.5v-13.1h-4.8v-1.2h10.9v1.2h-4.8v13.1h-1.3Z"/>
          <path class="st0" d="M247.2,92.5v-14.3h1.3v14.3h-1.3Z"/>
          <path class="st0" d="M258,92.8c-1.7,0-3-.5-4-1.5-1-1-1.5-2.4-1.5-4.3v-3.2c0-1.9.5-3.4,1.5-4.3,1-1,2.3-1.5,4-1.5s3,.5,4,1.5c1,1,1.5,2.4,1.5,4.3v3.2c0,1.9-.5,3.4-1.5,4.3-1,1-2.3,1.5-4,1.5ZM258,91.6c1.3,0,2.4-.4,3.1-1.2.7-.8,1.1-1.9,1.1-3.4v-3.3c0-1.5-.4-2.6-1.1-3.4-.7-.8-1.8-1.2-3.1-1.2s-2.4.4-3.1,1.2c-.7.8-1.1,1.9-1.1,3.4v3.3c0,1.5.4,2.6,1.1,3.4.7.8,1.8,1.2,3.1,1.2Z"/>
          <path class="st0" d="M267.4,92.5v-14.3h2.6l5.9,13.6h.2v-13.6h1.3v14.3h-2.6l-5.9-13.6h-.2v13.6h-1.3Z"/>
          <path class="st1" d="M288.3,92.5v-14.3h5.6c.9,0,1.7.2,2.3.4.7.3,1.2.7,1.6,1.3s.6,1.2.6,2.1v.2c0,1-.2,1.7-.7,2.3s-1,.9-1.6,1.1v.2c.5,0,.9.2,1.2.4.3.3.5.7.5,1.4v4.9h-1.3v-4.7c0-.4-.1-.8-.4-1s-.6-.3-1.1-.3h-5.4v6.1h-1.3,0ZM289.6,85.2h4.2c1.1,0,1.9-.2,2.5-.8s.9-1.2.9-2.1h0c0-1-.3-1.7-.9-2.2s-1.4-.8-2.5-.8h-4.2v5.9h0Z"/>
          <path class="st1" d="M302.1,92.5v-14.3h8.7v1.2h-7.4v5.4h6.8v1.2h-6.8v5.4h7.4v1.2h-8.7ZM305.6,77l1.4-2.4h1.6l-1.7,2.4h-1.3Z"/>
          <path class="st1" d="M318.7,92.5v-13.1h-4.8v-1.2h10.9v1.2h-4.8v13.1h-1.3Z"/>
          <path class="st1" d="M325.5,92.5l4.7-14.3h2.3l4.7,14.3h-1.4l-1.2-3.8h-6.5l-1.2,3.8h-1.4,0ZM328.4,87.5h5.8l-2.8-8.6h-.2l-2.8,8.6h0Z"/>
          <path class="st1" d="M340.2,92.5v-1.2h2v-11.9h-2v-1.2h7.1c.8,0,1.5.2,2.2.4s1.1.7,1.5,1.3.5,1.2.5,1.9v.2c0,.7-.1,1.2-.4,1.7s-.6.8-.9,1c-.4.2-.7.4-1.1.5v.2c.4,0,.7.2,1.1.5s.7.6.9,1,.4,1,.4,1.7v.2c0,.8-.2,1.4-.6,2-.4.6-.9,1-1.5,1.3-.6.3-1.4.4-2.2.4h-7ZM343.5,84.7h3.6c.9,0,1.7-.2,2.2-.7s.8-1.1.8-1.8v-.2c0-.8-.3-1.4-.8-1.8s-1.3-.7-2.2-.7h-3.6s0,5.3,0,5.3ZM343.5,91.3h3.6c1,0,1.8-.2,2.3-.7.5-.5.8-1.1.8-1.9v-.2c0-.8-.3-1.4-.8-1.9-.5-.5-1.3-.7-2.3-.7h-3.6v5.4Z"/>
          <path class="st1" d="M355.3,92.5v-14.3h1.3v13.1h7.5v1.2h-8.8Z"/>
          <path class="st1" d="M367.6,92.5v-14.3h1.3v14.3h-1.3Z"/>
          <path class="st1" d="M373.2,92.5v-14.3h8.7v1.2h-7.4v5.4h6.8v1.2h-6.8v5.4h7.4v1.2h-8.7Z"/>
          <path class="st0" d="M386.5,92.8c-.3,0-.6-.1-.8-.3s-.3-.5-.3-.8.1-.6.3-.8.5-.3.8-.3.6.1.8.3.3.5.3.8-.1.6-.3.8-.5.3-.8.3Z"/>
        </g>
      </g>
      <path class="st1" d="M88.5,49.2H24.7c15.1-9.6,34.8-14.1,57.3-12.9l6.3.3-1.2-6.2C83.7,11.9,69.1,1.6,43.7,0H0s0,57.7,0,57.7h70.2c-12.1,10-39.3,18.2-64.8,17.6H0C0,75.2,0,111.3,0,111.3h43.7c16.2,0,28.2-4.5,35.7-13.3,5.2-6.1,8-14.3,8.9-22.2.9-8.8.2-17.8.2-26.6ZM10,10h33.3c17.2,1.1,27.8,6.4,32.2,16.2h-.4c-26.3,0-48.7,7.4-65.1,21.7,0,0,0-37.8,0-37.8ZM71.8,91.6c-5.5,6.5-15,9.8-28.1,9.8H10.2v-16.1c12.9-.2,24.9-1.8,35.7-4.9,12.2-3.5,23-9,32.4-16.2.8,12.2-1.4,21.4-6.5,27.4Z"/>
    </g>
  </g>
</svg>