<?xml version="1.0" encoding="UTF-8"?>
<svg id="Calque_2" xmlns="http://www.w3.org/2000/svg" version="1.1" viewBox="0 0 338.9 76.4">
  <!-- Generator: Adobe Illustrator 30.4.0, SVG Export Plug-In . SVG Version: 2.1.4 Build 226)  -->
  <defs>
    <style>
      .st0 {
        fill: #f2f2f2;
      }
    </style>
  </defs>
  <g id="Calque_1-2">
    <g>
      <g>
        <path class="st0" d="M6.7,48.7c-2.1-1.1-3.7-2.6-4.8-4.5-1.1-1.9-1.7-4.2-1.7-6.7v-2c0-.2,0-.4.2-.6.2-.2.4-.2.6-.2h8.1c.2,0,.4,0,.6.2.2.2.2.4.2.6v1.5c0,1.5.4,2.6,1.1,3.5s1.7,1.3,2.8,1.3,2.1-.4,2.8-1.3c.8-.8,1.1-1.9,1.1-3.3s-.5-2.6-1.4-3.6c-.9-1-2.8-2.5-5.5-4.5-2.3-1.7-4.2-3.2-5.7-4.5-1.5-1.3-2.7-2.9-3.7-4.9S0,15.7,0,13.1C0,9.2,1.2,6,3.7,3.6,6.2,1.2,9.5,0,13.6,0s7.4,1.2,9.9,3.7c2.5,2.5,3.8,5.7,3.8,9.8v1.7c0,.2,0,.4-.2.6s-.4.2-.6.2h-8.1c-.2,0-.4,0-.6-.2s-.2-.4-.2-.6v-1.9c0-1.4-.4-2.6-1.1-3.5s-1.7-1.3-2.9-1.3-2,.4-2.7,1.2c-.7.8-1.1,2-1.1,3.4s.4,2.6,1.3,3.7c.9,1.1,2.7,2.6,5.3,4.5,2.9,2.2,5.1,3.9,6.6,5.2,1.5,1.3,2.6,2.8,3.4,4.4s1.2,3.6,1.2,5.8c0,4.1-1.3,7.4-3.8,9.8-2.5,2.4-5.9,3.7-10,3.7s-5.1-.5-7.2-1.6h0Z"/>
        <path class="st0" d="M59.4.8c.2.2.2.4.2.6v6.8c0,.2,0,.4-.2.6-.2.2-.4.2-.6.2h-8.8c-.2,0-.3.1-.3.4v39.5c0,.2,0,.4-.2.6s-.4.2-.6.2h-8.2c-.2,0-.4,0-.6-.2s-.2-.4-.2-.6V9.4c0-.2-.1-.4-.3-.4h-8.4c-.2,0-.4,0-.6-.2s-.2-.4-.2-.6V1.4c0-.2,0-.4.2-.6.2-.2.4-.2.6-.2h27.8c.2,0,.4,0,.6.3Z"/>
        <path class="st0" d="M67.1,46.4c-2.6-2.7-3.8-6.2-3.8-10.6V1.4c0-.2,0-.4.2-.6s.4-.2.6-.2h8.2c.2,0,.4,0,.6.2.2.2.2.4.2.6v35.3c0,1.5.4,2.7,1.1,3.7.8.9,1.7,1.4,2.9,1.4s2.2-.5,2.9-1.4c.7-.9,1.1-2.2,1.1-3.7V1.4c0-.2,0-.4.2-.6.2-.2.4-.2.6-.2h8.2c.2,0,.4,0,.6.2.2.2.2.4.2.6v34.4c0,4.4-1.3,7.9-3.8,10.6s-5.9,4-10.1,4-7.6-1.3-10.2-4h0Z"/>
        <path class="st0" d="M95.9,49.5c-.2-.2-.2-.4-.2-.6V1.4c0-.2,0-.4.2-.6.2-.2.4-.2.6-.2h12.7c4.3,0,7.7,1.2,10.3,3.7,2.6,2.5,3.9,5.8,3.9,9.9v21.9c0,4.1-1.3,7.4-3.9,9.9s-6,3.7-10.3,3.7h-12.7c-.2,0-.4,0-.6-.3ZM105.9,41.3h3.2c1.3-.1,2.3-.7,3.1-1.7.8-1,1.2-2.4,1.3-4.1V14.8c0-1.8-.4-3.2-1.2-4.2-.8-1-1.9-1.6-3.2-1.6h-3.1c-.2,0-.3.1-.3.4v31.5c0,.2.1.3.3.3Z"/>
        <path class="st0" d="M127.8,49.5c-.2-.2-.2-.4-.2-.6V1.4c0-.2,0-.4.2-.6.2-.2.4-.2.6-.2h8.2c.2,0,.4,0,.6.2.2.2.2.4.2.6v47.5c0,.2,0,.4-.2.6-.2.2-.4.2-.6.2h-8.2c-.2,0-.4,0-.6-.2h0Z"/>
        <path class="st0" d="M145.4,46.5c-2.6-2.5-3.9-5.9-3.9-10.1V13.9c0-4.2,1.3-7.6,3.9-10.1C148,1.3,151.5,0,155.8,0s7.8,1.3,10.4,3.8c2.6,2.5,3.9,5.9,3.9,10.1v22.5c0,4.2-1.3,7.6-3.9,10.1-2.6,2.5-6.1,3.8-10.4,3.8s-7.8-1.3-10.3-3.8ZM158.9,40.5c.8-.9,1.2-2.1,1.2-3.6V13.5c0-1.5-.4-2.7-1.2-3.6-.8-.9-1.9-1.4-3.2-1.4s-2.4.5-3.1,1.4-1.2,2.1-1.2,3.6v23.3c0,1.5.4,2.7,1.2,3.6s1.8,1.4,3.1,1.4,2.4-.5,3.2-1.4h0Z"/>
        <path class="st0" d="M189.8,49.5c-.2-.2-.2-.4-.2-.6V1.4c0-.2,0-.4.2-.6.2-.2.4-.2.6-.2h12.7c4.3,0,7.7,1.2,10.3,3.7,2.6,2.5,3.9,5.8,3.9,9.9v21.9c0,4.1-1.3,7.4-3.9,9.9s-6,3.7-10.3,3.7h-12.7c-.2,0-.4,0-.6-.3ZM199.9,41.3h3.2c1.3-.1,2.3-.7,3.1-1.7.8-1,1.2-2.4,1.3-4.1V14.8c0-1.8-.4-3.2-1.2-4.2-.8-1-1.9-1.6-3.2-1.6h-3.1c-.2,0-.4.1-.4.4v31.5c0,.2.1.3.4.3Z"/>
        <path class="st0" d="M224.2,46.7c-2.5-2.4-3.8-5.6-3.8-9.6v-4.8c0-.2,0-.4.2-.6.2-.2.4-.2.6-.2h8.2c.2,0,.4,0,.6.2.2.2.2.4.2.6v5c0,1.4.4,2.5,1.1,3.3s1.6,1.3,2.8,1.3,2.2-.4,2.9-1.3c.7-.8,1.1-1.9,1.1-3.3V1.4c0-.2,0-.4.2-.6.2-.2.4-.2.6-.2h8.2c.2,0,.4,0,.6.2.2.2.2.4.2.6v35.7c0,4-1.3,7.2-3.8,9.6s-5.9,3.6-10.1,3.6-7.4-1.2-10-3.6h0Z"/>
        <path class="st0" d="M278.2,8.8c-.2.2-.4.2-.6.2h-14.7c-.2,0-.4.1-.4.4v11.1c0,.2.1.4.4.4h8.4c.2,0,.4,0,.6.2.2.2.2.4.2.6v6.8c0,.2,0,.4-.2.6-.2.2-.4.2-.6.2h-8.4c-.2,0-.4.1-.4.4v11.2c0,.2.1.3.4.3h14.7c.2,0,.4,0,.6.2.2.2.2.4.2.6v6.8c0,.2,0,.4-.2.6-.2.2-.4.2-.6.2h-24.1c-.2,0-.4,0-.6-.2-.2-.2-.2-.4-.2-.6V1.4c0-.2,0-.4.2-.6.2-.2.4-.2.6-.2h24.1c.2,0,.4,0,.6.2.2.2.2.4.2.6v6.8c0,.2,0,.4-.2.6h0Z"/>
        <path class="st0" d="M281.7,49.5c-.2-.2-.2-.4-.2-.6v-7.1c0-.4,0-.7.2-1l15-31.3c0-.1,0-.2,0-.3s-.1-.1-.3-.1h-14.1c-.2,0-.4,0-.6-.2-.2-.2-.2-.4-.2-.6V1.4c0-.2,0-.4.2-.6.2-.2.4-.2.6-.2h24.2c.2,0,.4,0,.6.2.2.2.2.4.2.6v7.1c0,.3,0,.7-.2,1.1l-15,31.3c0,.1,0,.2,0,.3s.1.1.3.1h14.1c.2,0,.4,0,.6.2.2.2.2.4.2.6v6.8c0,.2,0,.4-.2.6-.2.2-.4.2-.6.2h-24.2c-.2,0-.4,0-.6-.2h0Z"/>
        <path class="st0" d="M314.3,46.5c-2.6-2.5-3.9-5.9-3.9-10.1V13.9c0-4.2,1.3-7.6,3.9-10.1C316.9,1.3,320.3,0,324.6,0s7.8,1.3,10.4,3.8c2.6,2.5,3.9,5.9,3.9,10.1v22.5c0,4.2-1.3,7.6-3.9,10.1s-6.1,3.8-10.4,3.8-7.8-1.3-10.3-3.8ZM327.8,40.5c.8-.9,1.2-2.1,1.2-3.6V13.5c0-1.5-.4-2.7-1.2-3.6-.8-.9-1.9-1.4-3.2-1.4s-2.4.5-3.1,1.4-1.2,2.1-1.2,3.6v23.3c0,1.5.4,2.7,1.2,3.6s1.8,1.4,3.1,1.4,2.4-.5,3.2-1.4h0Z"/>
      </g>
      <g>
        <path class="st0" d="M5.7,76.4c-1.7,0-3.1-.5-4.1-1.5S0,72.3,0,70.4v-3.3C0,65.1.5,63.6,1.6,62.6s2.4-1.5,4.1-1.5,3,.5,3.9,1.4,1.4,2.3,1.4,3.9h0c0,.1-1.4.1-1.4.1v-.2c0-1.2-.3-2.2-1-3-.6-.8-1.6-1.2-3-1.2s-2.4.4-3.2,1.2c-.8.8-1.1,2-1.1,3.5v3.4c0,1.5.4,2.7,1.1,3.5.8.8,1.8,1.2,3.2,1.2s2.3-.4,3-1.2c.6-.8,1-1.8,1-3v-.3h1.4v.3c0,1.7-.4,3-1.4,3.9s-2.2,1.4-3.9,1.4h0Z"/>
        <path class="st0" d="M20.2,76.4c-1.7,0-3.1-.5-4.1-1.5-1-1-1.5-2.5-1.5-4.5v-3.3c0-2,.5-3.5,1.5-4.5,1-1,2.4-1.5,4.1-1.5s3.1.5,4.1,1.5c1,1,1.5,2.5,1.5,4.5v3.3c0,2-.5,3.5-1.5,4.5-1,1-2.4,1.5-4.1,1.5ZM20.2,75.2c1.4,0,2.4-.4,3.2-1.2.8-.8,1.1-2,1.1-3.5v-3.4c0-1.5-.4-2.7-1.1-3.5s-1.8-1.2-3.2-1.2-2.4.4-3.2,1.2c-.8.8-1.1,2-1.1,3.5v3.4c0,1.5.4,2.7,1.1,3.5s1.8,1.2,3.2,1.2Z"/>
        <path class="st0" d="M29.9,76.1v-14.7h2.6l4.5,13.9h.2l4.5-13.9h2.6v14.7h-1.3v-13.9h-.2l-4.5,13.9h-2.4l-4.5-13.9h-.2v13.9h-1.3,0Z"/>
        <path class="st0" d="M48.8,76.1v-14.7h2.6l4.5,13.9h.2l4.5-13.9h2.6v14.7h-1.3v-13.9h-.2l-4.5,13.9h-2.4l-4.5-13.9h-.2v13.9h-1.3,0Z"/>
        <path class="st0" d="M72.9,76.4c-1.1,0-2-.2-2.8-.6-.8-.4-1.4-.9-1.9-1.7-.4-.8-.7-1.7-.7-2.9v-9.9h1.3v9.9c0,1.3.3,2.3,1,2.9.7.6,1.7,1,2.9,1s2.2-.3,2.9-1,1-1.6,1-2.9v-9.9h1.3v9.9c0,1.2-.2,2.1-.7,2.9-.4.8-1.1,1.3-1.9,1.7s-1.7.6-2.8.6h0Z"/>
        <path class="st0" d="M82.5,76.1v-14.7h2.7l6,13.9h.2v-13.9h1.3v14.7h-2.7l-6-14h-.2v14s-1.3,0-1.3,0Z"/>
        <path class="st0" d="M97.2,76.1v-14.7h1.3v14.7h-1.3Z"/>
        <path class="st0" d="M108.3,76.4c-1.7,0-3.1-.5-4.1-1.5s-1.6-2.5-1.6-4.5v-3.3c0-2,.5-3.5,1.6-4.5,1-1,2.4-1.5,4.1-1.5s3,.5,3.9,1.4,1.4,2.3,1.4,3.9h0c0,.1-1.3.1-1.3.1v-.2c0-1.2-.3-2.2-1-3-.6-.8-1.6-1.2-3-1.2s-2.4.4-3.2,1.2c-.8.8-1.2,2-1.2,3.5v3.4c0,1.5.4,2.7,1.2,3.5.8.8,1.8,1.2,3.2,1.2s2.3-.4,3-1.2c.6-.8,1-1.8,1-3v-.3h1.3v.3c0,1.7-.4,3-1.4,3.9s-2.2,1.4-3.9,1.4h0Z"/>
        <path class="st0" d="M116.3,76.1l4.8-14.7h2.4l4.8,14.7h-1.4l-1.3-3.9h-6.7l-1.3,3.9s-1.4,0-1.4,0ZM119.3,70.9h5.9l-2.8-8.8h-.2l-2.8,8.8h0Z"/>
        <path class="st0" d="M133.9,76.1v-13.5h-4.9v-1.2h11.2v1.2h-4.9v13.5h-1.4,0Z"/>
        <path class="st0" d="M143.7,76.1v-14.7h1.4v14.7h-1.4Z"/>
        <path class="st0" d="M154.8,76.4c-1.7,0-3.1-.5-4.1-1.5-1-1-1.5-2.5-1.5-4.5v-3.3c0-2,.5-3.5,1.5-4.5,1-1,2.4-1.5,4.1-1.5s3.1.5,4.1,1.5c1,1,1.5,2.5,1.5,4.5v3.3c0,2-.5,3.5-1.5,4.5-1,1-2.4,1.5-4.1,1.5ZM154.8,75.2c1.4,0,2.4-.4,3.2-1.2.8-.8,1.1-2,1.1-3.5v-3.4c0-1.5-.4-2.7-1.1-3.5s-1.8-1.2-3.2-1.2-2.4.4-3.2,1.2c-.8.8-1.1,2-1.1,3.5v3.4c0,1.5.4,2.7,1.1,3.5s1.8,1.2,3.2,1.2Z"/>
        <path class="st0" d="M164.5,76.1v-14.7h2.7l6,13.9h.2v-13.9h1.4v14.7h-2.7l-6-14h-.2v14s-1.4,0-1.4,0Z"/>
        <path class="st0" d="M186,76.1v-14.7h5.8c.9,0,1.7.2,2.4.5.7.3,1.2.8,1.6,1.3.4.6.6,1.3.6,2.1v.2c0,1-.2,1.8-.7,2.3s-1,.9-1.7,1.1v.2c.5,0,.9.2,1.2.5.3.3.5.8.5,1.4v5h-1.4v-4.9c0-.4-.1-.8-.4-1s-.6-.4-1.1-.4h-5.6v6.2h-1.4,0ZM187.3,68.6h4.3c1.1,0,1.9-.3,2.5-.8.6-.5.9-1.2.9-2.2h0c0-1.1-.3-1.8-.9-2.3-.6-.5-1.4-.8-2.6-.8h-4.3v6h0Z"/>
        <path class="st0" d="M200.2,76.1v-14.7h8.9v1.2h-7.6v5.5h7v1.2h-7v5.6h7.6v1.2h-9ZM203.8,60.1l1.4-2.5h1.6l-1.7,2.5h-1.3,0Z"/>
        <path class="st0" d="M217.2,76.1v-13.5h-4.9v-1.2h11.2v1.2h-4.9v13.5h-1.4,0Z"/>
        <path class="st0" d="M224.2,76.1l4.8-14.7h2.4l4.8,14.7h-1.4l-1.3-3.9h-6.7l-1.3,3.9h-1.4ZM227.3,70.9h5.9l-2.8-8.8h-.2l-2.8,8.8h0Z"/>
        <path class="st0" d="M239.4,76.1v-1.2h2.1v-12.3h-2.1v-1.2h7.3c.8,0,1.6.2,2.2.5s1.2.7,1.6,1.3.6,1.2.6,1.9v.2c0,.7-.1,1.3-.4,1.7-.3.4-.6.8-1,1.1s-.8.4-1.1.6v.2c.4,0,.7.3,1.1.5s.7.6,1,1.1.4,1,.4,1.7v.2c0,.8-.2,1.5-.6,2.1-.4.6-.9,1-1.6,1.3-.7.3-1.4.4-2.3.4h-7.3ZM242.9,68h3.8c1,0,1.7-.2,2.3-.7.6-.5.8-1.1.8-1.9v-.2c0-.8-.3-1.4-.8-1.9-.6-.5-1.3-.7-2.3-.7h-3.8v5.5h0ZM242.9,74.9h3.7c1.1,0,1.9-.2,2.4-.7s.8-1.2.8-2v-.2c0-.8-.3-1.5-.8-2-.5-.5-1.3-.7-2.4-.7h-3.7v5.6h0Z"/>
        <path class="st0" d="M255,76.1v-14.7h1.3v13.5h7.8v1.2h-9.1,0Z"/>
        <path class="st0" d="M267.6,76.1v-14.7h1.4v14.7h-1.4Z"/>
        <path class="st0" d="M273.4,76.1v-14.7h8.9v1.2h-7.6v5.5h7v1.2h-7v5.6h7.6v1.2h-9Z"/>
        <path class="st0" d="M287.1,76.4c-.4,0-.6-.1-.9-.3-.2-.2-.3-.5-.3-.9s.1-.6.3-.9.5-.3.9-.3.6.1.9.3c.2.2.3.5.3.9s-.1.6-.3.9-.5.3-.9.3Z"/>
      </g>
    </g>
  </g>
</svg>