<?xml version="1.0" encoding="UTF-8"?>
<svg id="Calque_2" xmlns="http://www.w3.org/2000/svg" version="1.1" viewBox="0 0 285.6 22.7">
  <!-- Generator: Adobe Illustrator 30.4.0, SVG Export Plug-In . SVG Version: 2.1.4 Build 226)  -->
  <defs>
    <style>
      .st0 {
        fill: #f2f2f2;
      }

      .st1 {
        fill: #db3c27;
      }
    </style>
  </defs>
  <g id="Calque_1-2">
    <g>
      <g>
        <rect class="st1" x="37.8" y=".5" width="247.4" height="21.7"/>
        <path class="st1" d="M285.6,22.7H37.2V0h248.4v22.7ZM38.2,21.7h246.4V1H38.2v20.7Z"/>
      </g>
      <g>
        <path class="st0" d="M1.9,14.1v-5.2h-.1l-1.1,2H0l1.3-2.4h1.2v5.6h-.6Z"/>
        <path class="st0" d="M5.8,14.2c-.6,0-1.1-.2-1.5-.6s-.6-.9-.6-1.7v-1.3c0-.8.2-1.3.6-1.7.4-.4.9-.6,1.5-.6s1.2.2,1.5.6c.4.4.6.9.6,1.7v1.3c0,.8-.2,1.3-.6,1.7s-.9.6-1.5.6ZM5.8,13.6c.5,0,.8-.1,1.1-.4s.4-.7.4-1.2v-1.4c0-.5-.1-.9-.4-1.2s-.6-.4-1.1-.4-.8.1-1.1.4c-.2.3-.4.7-.4,1.2v1.4c0,.5.1.9.4,1.2.2.3.6.4,1.1.4Z"/>
        <path class="st0" d="M10.9,14.2c-.6,0-1.1-.2-1.5-.6s-.6-.9-.6-1.7v-1.3c0-.8.2-1.3.6-1.7.4-.4.9-.6,1.5-.6s1.1.2,1.5.6c.4.4.6.9.6,1.7v1.3c0,.8-.2,1.3-.6,1.7s-.9.6-1.5.6ZM10.9,13.6c.5,0,.8-.1,1.1-.4s.4-.7.4-1.2v-1.4c0-.5-.1-.9-.4-1.2s-.6-.4-1.1-.4-.8.1-1.1.4-.4.7-.4,1.2v1.4c0,.5.1.9.4,1.2.2.3.6.4,1.1.4Z"/>
        <path class="st0" d="M15,11c-.4,0-.7-.1-.9-.3s-.3-.5-.3-.9h0c0-.4.1-.8.3-1s.5-.3.9-.3.7.1.9.3.4.5.4.9h0c0,.4-.1.7-.4,1-.2.2-.5.3-.9.3ZM14.5,14.2l-.4-.3,4.5-5.5.4.3s-4.4,5.5-4.4,5.5ZM15,10.5c.2,0,.4,0,.5-.2.1-.1.2-.3.2-.6h0c0-.3,0-.5-.2-.7s-.3-.2-.5-.2-.4,0-.5.2-.2.3-.2.6h0c0,.3,0,.5.2.7.1.1.3.2.5.2ZM18.1,14.2c-.4,0-.7-.1-.9-.3-.2-.2-.4-.5-.4-.9h0c0-.4.1-.8.4-1,.2-.2.5-.3.9-.3s.7.1.9.3c.2.2.4.5.4.9h0c0,.4-.1.8-.4,1-.2.2-.5.3-.9.3ZM18.1,13.7c.2,0,.4,0,.5-.2.1-.1.2-.3.2-.6h0c0-.3,0-.5-.2-.7s-.3-.2-.5-.2-.4,0-.5.2-.2.3-.2.6h0c0,.3,0,.5.2.7.1.1.3.2.5.2Z"/>
      </g>
    </g>
  </g>
</svg>