<?xml version="1.0" encoding="UTF-8"?>
<svg id="Calque_2" xmlns="http://www.w3.org/2000/svg" version="1.1" viewBox="0 0 333.8 44.4">
  <!-- Generator: Adobe Illustrator 30.4.0, SVG Export Plug-In . SVG Version: 2.1.4 Build 226)  -->
  <defs>
    <style>
      .st0 {
        fill: #f2f2f2;
      }

      .st1 {
        fill: #db3c27;
      }
    </style>
  </defs>
  <g id="Calque_1-2">
    <g>
      <path class="st0" d="M333.8,44.4H0v-25.9h333.8v25.9ZM1,43.4h331.8v-23.9H1v23.9Z"/>
      <g>
        <path class="st0" d="M.9,10.7V.2h1.3v9.4h5.3v1.1H.9Z"/>
        <path class="st0" d="M15.6,10.9c-1.2,0-2.2-.4-3-1.1-.8-.7-1.1-1.8-1.1-3.2v-2.4c0-1.4.4-2.5,1.1-3.2C13.4.4,14.4,0,15.6,0s2.3.4,3,1.1c.7.7,1.1,1.8,1.1,3.2v2.4c0,1.4-.4,2.4-1.1,3.2-.8.7-1.8,1.1-3,1.1ZM15.6,9.8c.9,0,1.6-.3,2.1-.8s.8-1.3.8-2.3v-2.5c0-1-.2-1.7-.8-2.3s-1.2-.8-2.1-.8-1.6.3-2.1.8-.8,1.3-.8,2.3v2.5c0,1,.2,1.7.8,2.3s1.2.8,2.1.8Z"/>
        <path class="st0" d="M23.9,10.7L27.1.2h2.2l3.2,10.5h-1.3l-.8-2.7h-4.5l-.8,2.7h-1.3ZM26.3,6.9h3.8l-1.8-5.9h-.2s-1.8,5.9-1.8,5.9Z"/>
        <path class="st0" d="M36.6,10.7v-1.1h1.5V1.3h-1.5V.2h4.1c1.4,0,2.5.4,3.2,1,.8.7,1.1,1.8,1.1,3.2v1.9c0,1.5-.4,2.5-1.1,3.2-.8.7-1.8,1-3.2,1h-4.1ZM39.4,9.6h1.4c1,0,1.8-.2,2.3-.8s.8-1.3.8-2.3v-2.1c0-1.1-.3-1.8-.8-2.3s-1.3-.7-2.3-.7h-1.4v8.2h0Z"/>
        <path class="st0" d="M50.1,10.7V.2h1.3v10.5h-1.3Z"/>
        <path class="st0" d="M56.7,10.7V.2h2.5l3.7,9.7h.2V.2h1.2v10.5h-2.5l-3.6-9.7h-.2v9.7h-1.2Z"/>
        <path class="st0" d="M73.4,10.9c-.8,0-1.5-.2-2.1-.5-.6-.3-1.1-.8-1.4-1.4-.3-.6-.5-1.4-.5-2.3v-2.4c0-1.4.4-2.5,1.1-3.2S72.2,0,73.5,0s2.2.3,2.8,1c.7.7,1,1.6,1,2.7h0c0,0-1.2,0-1.2,0h0c0-.6,0-1.1-.3-1.4-.2-.4-.5-.7-.8-.9s-.9-.3-1.5-.3c-.9,0-1.6.3-2.1.8-.5.6-.8,1.3-.8,2.3v2.5c0,1,.2,1.7.8,2.3s1.2.8,2.1.8,1.5-.2,1.9-.8.6-1.2.6-2v-.3h-3.2v-1.1h4.4v5h-1.1v-1.1h-.2c-.1.2-.3.4-.5.6-.2.2-.5.4-.8.5s-.8.2-1.3.2h0Z"/>
        <path class="st0" d="M83.3,10.9c-.3,0-.5,0-.7-.3-.2-.2-.3-.4-.3-.7s0-.5.3-.7c.2-.2.4-.3.7-.3s.5.1.7.3.3.4.3.7,0,.5-.3.7-.4.3-.7.3Z"/>
        <path class="st0" d="M90.1,10.9c-.3,0-.5,0-.7-.3-.2-.2-.3-.4-.3-.7s0-.5.3-.7c.2-.2.4-.3.7-.3s.5.1.7.3.3.4.3.7,0,.5-.3.7-.4.3-.7.3Z"/>
        <path class="st0" d="M96.9,10.9c-.3,0-.5,0-.7-.3-.2-.2-.3-.4-.3-.7s0-.5.3-.7c.2-.2.4-.3.7-.3s.5.1.7.3.3.4.3.7,0,.5-.3.7-.4.3-.7.3Z"/>
      </g>
      <rect class="st1" x="4" y="22.6" width="17.9" height="17.9"/>
      <rect class="st1" x="24.8" y="22.6" width="17.9" height="17.9"/>
      <rect class="st1" x="45.7" y="22.6" width="17.9" height="17.9"/>
      <rect class="st1" x="66.5" y="22.6" width="17.9" height="17.9"/>
      <rect class="st1" x="87.3" y="22.6" width="17.9" height="17.9"/>
      <rect class="st1" x="108.2" y="22.6" width="17.9" height="17.9"/>
      <rect class="st1" x="129" y="22.6" width="17.9" height="17.9"/>
      <rect class="st1" x="149.8" y="22.6" width="17.9" height="17.9"/>
      <rect class="st1" x="170.6" y="22.6" width="17.9" height="17.9"/>
      <rect class="st1" x="191.5" y="22.6" width="17.9" height="17.9"/>
      <rect class="st1" x="212.3" y="22.6" width="17.9" height="17.9"/>
      <rect class="st1" x="233.1" y="22.6" width="17.9" height="17.9"/>
      <rect class="st1" x="254" y="22.6" width="17.9" height="17.9"/>
    </g>
  </g>
</svg>