<?xml version="1.0" encoding="UTF-8"?>
<svg id="Calque_2" xmlns="http://www.w3.org/2000/svg" version="1.1" viewBox="0 0 279 22.7">
  <!-- Generator: Adobe Illustrator 30.4.0, SVG Export Plug-In . SVG Version: 2.1.4 Build 226)  -->
  <defs>
    <style>
      .st0 {
        fill: #f2f2f2;
      }

      .st1 {
        fill: #db3c27;
      }
    </style>
  </defs>
  <g id="Calque_1-2">
    <g>
      <path class="st1" d="M279,22.7H30.7V0h248.4v22.7h0ZM31.7,21.7h246.4V1H31.7v20.7Z"/>
      <rect class="st1" x="31.2" y=".5" width="164.9" height="21.7"/>
      <g>
        <path class="st0" d="M1,14.3v-.2c0-.2,0-.3,0-.5,0-.1,0-.3.2-.5l2.1-3.8h0c0,0-3.3,0-3.3,0v-.6h4v.8l-2.2,4c0,.1-.1.2-.1.3s0,.2,0,.3v.2h-.7Z"/>
        <path class="st0" d="M6.7,14.4c-.4,0-.8,0-1.1-.2-.3-.2-.5-.4-.7-.7-.2-.3-.2-.6-.2-1h0c0-.1.7-.1.7-.1h0c0,.5.1.8.4,1,.2.2.6.3,1,.3s.8-.1,1-.4c.2-.2.4-.6.4-1h0c0-.5-.1-.8-.3-1s-.5-.4-.9-.4-.4,0-.5.1c-.1,0-.2.1-.3.2s-.2.2-.2.3h-.9v-3h3.7v.6h-3v1.9h.1c0-.1.1-.2.2-.3s.2-.2.4-.3c.2,0,.4-.1.7-.1s.6,0,.9.2c.3.2.5.4.6.6s.2.6.2,1h0c0,.5,0,.8-.2,1.1s-.4.5-.7.7c-.3.2-.7.2-1.1.2h0Z"/>
        <path class="st0" d="M10.6,11.1c-.4,0-.7-.1-.9-.3s-.3-.5-.3-.9h0c0-.4.1-.8.3-1s.5-.3.9-.3.7.1.9.3.4.5.4.9h0c0,.4-.1.7-.4,1s-.5.3-.9.3ZM10.1,14.4l-.4-.3,4.5-5.5.4.3s-4.4,5.5-4.4,5.5ZM10.6,10.7c.2,0,.4,0,.5-.2.1-.1.2-.3.2-.6h0c0-.3,0-.5-.2-.7s-.3-.2-.5-.2-.4,0-.5.2-.2.3-.2.6h0c0,.3,0,.5.2.7.1.1.3.2.5.2ZM13.7,14.4c-.4,0-.7-.1-.9-.3s-.4-.5-.4-.9h0c0-.4.1-.8.4-1,.2-.2.5-.3.9-.3s.7.1.9.3c.2.2.4.5.4.9h0c0,.4-.1.8-.4,1-.2.2-.5.3-.9.3ZM13.7,13.9c.2,0,.4,0,.5-.2.1-.1.2-.3.2-.6h0c0-.3,0-.5-.2-.7s-.3-.2-.5-.2-.4,0-.5.2-.2.3-.2.6h0c0,.3,0,.5.2.7.1.1.3.2.5.2Z"/>
      </g>
    </g>
  </g>
</svg>