<?xml version="1.0" encoding="UTF-8"?>
<svg id="Calque_2" xmlns="http://www.w3.org/2000/svg" version="1.1" viewBox="0 0 21.8 22.6">
  <!-- Generator: Adobe Illustrator 30.4.0, SVG Export Plug-In . SVG Version: 2.1.4 Build 226)  -->
  <defs>
    <style>
      .st0 {
        fill: #f2f2f2;
      }

      .st1 {
        fill: #db3c27;
      }
    </style>
  </defs>
  <g id="Calque_1-2">
    <g>
      <path class="st1" d="M1.6,5.6L0,0h.9l1.4,5.1h0L3.7,0h.9l-1.5,5.6h-1.5Z"/>
      <path class="st1" d="M6,5.6V0h3.5v.8h-2.7v1.6h2.4v.8h-2.4v1.6h2.7v.8h-3.6Z"/>
      <path class="st1" d="M11,5.6V0h2.3C13.7,0,14,0,14.3.2c.3.1.5.3.6.5.1.2.2.5.2.8h0c0,.4,0,.7-.2.9s-.4.4-.6.4h0c.2.1.4.2.5.3.1.1.2.3.2.5v1.9h-.9v-1.7c0-.1,0-.3-.1-.3s-.2-.1-.4-.1h-1.7v2.2h-.9ZM11.9,2.6h1.4c.3,0,.6,0,.7-.2s.3-.4.3-.6h0c0-.3,0-.5-.2-.7s-.4-.2-.7-.2h-1.4v1.8h0Z"/>
      <path class="st1" d="M19.9,2.9c-.2,0-.3,0-.5-.2-.1-.1-.2-.3-.2-.5s0-.4.2-.5c.1-.1.3-.2.5-.2s.3,0,.5.2c.1.1.2.3.2.5s0,.3-.2.5c-.1.1-.3.2-.5.2h0ZM19.9,5.7c-.2,0-.3,0-.5-.2-.1-.1-.2-.3-.2-.5s0-.3.2-.5c.1-.1.3-.2.5-.2s.3,0,.5.2c.1.1.2.3.2.5s0,.3-.2.5c-.1.1-.3.2-.5.2h0Z"/>
      <path class="st0" d="M.6,22.4v-1c0-.7.1-1.3.4-1.7.3-.4.6-.8,1-1,.4-.3,1-.5,1.6-.7l.8-.2c.4-.1.8-.3,1.1-.5s.6-.4.7-.7c.2-.3.3-.7.3-1.1h0c0-.7-.2-1.2-.6-1.5s-1-.5-1.7-.5-1.3.2-1.7.6-.7.9-.7,1.7v.2H.6v-.2c0-.7.1-1.3.5-1.8.3-.5.7-.9,1.3-1.1.5-.3,1.1-.4,1.8-.4s1.3.1,1.8.4.9.6,1.2,1.1.4,1,.4,1.6h0c0,.8-.1,1.3-.4,1.7s-.6.8-1,1-1,.5-1.6.7l-.8.2c-.5.1-.9.3-1.2.5s-.5.4-.7.6c-.2.2-.2.6-.2,1v.2h5.8v1H.6Z"/>
      <path class="st0" d="M11.1,22.6c-.3,0-.5,0-.7-.3s-.3-.4-.3-.7,0-.5.3-.7.4-.3.7-.3.5,0,.7.3c.2.2.3.4.3.7s0,.5-.3.7-.4.3-.7.3Z"/>
      <path class="st0" d="M18.2,22.6c-1.1,0-2-.3-2.6-1s-1-1.6-1-3v-2.3c0-1.3.3-2.3,1-2.9s1.5-1,2.6-1,2,.3,2.7,1,1,1.6,1,2.9v2.3c0,1.3-.3,2.3-1,3s-1.5,1-2.7,1ZM18.2,21.6c.8,0,1.5-.2,1.9-.8s.6-1.2.6-2.1v-2.4c0-.9-.2-1.6-.6-2.1s-1.1-.8-1.9-.8-1.5.2-1.9.8c-.4.5-.6,1.2-.6,2.1v2.4c0,.9.2,1.6.6,2.1s1,.8,1.9.8Z"/>
    </g>
  </g>
</svg>