<?xml version="1.0" encoding="UTF-8"?>
<svg id="Calque_2" xmlns="http://www.w3.org/2000/svg" version="1.1" viewBox="0 0 41.4 22.6">
  <!-- Generator: Adobe Illustrator 30.4.0, SVG Export Plug-In . SVG Version: 2.1.4 Build 226)  -->
  <defs>
    <style>
      .st0 {
        fill: #f2f2f2;
      }
    </style>
  </defs>
  <g id="Calque_1-2">
    <g>
      <path class="st0" d="M1.7,5.6V.8H0V0h4.3v.8h-1.7v4.8s-.9,0-.9,0Z"/>
      <path class="st0" d="M5.7,5.6V0h3.5v.8h-2.7v1.6h2.4v.8h-2.4v1.6h2.7v.8h-3.6Z"/>
      <path class="st0" d="M10.8,5.6V0h1.6l1.2,5h.1L15,0h1.6v5.6h-.8V.6h-.1l-1.2,5h-1.5l-1.2-5h-.1v5h-.8,0Z"/>
      <path class="st0" d="M18.4,5.6V0h2.2C20.9,0,21.2,0,21.5.2c.3.1.5.3.6.6.1.2.2.5.2.9h0c0,.4,0,.8-.2,1s-.4.4-.6.6c-.3.1-.6.2-.9.2h-1.4v2.2s-.9,0-.9,0ZM19.2,2.7h1.3c.3,0,.5,0,.7-.2s.3-.4.3-.7h0c0-.4,0-.6-.3-.7s-.4-.2-.7-.2h-1.3v1.9Z"/>
      <path class="st0" d="M26.9,2.9c-.2,0-.3,0-.5-.2-.1-.1-.2-.3-.2-.5s0-.4.2-.5c.1-.1.3-.2.5-.2s.3,0,.5.2c.1.1.2.3.2.5s0,.3-.2.5c-.1.1-.3.2-.5.2h0ZM26.9,5.7c-.2,0-.3,0-.5-.2-.1-.1-.2-.3-.2-.5s0-.3.2-.5c.1-.1.3-.2.5-.2s.3,0,.5.2c.1.1.2.3.2.5s0,.3-.2.5c-.1.1-.3.2-.5.2h0Z"/>
      <path class="st0" d="M.9,19.3v-1h4.1v1H.9Z"/>
      <path class="st0" d="M11.7,22.6c-1.1,0-2-.3-2.7-1s-1-1.6-1-3v-2.3c0-1.3.3-2.3,1-2.9s1.5-1,2.6-1,2,.3,2.7,1,1,1.6,1,2.9v2.3c0,1.3-.3,2.3-1,3s-1.6,1-2.7,1ZM11.7,21.6c.8,0,1.5-.2,1.9-.8s.6-1.2.6-2.1v-2.4c0-.9-.2-1.6-.6-2.1s-1.1-.8-1.9-.8-1.4.2-1.9.8c-.4.5-.6,1.2-.6,2.1v2.4c0,.9.2,1.6.6,2.1s1.1.8,1.9.8Z"/>
      <path class="st0" d="M18,22.4v-1c0-.7.1-1.3.4-1.7s.6-.8,1-1c.4-.3,1-.5,1.6-.7l.8-.2c.4-.1.8-.3,1.1-.5s.6-.4.7-.7c.2-.3.3-.7.3-1.1h0c0-.7-.2-1.2-.6-1.5s-1-.5-1.6-.5-1.3.2-1.7.6-.7.9-.7,1.7v.2h-1.1v-.2c0-.7.1-1.3.5-1.8.3-.5.7-.9,1.3-1.1s1.1-.4,1.8-.4,1.3.1,1.8.4c.5.2.9.6,1.2,1.1.3.4.4,1,.4,1.6h0c0,.8-.1,1.3-.4,1.7s-.6.8-1,1c-.4.3-1,.5-1.6.7l-.8.2c-.5.1-.9.3-1.2.5s-.5.4-.7.6-.2.6-.2,1v.2h5.8v1h-6.9Z"/>
      <path class="st0" d="M29.4,16.7c-.4,0-.8,0-1.1-.3s-.6-.4-.8-.8c-.2-.3-.3-.7-.3-1.1s.1-.8.3-1.1.5-.6.8-.8c.3-.2.7-.3,1.1-.3s.8,0,1.1.3c.3.2.6.4.8.8s.3.7.3,1.1-.1.8-.3,1.1-.5.6-.8.8c-.3.2-.7.3-1.1.3ZM29.4,15.8c.4,0,.6-.1.9-.3.2-.2.3-.5.3-.9s-.1-.7-.3-.9-.5-.3-.9-.3-.6.1-.9.3c-.2.2-.3.5-.3.9s.1.7.3.9c.2.2.5.3.9.3Z"/>
      <path class="st0" d="M37.8,22.6c-1.2,0-2.1-.3-2.8-1-.7-.7-1-1.7-1-3v-2.2c0-1.3.3-2.3,1-3,.7-.7,1.6-1,2.8-1s2,.3,2.7,1c.6.6.9,1.5.9,2.6h0c0,0-1.2,0-1.2,0h0c0-.8-.2-1.4-.6-1.9-.4-.5-1-.7-1.8-.7s-1.5.2-2,.8-.7,1.2-.7,2.1v2.3c0,.9.2,1.6.7,2.1s1.1.8,2,.8,1.4-.2,1.8-.7.6-1.1.6-1.8v-.2h1.2v.2c0,1.1-.3,2-.9,2.6-.6.6-1.5,1-2.7,1h0Z"/>
    </g>
  </g>
</svg>