<?xml version="1.0" encoding="UTF-8"?>
<svg id="Calque_2" xmlns="http://www.w3.org/2000/svg" version="1.1" viewBox="0 0 21.1 24.2">
  <!-- Generator: Adobe Illustrator 30.4.0, SVG Export Plug-In . SVG Version: 2.1.4 Build 226)  -->
  <defs>
    <style>
      .st0 {
        fill: #f2f2f2;
      }

      .st1 {
        fill: #db3c27;
      }
    </style>
  </defs>
  <g id="Calque_1-2">
    <g>
      <path class="st1" d="M2.2,5.8c-.7,0-1.2-.2-1.6-.6s-.6-.9-.6-1.7v-1.3C0,1.5.2,1,.6.6,1,.2,1.5,0,2.2,0s1.2.2,1.6.6c.4.4.5.9.5,1.5h0s-.9,0-.9,0h0c0-.4,0-.8-.3-1s-.5-.4-.9-.4-.8.1-1,.4-.4.6-.4,1.1v1.3c0,.4.1.8.4,1.1.2.3.6.4,1,.4s.7-.1.9-.4c.2-.2.3-.6.3-.9h0c0-.1.9-.1.9-.1h0c0,.7-.2,1.3-.5,1.6-.4.4-.9.6-1.6.6h0Z"/>
      <path class="st1" d="M5.9,5.7V.1h.9v2.4h2.4V.1h.9v5.6h-.9v-2.4h-2.3v2.4h-.9Z"/>
      <path class="st1" d="M11.7,5.7V.1h.9v2.3h.1L14.8.1h1.1l-2.5,2.8,2.6,2.8h-1.2l-2.1-2.4h-.1v2.4h-.9Z"/>
      <path class="st1" d="M20.4,3c-.2,0-.3,0-.5-.2-.1-.1-.2-.3-.2-.5s0-.4.2-.5c.1-.1.3-.2.5-.2s.3,0,.5.2c.1.1.2.3.2.5s0,.3-.2.5c-.1.1-.3.2-.5.2h0ZM20.4,5.8c-.2,0-.3,0-.5-.2-.1-.1-.2-.3-.2-.5s0-.3.2-.5c.1-.1.3-.2.5-.2s.3,0,.5.2c.1.1.2.3.2.5s0,.3-.2.5c-.1.1-.3.2-.5.2h0Z"/>
      <path class="st0" d="M.6,24.2v-1h6.5v1H.6Z"/>
      <path class="st0" d="M10.4,24.2v-1h6.5v1s-6.5,0-6.5,0Z"/>
    </g>
  </g>
</svg>