<?xml version="1.0" encoding="UTF-8"?>
<svg id="Calque_2" xmlns="http://www.w3.org/2000/svg" version="1.1" viewBox="0 0 60.1 22.7">
  <!-- Generator: Adobe Illustrator 30.4.0, SVG Export Plug-In . SVG Version: 2.1.4 Build 226)  -->
  <defs>
    <style>
      .st0 {
        fill: #f2f2f2;
      }

      .st1 {
        fill: #db3c27;
      }
    </style>
  </defs>
  <g id="Calque_1-2">
    <g>
      <path class="st1" d="M0,5.7V.1h1.6l1.2,5h.1L4.2.1h1.6v5.6h-.8V.7h-.1l-1.2,5h-1.5L1,.7h-.1v5h-.8Z"/>
      <path class="st1" d="M9.7,5.8c-.7,0-1.2-.2-1.6-.6s-.6-.9-.6-1.7v-1.3c0-.7.2-1.3.6-1.7C8.5.2,9,0,9.7,0s1.2.2,1.6.6.6.9.6,1.7v1.3c0,.7-.2,1.3-.6,1.7s-1,.6-1.6.6ZM9.7,5.1c.4,0,.8-.1,1-.4s.4-.6.4-1.1v-1.4c0-.5-.1-.8-.4-1.1s-.6-.4-1-.4-.8.1-1,.4-.4.6-.4,1.1v1.4c0,.4.1.8.4,1.1s.6.4,1,.4Z"/>
      <path class="st1" d="M13.2,5.7v-.8h.8V.9h-.8V.1h2.2c.8,0,1.3.2,1.7.6.4.4.6.9.6,1.7v1c0,.8-.2,1.3-.6,1.7s-1,.6-1.7.6c0,0-2.2,0-2.2,0ZM14.8,4.9h.6c.5,0,.9-.1,1.1-.4s.4-.6.4-1.1v-1.1c0-.5-.1-.9-.4-1.1s-.6-.4-1.1-.4h-.6v4h0Z"/>
      <path class="st1" d="M19.3,5.7V.1h3.5v.8h-2.7v1.6h2.4v.8h-2.4v1.6h2.7v.8h-3.6Z"/>
      <path class="st1" d="M27.5,3c-.2,0-.3,0-.5-.2-.1-.1-.2-.3-.2-.5s0-.4.2-.5c.1-.1.3-.2.5-.2s.3,0,.5.2c.1.1.2.3.2.5s0,.3-.2.5c-.1.1-.3.2-.5.2h0ZM27.5,5.8c-.2,0-.3,0-.5-.2-.1-.1-.2-.3-.2-.5s0-.3.2-.5c.1-.1.3-.2.5-.2s.3,0,.5.2c.1.1.2.3.2.5s0,.3-.2.5c-.1.1-.3.2-.5.2h0Z"/>
      <path class="st0" d="M.5,22.5v-9.8h2.2l2.6,9.1h.2l2.6-9.1h2.2v9.8h-1.1v-9h-.2l-2.6,9h-2L1.9,13.5h-.2v9s-1.1,0-1.1,0Z"/>
      <path class="st0" d="M12.9,22.5l3-9.8h2.1l3,9.8h-1.2l-.8-2.5h-4.2l-.8,2.5h-1.2,0ZM15.2,19h3.6l-1.7-5.5h-.2s-1.7,5.5-1.7,5.5Z"/>
      <path class="st0" d="M23.6,22.5v-9.8h2.3l3.4,9.1h.2v-9.1h1.2v9.8h-2.3l-3.4-9.1h-.2v9.1h-1.2Z"/>
      <path class="st0" d="M37.5,22.7c-.7,0-1.4-.1-1.9-.4s-1-.6-1.3-1.2-.5-1.1-.5-1.9v-6.5h1.2v6.5c0,.8.2,1.4.6,1.8.4.4,1,.6,1.8.6s1.4-.2,1.8-.6.6-1,.6-1.8v-6.5h1.2v6.5c0,.8-.2,1.4-.5,1.9s-.7.9-1.3,1.2-1.2.4-1.9.4Z"/>
      <path class="st0" d="M43.3,22.5l3-9.8h2.1l3,9.8h-1.2l-.8-2.5h-4.2l-.8,2.5h-1.2,0ZM45.6,19h3.6l-1.7-5.5h-.2l-1.7,5.5Z"/>
      <path class="st0" d="M54,22.5v-9.8h1.2v8.7h5v1.1h-6.1Z"/>
    </g>
  </g>
</svg>