<?xml version="1.0" encoding="UTF-8"?>
<svg id="Calque_2" xmlns="http://www.w3.org/2000/svg" version="1.1" viewBox="0 0 34.4 22.7">
  <!-- Generator: Adobe Illustrator 30.4.0, SVG Export Plug-In . SVG Version: 2.1.4 Build 226)  -->
  <defs>
    <style>
      .st0 {
        fill: #f2f2f2;
      }

      .st1 {
        fill: #db3c27;
      }
    </style>
  </defs>
  <g id="Calque_1-2">
    <g>
      <path class="st1" d="M2.2,5.8c-.4,0-.8,0-1.1-.2s-.6-.4-.8-.7S0,4.3,0,3.9v-.2h.9v.2c0,.4.1.7.4.9s.6.3.9.3.7,0,.9-.2.3-.4.3-.7,0-.3-.1-.4c0-.1-.2-.2-.4-.3s-.4-.1-.6-.2h-.3c-.4-.2-.7-.3-.9-.4-.3-.1-.5-.3-.6-.5-.1-.2-.2-.5-.2-.8s0-.6.2-.9c.2-.2.4-.4.7-.5C1.3,0,1.7,0,2.1,0s.7,0,1,.2c.3.1.5.3.7.6.2.3.3.6.3,1v.3h-.9v-.3c0-.2,0-.4-.2-.6,0-.1-.2-.3-.4-.3s-.4-.1-.6-.1c-.3,0-.6,0-.8.2-.2.1-.3.3-.3.6s0,.3.1.4.2.2.4.3.4.1.6.2h.3c.4.1.7.2,1,.4.3.1.5.3.7.5.2.2.2.5.2.8s0,.6-.2.9-.4.4-.7.6c-.3.1-.7.2-1.1.2h0Z"/>
      <path class="st1" d="M5.7,5.7V.1h.9v5.6h-.9Z"/>
      <path class="st1" d="M10.3,5.8c-.4,0-.8,0-1.1-.3-.3-.2-.6-.4-.7-.8s-.3-.8-.3-1.2v-1.3c0-.7.2-1.3.6-1.7S9.8,0,10.4,0s1.2.2,1.6.6.5.9.5,1.5h0s-.9,0-.9,0h0c0-.3,0-.5-.1-.7s-.2-.3-.4-.4c-.2-.1-.4-.2-.7-.2-.4,0-.8.1-1,.4s-.4.6-.4,1.1v1.3c0,.4.1.8.4,1.1.2.3.6.4,1,.4s.7-.1.9-.3.3-.5.3-.9h0c0,0-1.5,0-1.5,0v-.7h2.4v2.8h-.8v-.6h-.1c0,0-.1.2-.2.3,0,.1-.2.2-.4.3s-.4,0-.7,0h0Z"/>
      <path class="st1" d="M14.2,5.7V.1h1.7l1.5,5h.1V.1h.9v5.6h-1.7l-1.5-5h-.1v5h-.9Z"/>
      <path class="st1" d="M19.8,5.7L21.4.1h1.5l1.6,5.6h-.9l-.4-1.3h-2.2l-.4,1.3h-.9,0ZM21.2,3.6h1.8l-.8-2.9h-.1l-.8,2.9h0Z"/>
      <path class="st1" d="M25.8,5.7V.1h.9v4.8h2.7v.8h-3.6Z"/>
      <path class="st1" d="M33.7,3c-.2,0-.3,0-.5-.2-.1-.1-.2-.3-.2-.5s0-.4.2-.5c.1-.1.3-.2.5-.2s.3,0,.5.2c.1.1.2.3.2.5s0,.3-.2.5c-.1.1-.3.2-.5.2h0ZM33.7,5.8c-.2,0-.3,0-.5-.2-.1-.1-.2-.3-.2-.5s0-.3.2-.5c.1-.1.3-.2.5-.2s.3,0,.5.2c.1.1.2.3.2.5s0,.3-.2.5c-.1.1-.3.2-.5.2h0Z"/>
      <path class="st0" d="M4,22.7c-.8,0-1.4-.1-2-.3-.5-.2-1-.5-1.3-1-.3-.4-.5-.9-.5-1.5H.3c0-.6,0-1,.3-1.4s.5-.6.8-.7.6-.3.8-.3v-.2c-.2,0-.5-.2-.8-.4-.3-.2-.5-.4-.7-.7-.2-.3-.3-.6-.3-1.1H.5c0-.7.2-1.1.5-1.5.3-.4.7-.7,1.2-.9s1.1-.3,1.8-.3,1.3.1,1.8.3.9.5,1.2.9c.3.4.5.8.5,1.4h0c0,.6,0,.9-.2,1.2-.2.3-.4.5-.6.7s-.5.3-.8.4v.2c.3,0,.5.2.8.3s.5.4.7.7c.2.3.3.7.3,1.2h0c0,.7-.2,1.2-.4,1.6-.3.4-.7.7-1.3,1-.6.2-1.2.3-2,.3h0ZM4,21.7c.8,0,1.4-.1,1.9-.5s.7-.8.7-1.3h0c0-.7-.2-1.1-.7-1.5-.5-.3-1.1-.5-1.9-.5s-1.4.1-1.9.5-.7.8-.7,1.3h0c0,.7.2,1.1.7,1.5s1.1.5,1.9.5h0ZM4,16.9c.8,0,1.3-.1,1.8-.4.4-.3.6-.7.6-1.2h0c0-.6-.2-1-.6-1.3-.4-.3-1-.4-1.8-.4s-1.3.1-1.8.4c-.4.3-.6.7-.6,1.2h0c0,.6.2,1,.6,1.3.4.3,1,.4,1.8.4h0Z"/>
      <path class="st0" d="M13.6,22.7c-.7,0-1.3-.1-1.8-.4s-.9-.6-1.1-1.1c-.3-.5-.4-1-.4-1.5h1.1c0,.6.2,1,.6,1.4s.9.5,1.7.5,1.4-.2,1.8-.6c.4-.4.6-1,.6-1.7v-1.4h-.2c-.2.3-.5.5-.9.8s-.9.4-1.6.4-1.1-.1-1.6-.4-.9-.6-1.2-1.1c-.3-.5-.4-1-.4-1.7v-.2c0-.7.1-1.2.5-1.7s.7-.9,1.2-1.1c.5-.3,1.1-.4,1.8-.4s1.3.1,1.8.4c.5.3.9.6,1.2,1.1s.5,1.1.5,1.8v3.4c0,.7-.1,1.4-.4,1.9-.3.5-.7.9-1.2,1.2s-1.2.4-1.9.4ZM13.7,18.2c.5,0,.9-.1,1.2-.3s.6-.5.8-.8.3-.7.3-1.2h0c0-.8-.2-1.4-.6-1.8-.4-.4-1-.6-1.7-.6s-1.3.2-1.7.6-.7.9-.7,1.6h0c0,.6.1,1,.3,1.3s.5.6.8.8.8.3,1.2.3h0Z"/>
      <path class="st0" d="M21.8,17c-.7,0-1.2-.2-1.6-.6s-.6-.9-.6-1.6h0c0-.8.2-1.3.6-1.7s.9-.6,1.6-.6,1.2.2,1.6.6.6.9.6,1.6h0c0,.8-.2,1.3-.6,1.7s-1,.6-1.6.6ZM21,22.7l-.8-.6,7.8-9.6.7.6-7.8,9.6ZM21.8,16.2c.4,0,.7-.1.9-.4.2-.2.4-.6.4-1v-.2c0-.4-.1-.7-.4-1s-.5-.4-.9-.4-.7.1-.9.4c-.2.2-.3.6-.3,1v.2c0,.4.1.7.3,1s.5.4.9.4ZM27.2,22.7c-.7,0-1.2-.2-1.6-.6-.4-.4-.6-.9-.6-1.6h0c0-.8.2-1.3.6-1.7.4-.4,1-.6,1.6-.6s1.2.2,1.6.6c.4.4.6.9.6,1.6h0c0,.8-.2,1.3-.6,1.7-.4.4-.9.6-1.6.6ZM27.2,21.9c.4,0,.7-.1.9-.4s.3-.6.3-1v-.2c0-.4-.1-.7-.3-1s-.5-.4-.9-.4-.7.1-1,.4c-.2.2-.3.6-.3,1v.2c0,.4.1.7.3,1s.5.4,1,.4Z"/>
    </g>
  </g>
</svg>