<?xml version="1.0" encoding="UTF-8"?>
<svg id="Calque_2" xmlns="http://www.w3.org/2000/svg" version="1.1" viewBox="0 0 74.9 22.6">
  <!-- Generator: Adobe Illustrator 30.4.0, SVG Export Plug-In . SVG Version: 2.1.4 Build 226)  -->
  <defs>
    <style>
      .st0 {
        fill: #f2f2f2;
      }

      .st1 {
        fill: #db3c27;
      }
    </style>
  </defs>
  <g id="Calque_1-2">
    <g>
      <path class="st1" d="M0,5.6v-.8h.8V.8h-.8V0h2.8C3.2,0,3.5,0,3.7.2c.2.1.4.3.6.5.1.2.2.5.2.8h0c0,.3,0,.6-.1.7,0,.2-.2.3-.3.4-.1,0-.3.2-.4.2h0c.1.2.2.2.4.3s.3.2.4.4c0,.2.2.4.2.7h0c0,.4,0,.7-.2.9-.1.2-.3.4-.6.5-.2.1-.5.2-.9.2H0ZM1.6,2.4h1.1c.3,0,.5,0,.7-.2.2-.1.2-.3.2-.6h0c0-.3,0-.5-.2-.6-.2-.1-.4-.2-.7-.2h-1.1v1.6h0ZM1.6,4.8h1.1c.3,0,.5,0,.7-.2s.2-.3.2-.6h0c0-.3,0-.5-.2-.6-.2-.1-.4-.2-.7-.2h-1.1v1.6h0Z"/>
      <path class="st1" d="M8.2,5.7c-.4,0-.8,0-1.1-.2s-.6-.4-.7-.7c-.2-.3-.3-.7-.3-1.1V0h.9v3.7c0,.4.1.7.3.9s.5.3.9.3.7-.1.9-.3c.2-.2.3-.5.3-.9V0h.9v3.7c0,.4,0,.8-.3,1.1-.2.3-.4.5-.7.7s-.7.2-1.1.2h0Z"/>
      <path class="st1" d="M12.1,5.6V0h.9v5.6h-.9Z"/>
      <path class="st1" d="M14.7,5.6V0h.9v4.8h2.7v.8s-3.6,0-3.6,0Z"/>
      <path class="st1" d="M19.4,5.6v-.8h.8V.8h-.8V0h2.2C22.4,0,23,.2,23.4.6s.6.9.6,1.7v1c0,.8-.2,1.3-.6,1.7s-1,.6-1.7.6h-2.2ZM21.1,4.8h.6c.5,0,.9-.1,1.1-.4s.4-.6.4-1.1v-1.1c0-.5-.1-.9-.4-1.1s-.6-.4-1.1-.4h-.6v4h0Z"/>
      <path class="st1" d="M28.7,2.9c-.2,0-.3,0-.5-.2-.1-.1-.2-.3-.2-.5s0-.4.2-.5c.1-.1.3-.2.5-.2s.3,0,.5.2c.1.1.2.3.2.5s0,.3-.2.5c-.1.1-.3.2-.5.2h0ZM28.7,5.7c-.2,0-.3,0-.5-.2-.1-.1-.2-.3-.2-.5s0-.3.2-.5c.1-.1.3-.2.5-.2s.3,0,.5.2c.1.1.2.3.2.5s0,.3-.2.5c-.1.1-.3.2-.5.2h0Z"/>
      <path class="st0" d="M.4,22.4v-1c0-.7.1-1.3.4-1.7s.6-.8,1-1c.4-.3,1-.5,1.6-.7l.8-.2c.4-.1.8-.3,1.1-.5s.6-.4.7-.7c.2-.3.3-.7.3-1.1h0c0-.7-.2-1.2-.6-1.5s-1-.5-1.7-.5-1.3.2-1.7.6-.7.9-.7,1.7v.2H.4v-.2c0-.7.2-1.3.5-1.8.3-.5.7-.9,1.3-1.1.5-.3,1.1-.4,1.8-.4s1.3.1,1.8.4.9.6,1.2,1.1.4,1,.4,1.6h0c0,.8-.1,1.3-.4,1.7s-.6.8-1,1-1,.5-1.6.7l-.8.2c-.5.1-.9.3-1.2.5s-.5.4-.7.6c-.2.2-.2.6-.2,1v.2h5.8v1H.4Z"/>
      <path class="st0" d="M13.6,22.6c-1.1,0-2-.3-2.6-1s-1-1.6-1-3v-2.3c0-1.3.3-2.3,1-2.9s1.5-1,2.6-1,2,.3,2.7,1,1,1.6,1,2.9v2.3c0,1.3-.3,2.3-1,3s-1.6,1-2.7,1ZM13.6,21.6c.8,0,1.5-.2,1.9-.8s.6-1.2.6-2.1v-2.4c0-.9-.2-1.6-.6-2.1s-1.1-.8-1.9-.8-1.4.2-1.9.8c-.4.5-.6,1.2-.6,2.1v2.4c0,.9.2,1.6.6,2.1s1.1.8,1.9.8Z"/>
      <path class="st0" d="M19.9,22.4v-1c0-.7.1-1.3.4-1.7s.6-.8,1-1c.4-.3,1-.5,1.6-.7l.8-.2c.4-.1.8-.3,1.1-.5s.6-.4.7-.7c.2-.3.3-.7.3-1.1h0c0-.7-.2-1.2-.6-1.5s-1-.5-1.6-.5-1.3.2-1.7.6-.7.9-.7,1.7v.2h-1.1v-.2c0-.7.1-1.3.5-1.8.3-.5.7-.9,1.3-1.1s1.1-.4,1.8-.4,1.3.1,1.8.4c.5.2.9.6,1.2,1.1.3.4.4,1,.4,1.6h0c0,.8-.1,1.3-.4,1.7s-.6.8-1,1c-.4.3-1,.5-1.6.7l-.8.2c-.5.1-.9.3-1.2.5s-.5.4-.7.6-.2.6-.2,1v.2h5.8v1h-6.9Z"/>
      <path class="st0" d="M33,22.6c-.7,0-1.3-.1-1.8-.4-.5-.3-.9-.6-1.2-1.1-.3-.5-.5-1.1-.5-1.8v-3.4c0-.7.1-1.4.4-1.9.3-.5.7-.9,1.2-1.2s1.2-.4,1.9-.4,1.3.1,1.8.4c.5.3.9.6,1.2,1.1.3.4.4.9.4,1.5h-1.2c0-.6-.2-1.1-.6-1.4-.4-.4-.9-.5-1.7-.5s-1.4.2-1.8.6c-.4.4-.6,1-.6,1.7v1.4h.2c.2-.3.5-.5.8-.8s.9-.4,1.6-.4,1.1.1,1.6.4.9.6,1.2,1.1.4,1,.4,1.7v.2c0,.7-.2,1.2-.5,1.7-.3.5-.7.9-1.2,1.1-.5.3-1.1.4-1.8.4h0ZM33,21.6c.7,0,1.3-.2,1.7-.6.4-.4.7-1,.7-1.6h0c0-.6,0-1-.3-1.3-.2-.3-.5-.6-.8-.8s-.8-.3-1.2-.3-.9.1-1.2.3c-.4.2-.6.5-.8.8-.2.3-.3.7-.3,1.2h0c0,.8.2,1.4.7,1.8s1,.6,1.7.6h0Z"/>
      <path class="st0" d="M42.7,22.6c-1.1,0-2-.3-2.7-1s-1-1.6-1-3v-2.3c0-1.3.3-2.3,1-2.9s1.5-1,2.7-1,2,.3,2.7,1c.7.7,1,1.6,1,2.9v2.3c0,1.3-.3,2.3-1,3s-1.5,1-2.7,1ZM42.7,21.6c.8,0,1.5-.2,1.9-.8s.6-1.2.6-2.1v-2.4c0-.9-.2-1.6-.6-2.1s-1.1-.8-1.9-.8-1.5.2-1.9.8c-.4.5-.6,1.2-.6,2.1v2.4c0,.9.2,1.6.6,2.1.4.5,1,.8,1.9.8Z"/>
      <path class="st0" d="M52.5,22.6c-.7,0-1.3-.1-1.9-.4-.5-.3-.9-.7-1.2-1.1s-.4-1.1-.4-1.7v-.2h1.1c0,.9.2,1.4.6,1.8.4.4,1,.6,1.7.6s1.3-.2,1.8-.6.6-1,.6-1.7h0c0-.8-.2-1.4-.6-1.8-.4-.4-.9-.6-1.6-.6s-.7,0-.9.2c-.2.1-.4.3-.6.4s-.3.3-.3.5h-1.5v-5.3h6.4v1h-5.3v3.4h.2c0-.2.2-.4.4-.5.2-.2.4-.3.7-.5s.7-.2,1.2-.2,1.1.1,1.5.4c.5.3.8.6,1.1,1.1s.4,1.1.4,1.7h0c0,.8-.1,1.4-.4,1.9s-.7.9-1.2,1.2c-.5.3-1.1.4-1.9.4h0Z"/>
      <path class="st0" d="M58.3,22.4v-1c0-.7.1-1.3.4-1.7s.6-.8,1-1c.4-.3,1-.5,1.6-.7l.8-.2c.4-.1.8-.3,1.1-.5s.6-.4.7-.7c.2-.3.3-.7.3-1.1h0c0-.7-.2-1.2-.6-1.5s-1-.5-1.7-.5-1.3.2-1.7.6-.7.9-.7,1.7v.2h-1.1v-.2c0-.7.2-1.3.5-1.8.3-.5.7-.9,1.3-1.1s1.1-.4,1.8-.4,1.3.1,1.8.4c.5.2.9.6,1.2,1.1s.4,1,.4,1.6h0c0,.8-.1,1.3-.4,1.7s-.6.8-1,1c-.4.3-1,.5-1.6.7l-.8.2c-.5.1-.9.3-1.2.5s-.5.4-.7.6-.2.6-.2,1v.2h5.8v1h-6.9Z"/>
      <path class="st0" d="M71.4,22.6c-.7,0-1.3-.1-1.8-.4-.5-.3-.9-.6-1.2-1.1-.3-.5-.5-1.1-.5-1.8v-3.4c0-.7.1-1.4.4-1.9.3-.5.7-.9,1.2-1.2s1.2-.4,1.9-.4,1.3.1,1.8.4c.5.3.9.6,1.2,1.1.3.4.4.9.4,1.5h-1.2c0-.6-.2-1.1-.6-1.4-.4-.4-.9-.5-1.7-.5s-1.4.2-1.8.6c-.4.4-.6,1-.6,1.7v1.4h.2c.2-.3.4-.5.8-.8s.9-.4,1.6-.4,1.1.1,1.6.4.9.6,1.2,1.1.4,1,.4,1.7v.2c0,.7-.2,1.2-.4,1.7-.3.5-.7.9-1.2,1.1-.5.3-1.1.4-1.8.4h0ZM71.4,21.6c.7,0,1.3-.2,1.7-.6s.7-1,.7-1.6h0c0-.6,0-1-.3-1.3-.2-.3-.5-.6-.8-.8s-.8-.3-1.2-.3-.9.1-1.2.3c-.4.2-.6.5-.8.8-.2.3-.3.7-.3,1.2h0c0,.8.2,1.4.7,1.8s1,.6,1.7.6h0Z"/>
    </g>
  </g>
</svg>