<?xml version="1.0" encoding="UTF-8"?>
<svg id="Calque_2" xmlns="http://www.w3.org/2000/svg" version="1.1" viewBox="0 0 22.6 22.6">
  <!-- Generator: Adobe Illustrator 30.4.0, SVG Export Plug-In . SVG Version: 2.1.4 Build 226)  -->
  <defs>
    <style>
      .st0 {
        fill: #f2f2f2;
      }

      .st1 {
        fill: #db3c27;
      }
    </style>
  </defs>
  <g id="Calque_1-2">
    <g>
      <path class="st1" d="M0,5.6V0h2.3C2.7,0,3,0,3.3.2c.3.1.5.3.6.5.2.2.2.5.2.8h0c0,.4,0,.7-.2.9s-.4.4-.6.4h0c.2.1.4.2.5.3.1.1.2.3.2.5v1.9h-.9v-1.7c0-.1,0-.3-.1-.3s-.2-.1-.4-.1H.9v2.2h-.9ZM.9,2.6h1.4c.3,0,.5,0,.7-.2s.3-.4.3-.6h0c0-.3,0-.5-.2-.7s-.4-.2-.7-.2H.9s0,1.8,0,1.8Z"/>
      <path class="st1" d="M5.2,5.6L6.8,0h1.5l1.6,5.6h-.9l-.4-1.3h-2.2l-.4,1.3h-.9,0ZM6.7,3.5h1.8l-.8-2.9h-.1l-.8,2.9h0Z"/>
      <path class="st1" d="M11.6,5.6L10.8,0h.9l.7,5h.1L13.3,0h1.5l.9,5h.1L16.5,0h.9l-.8,5.6h-1.5l-.9-5.1h-.1l-.9,5.1h-1.5,0Z"/>
      <path class="st1" d="M21.9,2.9c-.2,0-.3,0-.5-.2-.1-.1-.2-.3-.2-.5s0-.4.2-.5c.1-.1.3-.2.5-.2s.3,0,.5.2c.1.1.2.3.2.5s0,.3-.2.5c-.1.1-.3.2-.5.2h0ZM21.9,5.7c-.2,0-.3,0-.5-.2-.1-.1-.2-.3-.2-.5s0-.3.2-.5c.1-.1.3-.2.5-.2s.3,0,.5.2c.1.1.2.3.2.5s0,.3-.2.5c-.1.1-.3.2-.5.2h0Z"/>
      <path class="st0" d="M3.8,22.6c-.7,0-1.3-.1-1.9-.4s-1-.6-1.3-1.1c-.3-.5-.5-1.1-.5-1.9v-.3h1.2v.3c0,.8.2,1.4.7,1.8.5.4,1.1.6,1.8.6s1.3-.2,1.8-.5.6-.8.6-1.3,0-.6-.3-.9-.4-.4-.8-.5c-.3-.1-.7-.2-1.2-.4l-.7-.2c-.6-.1-1.1-.3-1.5-.5-.4-.2-.8-.5-1-.9s-.4-.8-.4-1.4.1-1,.4-1.4.7-.7,1.2-.9,1.1-.3,1.7-.3,1.3.1,1.8.3c.5.2.9.6,1.2,1,.3.4.5,1,.5,1.7v.6h-1.2v-.6c0-.5,0-.9-.3-1.1-.2-.3-.5-.5-.8-.6s-.8-.2-1.2-.2c-.6,0-1.2.1-1.5.4-.4.3-.6.7-.6,1.2s0,.6.2.8.4.4.7.5c.3.1.7.2,1.1.4l.7.2c.6.1,1.1.3,1.5.5.4.2.8.5,1.1.9s.4.8.4,1.4-.2,1.1-.4,1.5c-.3.4-.7.8-1.2,1s-1.2.4-1.9.4h0Z"/>
      <path class="st0" d="M9.6,22.4v-1h1.4v-7.7h-1.4v-1.1h3.8c1.3,0,2.3.3,3,1,.7.6,1.1,1.7,1.1,3v1.8c0,1.4-.4,2.4-1.1,3-.7.6-1.7,1-3,1h-3.8ZM12.2,21.3h1.3c.9,0,1.7-.2,2.2-.7s.7-1.2.7-2.2v-1.9c0-1-.2-1.7-.7-2.2-.5-.5-1.2-.7-2.2-.7h-1.3s0,7.7,0,7.7Z"/>
    </g>
  </g>
</svg>