<?xml version="1.0" encoding="UTF-8"?>
<svg id="Calque_2" xmlns="http://www.w3.org/2000/svg" version="1.1" viewBox="0 0 129.4 25.9">
  <!-- Generator: Adobe Illustrator 30.4.0, SVG Export Plug-In . SVG Version: 2.1.4 Build 226)  -->
  <defs>
    <style>
      .st0 {
        fill: #f2f2f2;
      }

      .st1 {
        fill: #db3c27;
      }
    </style>
  </defs>
  <g id="Calque_1-2">
    <g>
      <g>
        <path d="M30.5,18.3l-1.5-10.5h1.6l1.3,9.4h.2l1.6-9.4h2.8l1.6,9.4h.2l1.2-9.4h1.6l-1.5,10.5h-2.8l-1.7-9.5h-.2l-1.6,9.5h-2.9Z"/>
        <path d="M42.9,18.3l3-10.5h2.8l3,10.5h-1.7l-.7-2.5h-4.1l-.7,2.5h-1.7ZM45.7,14.3h3.3l-1.5-5.5h-.2s-1.5,5.5-1.5,5.5Z"/>
        <path d="M54.3,18.3V7.8h4.4c.7,0,1.2.1,1.7.3.5.2.9.6,1.2,1,.3.4.4.9.4,1.5v.2c0,.7-.2,1.2-.5,1.6s-.7.7-1.2.8v.2c.4,0,.7.1.9.4.2.2.3.6.3,1v3.5h-1.6v-3.2c0-.3,0-.5-.2-.6s-.4-.2-.7-.2h-3.2v4.1h-1.6ZM55.9,12.6h2.6c.6,0,1-.1,1.3-.4s.5-.7.5-1.2h0c0-.6-.2-1-.5-1.3-.3-.3-.8-.4-1.4-.4h-2.6s0,3.4,0,3.4Z"/>
        <path d="M64.9,18.3V7.8h3.1l2.8,9.4h.2V7.8h1.6v10.5h-3.1l-2.8-9.4h-.2v9.4h-1.6Z"/>
        <path d="M76,18.3V7.8h1.6v10.5h-1.6Z"/>
        <path d="M81,18.3V7.8h3.1l2.8,9.4h.2V7.8h1.6v10.5h-3.1l-2.8-9.4h-.2v9.4h-1.6Z"/>
        <path d="M95.8,18.5c-.8,0-1.4-.2-2-.5-.6-.3-1.1-.8-1.4-1.4s-.5-1.4-.5-2.3v-2.5c0-1.4.4-2.4,1.1-3.1.8-.7,1.8-1.1,3-1.1s2.2.3,2.9,1,1,1.6,1,2.8h0c0,0-1.6,0-1.6,0h0c0-.6,0-.9-.2-1.3s-.4-.6-.8-.8-.8-.3-1.3-.3c-.8,0-1.4.2-1.9.7s-.7,1.2-.7,2v2.5c0,.9.2,1.5.7,2s1.1.7,1.9.7,1.4-.2,1.8-.7c.4-.4.6-1,.6-1.7v-.2h-2.8v-1.4h4.4v5.2h-1.5v-1.1h-.2c0,.2-.2.4-.4.6-.2.2-.4.4-.8.5-.3.1-.8.2-1.3.2h0Z"/>
      </g>
      <g>
        <path class="st0" d="M30.5,18.3l-1.5-10.5h1.6l1.3,9.4h.2l1.6-9.4h2.8l1.6,9.4h.2l1.2-9.4h1.6l-1.5,10.5h-2.8l-1.7-9.5h-.2l-1.6,9.5h-2.9Z"/>
        <path class="st0" d="M42.9,18.3l3-10.5h2.8l3,10.5h-1.7l-.7-2.5h-4.1l-.7,2.5h-1.7ZM45.7,14.3h3.3l-1.5-5.5h-.2s-1.5,5.5-1.5,5.5Z"/>
        <path class="st0" d="M54.3,18.3V7.8h4.4c.7,0,1.2.1,1.7.3.5.2.9.6,1.2,1,.3.4.4.9.4,1.5v.2c0,.7-.2,1.2-.5,1.6s-.7.7-1.2.8v.2c.4,0,.7.1.9.4.2.2.3.6.3,1v3.5h-1.6v-3.2c0-.3,0-.5-.2-.6s-.4-.2-.7-.2h-3.2v4.1h-1.6ZM55.9,12.6h2.6c.6,0,1-.1,1.3-.4s.5-.7.5-1.2h0c0-.6-.2-1-.5-1.3-.3-.3-.8-.4-1.4-.4h-2.6s0,3.4,0,3.4Z"/>
        <path class="st0" d="M64.9,18.3V7.8h3.1l2.8,9.4h.2V7.8h1.6v10.5h-3.1l-2.8-9.4h-.2v9.4h-1.6Z"/>
        <path class="st0" d="M76,18.3V7.8h1.6v10.5h-1.6Z"/>
        <path class="st0" d="M81,18.3V7.8h3.1l2.8,9.4h.2V7.8h1.6v10.5h-3.1l-2.8-9.4h-.2v9.4h-1.6Z"/>
        <path class="st0" d="M95.8,18.5c-.8,0-1.4-.2-2-.5-.6-.3-1.1-.8-1.4-1.4s-.5-1.4-.5-2.3v-2.5c0-1.4.4-2.4,1.1-3.1.8-.7,1.8-1.1,3-1.1s2.2.3,2.9,1,1,1.6,1,2.8h0c0,0-1.6,0-1.6,0h0c0-.6,0-.9-.2-1.3s-.4-.6-.8-.8-.8-.3-1.3-.3c-.8,0-1.4.2-1.9.7s-.7,1.2-.7,2v2.5c0,.9.2,1.5.7,2s1.1.7,1.9.7,1.4-.2,1.8-.7c.4-.4.6-1,.6-1.7v-.2h-2.8v-1.4h4.4v5.2h-1.5v-1.1h-.2c0,.2-.2.4-.4.6-.2.2-.4.4-.8.5-.3.1-.8.2-1.3.2h0Z"/>
      </g>
      <path class="st1" d="M129.4,25.9H0V0h129.4v25.9ZM1,24.9h127.4V1H1v23.9Z"/>
    </g>
  </g>
</svg>