<?xml version="1.0" encoding="UTF-8"?>
<svg id="Calque_2" xmlns="http://www.w3.org/2000/svg" version="1.1" viewBox="0 0 48.8 22.7">
  <!-- Generator: Adobe Illustrator 30.4.0, SVG Export Plug-In . SVG Version: 2.1.4 Build 226)  -->
  <defs>
    <style>
      .st0 {
        fill: #f2f2f2;
      }

      .st1 {
        fill: #db3c27;
      }
    </style>
  </defs>
  <g id="Calque_1-2">
    <g>
      <path class="st1" d="M0,5.7L1.6.1h1.5l1.6,5.6h-.9l-.4-1.3H1.3l-.4,1.3H0h0ZM1.5,3.6h1.8l-.8-2.9h-.1l-.8,2.9h0Z"/>
      <path class="st1" d="M6.1,5.7V.1h2.2c.3,0,.6,0,.9.2.3.1.5.3.6.6.1.2.2.6.2.9h0c0,.5,0,.8-.2,1s-.4.4-.6.6c-.3.1-.6.2-.9.2h-1.4v2.2s-.9,0-.9,0ZM6.9,2.8h1.3c.3,0,.6,0,.7-.2s.3-.4.3-.7h0c0-.4,0-.6-.3-.7s-.4-.2-.7-.2h-1.3s0,1.9,0,1.9Z"/>
      <path class="st1" d="M11.5,5.7V.1h2.2c.3,0,.6,0,.9.2.3.1.5.3.6.6.1.2.2.6.2.9h0c0,.5,0,.8-.2,1s-.4.4-.6.6c-.3.1-.6.2-.9.2h-1.4v2.2h-.9ZM12.4,2.8h1.3c.3,0,.6,0,.7-.2.2-.2.3-.4.3-.7h0c0-.4,0-.6-.3-.7s-.4-.2-.7-.2h-1.3s0,1.9,0,1.9Z"/>
      <path class="st1" d="M16.9,5.7V.1h2.4c.4,0,.6,0,.9.2.3.1.5.3.6.5.1.2.2.5.2.8h0c0,.4,0,.7-.2.9s-.4.4-.6.4h0c.2.1.4.2.5.3.1.1.2.3.2.5v1.9h-.9v-1.7c0-.1,0-.3-.1-.3s-.2-.1-.4-.1h-1.7v2.2h-.9ZM17.8,2.7h1.4c.3,0,.5,0,.7-.2s.3-.4.3-.6h0c0-.3,0-.5-.2-.7s-.4-.2-.7-.2h-1.4v1.8h0Z"/>
      <path class="st1" d="M24.7,5.8c-.7,0-1.2-.2-1.6-.6s-.6-.9-.6-1.7v-1.3c0-.7.2-1.3.6-1.7S24,0,24.7,0s1.2.2,1.6.6.6.9.6,1.7v1.3c0,.7-.2,1.3-.6,1.7s-1,.6-1.6.6ZM24.7,5.1c.4,0,.8-.1,1-.4s.4-.6.4-1.1v-1.4c0-.5-.1-.8-.4-1.1s-.6-.4-1-.4-.8.1-1,.4-.4.6-.4,1.1v1.4c0,.4.1.8.4,1.1s.6.4,1,.4Z"/>
      <path class="st1" d="M29.6,5.7L28,.1h.9l1.4,5.1h.1L31.7.1h.9l-1.5,5.6h-1.5Z"/>
      <path class="st1" d="M34,5.7V.1h3.5v.8h-2.7v1.6h2.4v.8h-2.4v1.6h2.7v.8h-3.6Z"/>
      <path class="st1" d="M38.9,5.7v-.8h.8V.9h-.8V.1h2.2c.8,0,1.3.2,1.7.6.4.4.6.9.6,1.7v1c0,.8-.2,1.3-.6,1.7s-1,.6-1.7.6h-2.2ZM40.5,4.9h.6c.5,0,.8-.1,1.1-.4.2-.2.3-.6.3-1.1v-1.1c0-.5-.1-.9-.3-1.1s-.6-.4-1.1-.4h-.6v4h0Z"/>
      <path class="st1" d="M48.1,3c-.2,0-.3,0-.5-.2-.1-.1-.2-.3-.2-.5s0-.4.2-.5c.1-.1.3-.2.5-.2s.3,0,.5.2c.1.1.2.3.2.5s0,.3-.2.5c-.1.1-.3.2-.5.2h0ZM48.1,5.8c-.2,0-.3,0-.5-.2-.1-.1-.2-.3-.2-.5s0-.3.2-.5c.1-.1.3-.2.5-.2s.3,0,.5.2c.1.1.2.3.2.5s0,.3-.2.5c-.1.1-.3.2-.5.2h0Z"/>
      <path class="st0" d="M3.5,22.5v-3.7L0,12.7h1.3l2.6,4.7h.2l2.6-4.7h1.3l-3.5,6.1v3.7h-1.2,0Z"/>
      <path class="st0" d="M10.5,22.5v-9.8h6v1.1h-4.9v3.3h4.5v1.1h-4.5v3.3h4.9v1.1h-6.1,0Z"/>
      <path class="st0" d="M22.7,22.7c-.7,0-1.3-.1-1.9-.4s-1-.6-1.3-1.1-.5-1.1-.5-1.9v-.3h1.2v.3c0,.8.2,1.4.7,1.8.5.4,1.1.6,1.8.6s1.4-.2,1.8-.5.6-.8.6-1.3,0-.6-.3-.9-.4-.4-.8-.5c-.3-.1-.7-.2-1.1-.4l-.7-.2c-.6-.1-1.1-.3-1.5-.5-.4-.2-.8-.5-1-.9s-.4-.8-.4-1.4.1-1,.4-1.4.7-.7,1.2-.9,1.1-.3,1.7-.3,1.3.1,1.8.3c.5.2.9.6,1.2,1,.3.4.5,1,.5,1.7v.6h-1.2v-.6c0-.5-.1-.9-.3-1.1-.2-.3-.5-.5-.8-.6s-.8-.2-1.2-.2c-.6,0-1.2.1-1.5.4s-.6.7-.6,1.2,0,.6.2.8.4.4.7.5c.3.1.7.2,1.1.4l.7.2c.6.1,1.1.3,1.5.5s.8.5,1.1.9.4.8.4,1.4-.1,1.1-.4,1.5c-.3.4-.7.8-1.2,1s-1.1.4-1.9.4h0Z"/>
    </g>
  </g>
</svg>